<?xml version="1.0" encoding="UTF-8"?>
<svg id="Layer_1" xmlns="http://www.w3.org/2000/svg" xmlns:xlink="http://www.w3.org/1999/xlink" xmlns:cc="http://creativecommons.org/ns#" version="1.1" viewBox="0 0 190.5 115.4">
  <!-- Generator: Adobe Illustrator 29.3.1, SVG Export Plug-In . SVG Version: 2.1.0 Build 151)  -->
  <defs>
    <style>
      .st0, .st1, .st2 {
        fill-rule: evenodd;
      }

      .st0, .st3 {
        fill: #fff;
      }

      .st1 {
        fill: #b7beb6;
      }

      .st1, .st2 {
        stroke-linecap: square;
        stroke-linejoin: bevel;
        stroke-width: .7px;
      }

      .st1, .st2, .st4 {
        stroke: #232323;
      }

      .st1, .st2, .st5 {
        fill-opacity: 0;
      }

      .st2 {
        fill: #e5e5e5;
      }

      .st6 {
        fill: #138a00;
      }

      .st6, .st7, .st8, .st9, .st3, .st4 {
        isolation: isolate;
      }

      .st6, .st7, .st9 {
        fill-opacity: .8;
        opacity: .9;
      }

      .st10 {
        fill: #231f20;
      }

      .st11 {
        stroke: #231f20;
      }

      .st11, .st4 {
        fill: none;
        stroke-miterlimit: 10;
      }

      .st7 {
        fill: #ff1300;
      }

      .st9 {
        fill: url(#linear-gradient);
      }

      .st12 {
        opacity: .4;
      }

      .st3, .st4 {
        font-family: ArialMT, Arial;
        font-size: 5px;
      }

      .st4 {
        stroke-width: .2px;
      }
    </style>
    <linearGradient id="linear-gradient" x1="89.6" y1="212.8" x2="133.8" y2="212.8" gradientTransform="translate(0 260) scale(1 -1)" gradientUnits="userSpaceOnUse">
      <stop offset="0" stop-color="#900000"/>
      <stop offset="1" stop-color="#00a02a"/>
    </linearGradient>
  </defs>
  <g id="Layer_11" data-name="Layer_1">
    <g class="st12">
      <path class="st0" d="M-187.4-338.8h842.7V255.3H-187.4V-338.8" vector-effect="none"/>
      <path class="st0" d="M-164-338.3h795.8V257.5H-164V-338.3" vector-effect="none"/>
      <rect class="st5" x="-164" y="-338.3" width="795.9" height="595.7"/>
      <g>
        <path class="st2" d="M253-8.8l.8,7.5h42.6c0-.1,5.3-.1,5.3-.1,0,.1,2,11,2,11l1.9,10,3.1,16.3,2.6,13.6,1.3,6.5v1.1c.1,0,.2.4.2.4v.3l.2.3h0v.3h0v.6c.1,0,.1.2.1.2h0v1.4h0v.5h0v.4h0v.7c.1,0,.2.3.2.3v.6h0v.4h0c0,0-.2.4-.2.4h0v.2h0v.2h0v.3h0v.2h0v.4h.1v.8h0v.5h0v.6h0v.3h0v.2h0v.2h0v.3h0v.2h0v.2h0v.3h0v.3h0v.2h0v.2h0v.4c.1,0,.2,0,.2,0h0v1.8h0v.2h0v.3h0l.2.2h0v.2h0v.2h.2v.9h0v.3h0v.3h0v.5c.1,0,.1.2.1.2v.4h0v1.1c-.1,0-.1.2-.1.2h0v1.3c-.1,0-.1.2-.1.2v.2h0v.8l.2.2h.1c0,0,.1,0,.1,0h0v1.5h0v.3h-.2v.3h0v1.5c-.1,0-.1.2-.1.2-.1,0-.1.3-.1.3v.4h.2c0,0,.2.2.2.2h.6c0,0,.1.3.1.3v.4l-.3.2v.2l-.2.3v.4h0v1.2c-.1,0-.1.2-.1.2l-.2.2v.2c-.1,0-.3.2-.3.2l-.2.2h-.2v.9h.1v.3h-.4v.5h-.1c0,.2-.1.4-.1.4v.6h0v.5c-.1,0-.1.2-.1.2v.4h0v.4l-.2.2-.2.2-.2.2h0v.5h-.2c0,0-.1,0-.1,0h0c0,0-.1,0-.1,0v.5h0v.5l-.2.3-.2.4h0v2.6h0v1.3h0c0,0,.2.3.2.3h.3c0,0,.3.2.3.2h.2c0,0,.1.3.1.3v.6l-.2.2v.2h-.1v.9c-.1,0-.2.5-.2.5v1.4c.1,0,.3.4.3.4v.5c.1,0,.2.4.2.4v.4h0v.3h1.1c0,0,.2.8.2.8h0v.3h0c0,0,.2,1,.2,1l.3,2h0v.9c.1,0,.2,0,.2,0h0v.6c.1,0,.8,3.7.8,3.7v.4h0v.2l.7,3.9.6,3.7.2,1.2h0v.3h0l.4,2.3.4,2.5v.5h0v.3h0v.2l.2,1.2.3,2.3h0v.5h0c0,.1.1.9.1.9h0c0,.1.1,1.1.1,1.1h0c0,.1.3,1.7.3,1.7h0v.5l.2.8h0v.3l.4,2.3h0v.8h.1l.8,4.8h0c0,.1.1.9.1.9h0l.2,1h0v.9l.6,3.2h0l.4,2.1,1.4,8.2h0l9.5,57v.6c.1,0-4.5,1.3-4.5,1.3l-13.5,3.3-8.3,1.7-3.1.4-5.2.7-6.6,1.5-6.8,2.2-5,1.8-3.2,1.2-3.8,2-3.6,2-2.2,1.2-1.9,1.1-4,1.7-5.9,2.5-6.7,1.9-4.4,1.2-6.5.9h-6.3l-7.2-.6-8.1-1.7-4.7-1.8-3.5-1.6-2.5-1.6-2.8-2-1.4-1-2.8-.5h0l-.5.3-.3.2-3.8.7h-.7c0,.1-2.9.7-2.9.7l-5.5.7-6.3,1.1-6.8.4-8.3.4h-2.1c0,.1-6.3.5-6.3.5h0l-10.1-.5h-10.5l-5.3-.2h-9.8c0-.1-1.3-.1-1.3-.1l-7.1-.4-4.3-.6-3.4-.4h-1.6c0-.1-1.4-.3-1.4-.3h0l-1.6.2-2.6,1-4.8,1.3-3.4.5-4.7.5-4.2.4h-.9l-3.2.2v-1.5l-.3-55.1v-2.8h0v-4.1l4.9-5.2,1.1-1.2.8-.8,3.5-1.8h1l5.3.2-.4-1.2h0v-.2l-.5-1.7.3-7.4-.3-.6-.6-1-.7-.2-.4-.5-1.1-1.6-1.9-1.8.3-.2.4-.2-2.2-4.5h0l-1,.5-.5-.8h-.4c0,.1,0,0,0,0l-.2-.3-.8.4h0c0-.1-1.1.4-1.1.4l-2.7,1.2-1.1.4h-.4c0,.1-.2.2-.2.2h0v-.6l-4.1-.7-5-3.9h-1v-.5h0v-.3l-.2-1.7-.2-1.6v-1c0,0-.3-1.2-.3-1.2v-.8h0l-.5-4.3v-1.4h0v-.3h.2c0-.1.4-.3.4-.3l3.2-1.7,12.3-6.3,3.7-2,.9-2.6.3-.4.3-.3.3-.2h.4c0,0,.2,0,.2,0h.8l.2.2h0v.2h0v.3h0c0,0-.2.3-.2.3v.2c0,0-.3.2-.3.2v.2c0,0-.3.3-.3.3v.2c0,0-.2.2-.2.2v.6h0c0,.2,0,.3,0,.3h.5c0,0,.2,0,.2,0l2-.5v-.2h0l-.2-.9-.3-1v-.4h0l-.2-.6-.4-.7-1.7-2.5.7-.6-.2-.6h0v-.8l.6-3.2.3-2v-.5l.2-.2.3-.3h.5c0,0,.3-.2.3-.2h.2l.3-.2.2-.2h0v-.2h.3c0,0,.6-.5.6-.5l2.2-1.2,2.5-.4h1l.6-.2,1.1-.5,3.7-1.8v-2.3c0,0,0-.4,0-.4,0,0-.4-.8-.4-.8h0l-.2-.3-.2-1v-.9c0,0-.5-1.2-.5-1.2v-.3l-.8-1.7-.7-1.6-.4-1.9h.4v-2.2l-.7-1.1.3-5.4.2-2.7v-1.1h0v-.3h0v-.2h0c0,0,.3-.9.3-.9v-.4c0,0,.4-.7.4-.7v-.5c0,0,.2-.3.2-.3v-.4l.2-.4.2-.8v-.7c0,0,0-.7,0-.7v-.2h0v-.2h0v-1.4h0v-2c0,0,0-.8,0-.8l-.3-5-.2-4.5v-1.4l-.3-4.9v-.3l-.3-7-.5-9-2.1-9.9-.7-2.9h0l.2-.2.4-.3.6-.3h0l.4-.2.4-.2h.3c0-.1.6-.5.6-.5l.4-.2.4-.2.5-.2.5-.2.5-.2,1.2-.4.6-.2.5-.2h.4c0-.1,1.1-.5,1.1-.5l2-.7h.4c0-.1.4-.1.4-.1,0-.1,3.7-.8,3.7-.8h.7c0-.1.7-.3.7-.3l.8-.2,1-.3.6-.2h0l2.4-.7,2.3-.7,4.7-1.3.7-.2h0l1.4-.4,16.9-3.7,3.6-.8,16.3-3.6,1.2-.3h.6c0,0,.2-.2.2-.2l10-2,1.3-.3,1.1-.3h.3l.3-.2,1.7-.5.6-.2,1.1-.3h.6c0,0,.4,0,.4,0l.4-.2h.4l.4-.2h.7l.4-.2h.4l.4-.2h.4l.7-.3h.5c0-.1.2-.2.2-.2h.5c0-.1.2-.2.2-.2h.6c0-.1.1-.2.1-.2l.6-.2h.5c0-.1.2-.1.2-.1l.7-.3h.2L191.5,0l1.1-.3h.5l.6-.2h.6c0-.1.7-.1.7-.1,0-.1.2-.1.2-.1h.7c0-.1.2-.1.2-.1h.9c0-.1.6-.2.6-.2h.5c0-.1.1-.1.1-.1h1.1c0-.1.3-.1.3-.1l1.5-.5h.3l.5-.2h.3l.8-.2h.4l1.2-.4.6-.2h.4l.4-.2h1c0,0,.5-.2.5-.2l1-.2h.2l.7-.2.9-.2.7-.2h.1l.8-.3.7-.2.8-.2.8-.2h.5c0,0,.3,0,.3,0h3.9l.5-.3h.1l.4-.2,1.6-.6,1.3-.5,1-.3.6-.2.9-.3h.4c0,0,.4-.2.4-.2h.2l1.5-.5.6-.2h.2l1.6-.4h.6c0-.1,1-.4,1-.4h.4l1.3-.4h.5c0-.1.3-.2.3-.2h.4c0-.1.4-.3.4-.3h.2l.4-.3.3-.2.4-.2.7-.4.3-.2.4-.2h.3c0-.1.4-.3.4-.3h.3c0-.1.2-.2.2-.2l.8-.4h.3c0-.1.5-.4.5-.4l.4-.2.7-.3.8-.3.8-.3.7-.2h0l.8-.3.8-.2h.4c0-.1.2-.2.2-.2l1.2-.4,1.9-.5h0l.9-.3h.1l.6-.2h.4c0-.1.1-.1.1-.1h.7c0-.1.1-.1.1-.1h.1l.9,7.6M166.1,171.1l-.3.2h-.4c0,.1-.3.2-.3.2h-3.5c0-.1-1.6-.3-1.6-.3h-.8c0,.1-2.3.3-2.3.3l-4.6.6-.8.2h-2.5c0-.1-.6-.3-.6-.3l-8.8,1.2-1.1.2-1.1.3-1.1.6-1,.7-1.5,1.5-.8.8-7.3.5h-5c0-.1,0,1.7,0,1.7h0v6.6h0v.6h.2v.2h0v-.3h.7c0-.1,0-.1,0-.1h0c0-.1.2-.1.2-.1h.7v.3h0v.2h0v-.5h.7c0-.1.4-.1.4-.1h.2v.4h0c0,.1,0,0,0,0h0c0-.1,0-.1,0-.1h1.4v.4h0v-.2h.2c0-.1.4-.2.4-.2h.6c0-.1,0-.1,0-.1h.4v.2h0v.3h0c0,.1,0,0,0,0h0c0-.1.3-.1.3-.1h1.1v.4h0v-.2h.5c0-.1.2-.1.2-.1h.9c0,.1.2.1.2.1h1.5c0-.1.1-.1.1-.1h1.7c0-.1.6-.1.6-.1h.7c0,.1.1.1.1.1h.5c0-.1.9-.1.9-.1,0-.1.2,0,.2,0h1.7c0-.1.5-.1.5-.1h.9c0,.1.1.1.1.1h.4l.7-.3h5.6c0-.1.4-.1.4-.1h2.6l.3.3h.1c0,.1.2.1.2.1h1.9c0,.1.2.2.2.2h.2c0,.1.3.1.3.1h.6c0-.1.1-.1.1-.1h.6c0-.1.5-.1.5-.1h0c0,.1.1.1.1.1h1.2l.3-.2h.7c0,.1.1.1.1.1h2.4c0,.1.5.1.5.1h1.3c0-.1.3-.1.3-.1h1.6l.6-.2h1.5c0-.1.5-.1.5-.1,0-.1.4-.1.4-.1h.5v.3h.8c0-.1.7-.3.7-.3h1.9c0-.1,1.1-.4,1.1-.4l1-.3v-.8h0l-.4-13h0v-.2h0v-2.4h-1.7c0,.1-.7.1-.7.1l-1.4.2h-1.1c0,.1-.6.1-.6.1,0,.1-.9.3-.9.3l-1.1.2-1.6.4-1,.2h-.6c0,.1-.4.5-.4.5" vector-effect="none"/>
        <path class="st2" d="M290.1-1.4h11.6l2,10.9,1.9,10,3.1,16.3,2.6,13.6,1.3,6.5v1.1c.1,0,.2.4.2.4v.3l.2.3h0v.3h0v.6c.1,0,.1.2.1.2h0v1.4h0v.5h0v.4h0v.7c.1,0,.2.3.2.3v.6h0v.4h0c0,0-.2.4-.2.4h0v.2h0v.2h0v.3h0v.2h0v.4h.1v.8h0v.5h0v.6h0v.3h0v.2h0v.2h0v.3h0v.2h0v.2h0v.3h0v.3h0v.2h0v.2h0v.4c.1,0,.2,0,.2,0h0v1.8h0v.2h0v.3h0l.2.2h0v.2h0v.2h.2v.9h0v.3h0v.3h0v.5c.1,0,.1.2.1.2v.4h0v1.1c-.1,0-.1.2-.1.2h0v1.3c-.1,0-.1.2-.1.2v.2h0v.8l.2.2h.1c0,0,.1,0,.1,0h0v1.5h0v.3h-.2v.3h0v1.5c-.1,0-.1.2-.1.2-.1,0-.1.3-.1.3v.4h.2c0,0,.2.2.2.2h.6c0,0,.1.3.1.3v.4l-.3.2v.2l-.2.3v.4h0v1.2c-.1,0-.1.2-.1.2l-.2.2v.2c-.1,0-.3.2-.3.2l-.2.2h-.2v.9h.1v.3h-.4v.5h-.1c0,.2-.1.4-.1.4v.6h0v.5c-.1,0-.1.2-.1.2v.4h0v.4l-.2.2-.2.2-.2.2h0v.5h-.2c0,0-.1,0-.1,0h0c0,0-.1,0-.1,0v.5h0v.5l-.2.3-.2.4h0v2.6h0v1.3h0c0,0,.2.3.2.3h.3c0,0,.3.2.3.2h.2c0,0,.1.3.1.3v.6l-.2.2v.2h-.1v.9c-.1,0-.2.5-.2.5v1.4c.1,0,.3.4.3.4v.5c.1,0,.2.4.2.4v.4h0v.3h1.1c0,0,.2.8.2.8h0v.3h0c0,0,.2,1,.2,1l.3,2h0v.9c.1,0,.2,0,.2,0h0v.6c.1,0,.8,3.7.8,3.7v.4h0v.2l.7,3.9.6,3.7.2,1.2h0v.3h0l.4,2.3.4,2.5v.5h0v.3h0v.2l.2,1.2.3,2.3h0v.5h0c0,.1.1.9.1.9h0c0,.1.1,1.1.1,1.1h0c0,.1.3,1.7.3,1.7h0v.5l.2.8h0v.3l.4,2.3h0v.8h.1l.8,4.8h0c0,.1.1.9.1.9h0l.2,1h0v.9l.6,3.2h0l.4,2.1,1.4,8.2h0l9.5,57v.6c.1,0,6.9-2,6.9-2l8-1.9,9.1-2.2,9.6-2.4,1.2-.4,3-.9v-1.5l-2.4-49.5-.5-10.1h0v-.2h0v-.4h0v-2.7l-.2-3.4h0v-1.4h0v-1h0v-.4h0v-.2h0v-2h0v-2l-.2-2h0v-.9h0v-4.1h0v-1h0v-.7h0v-2.3h-.1v-1.8l-.3-6.5h0v-.9h0v-.9h0v-.2l-.2-4.4-.3-5.4-.2-4.1h0l-.3-5.1h.2l1.6.4h0l-.2-1.5v-1.2c-.1,0-.2,0-.2,0h0v-1.1l-.2-.7h0v-1.9c-.1,0-.1-.5-.1-.5h0v-3.3h-.1v-1c-.1,0-.1-.4-.1-.4h0v-.2h.1c0,0,.3-.9.3-.9l.5-1.4.2-.5.2-.4v-1.2h0l-.3-1.7-1.3-7.5-.6-3.5h0c0,0-1-6.1-1-6.1l-.2-1.1-.3-1.5-.5-2.9-.3-1.6v-.5l-.5-2.7-.2-1.1-.2-1v-.6c-.1,0-.1-.3-.1-.3h0v-.8c-.1,0-1.5-8.5-1.5-8.5l-.3-2-.3-2.1v-.9c-.1,0-.5-2.7-.5-2.7l-.4-2.5v-.3l-.2-.7-.2-1.6h0v-.8c-.1,0-.2-.8-.2-.8l-.5-3-.4-2.7h0l-.3-1.6h0l-.7-4.2-.2-1.2-.6-3.8v-.5l-.3-1.4-.2-1.5-.7-4.1-.5-3.2-.5-3.4-.2-1v-.2h0v-.3l-.3-1.3v-.6h-.1c0-.1-.2-1.3-.2-1.3l-.4-2.3h0v-.2l-.9-5.9-.7-4.3h0l-.3-1.5-.3-2-.8-5.1-1.2-7.5-.6-3.4-.7-4.6-.3-1.6-.5-3.3v-.3h0c0,0-.4-2.7-.4-2.7l-.4-2.2-.8-4.8-.8-4.7-.8-5.2-.2-1.2-.2-1.5v-.4l-.7-4.1h0c0,0-.5-3.3-.5-3.3l-.2-1.1-1-5.9-.8-5-.8-5-.9-5.4-.2-1.3-.4-2.2-.4-2.7-.2-1.5v-.6l-.5-2.4v-.4h0v-.4h0v-1.8c-.1,0-.1-.3-.1-.3-.1,0-.2-.2-.2-.2h0l-.2-.6v-.2l-.2-.2-.2-.5h0v-.2h0v-.6c-.1,0-.3-.6-.3-.6v-.7c-.1,0-.1-.3-.1-.3h0v-1.1c-.1,0-.3-.4-.3-.4v-.8h0v-.5h-.1c0,0-.1-.3-.1-.3h0c0,0-.6-.7-.6-.7l-.2-.4-.3-.6-.3-.7-.3-.7v-.4c-.1,0-.2-.2-.2-.2v-.5c-.1,0-.1-.5-.1-.5-.1,0-.3-.5-.3-.5h0l-.3-.5-.2-.4v-.3c-.1,0-.3-.3-.3-.3l-.2-.4v-.2l-.3-.4-.5-.9v-.2c-.1,0-.2-.1-.2-.1l-.6-.5v-.2h-.1v-.8c-.1,0-.3-.3-.3-.3h0v-.2h0v-1h0v-.3l-.2-.5v-1.3l.2-.4v-.2l.2-.8.3-1,.2-.6.2-.4.6-2.1v-1.3c-.1,0-.1-.7-.1-.7l-.6-.2h0l-.2-.2h0v-.2h-1.1c0,.1-1.8.3-1.8.3h0l-1.4-2M250.9-25.9l.6,5,.2,1.5.3,3.1M238.2-36.7l2.1,1.8,3.5,3M233-41.1l1.3,1.1M202.7-66.6l1.6,1.3M196.1-71.8l-13.5-11.3.4.3,1.7,1.4,3,2.2.2.2M164.3-98.4l-3.9.7h.8c0,0,.1,0,.1,0h.2M160.1-98.5v.4M213.7-132l-3.5.5-2.9.4-2.2.3-3.1.4-3.4.4.2.4-3,.4-2.6.3v1.2c.1,0,.2.2.2.2h-1.2c0,0-.4,0-.4,0l-1.2.2h-.8c0,0-.4,0-.4,0h-.4v.9c.1,0-1.9,1.7-1.9,1.7l-2.8,2.3-1.7,1.5-3,.9-3.4,1-1.6.5v-.5c-.1,0-.1-.2-.1-.2v-.3h0v-2.6c.1,0,.1,0,.1,0h0v-1.4h0v-2.2h.1v-.6h.1v-.2h0c0,0,.2-.5.2-.5h0l-1.1.2-1.5.2-2,.3-2.1.9h-.1c0,0-.1-.3-.1-.3h-.6l-.2.2h0l-.2-1.1-1.3.5-1.3.5-.3-.4-.6.3h-1c0,0-.2,0-.2,0h0v-.4c.1,0,.3-.3.3-.3h0c0,0,.4-.9.4-.9v-.2c.1,0,.2-.3.2-.3l.2-.7v-.4h0v-.4h-.2l-.8.5h-.1v-.4l-.2-.2h-.1v-.2h-.9c0-.1-.3-.1-.3-.1v-.2h-.3v-.2h0v-.2h0c0-.1-.1-.1-.1-.1h0v-.2h0v-.2h-.2v-.6h0v-.3h0l-.3-.3h0v-.5h0v-1.7h0v-.2h0v-.8h0v-.2h0v-.6h0c0-.2-.2-.6-.2-.6h-.3c0-.1-.5-.3-.5-.3l-.3-.2h-.2l-.5-.2h0l.3-.6v-.5h.1v-.2h0v-.2h0v-.2h0v-1.1h0c0-.1.3-.7.3-.7h0v-.2h0v-.4c.1,0,.2-.2.2-.2v-.5c.1,0,.1-.2.1-.2h0v-.5h.1v-.3h0v-.7h0v-.2h0v-.2h0v-.2h0v-.7h0v-.4h0v-.2h0l-.2-.3h0c0-.1-.2-.3-.2-.3h0v-1.7h-.1c0-.1.5-1.1.5-1.1v-.2l.2-.3h0v-.5h0v-.3l.2-.8v-.2h0v-.4h0v-.7h0v-.7h-.1.3c0-.1.2-.3.2-.3h.1l.4-.3.3-.2.3-.3.5-.4.3-.4h0l.2-.2h.1v-.2h.2l.2-.4.2-.2.2-.2.2-.2h0v-.2l.3-.3.5-.8.2-.4.2-.4h0v-.2h0v-.3h0v-.3h.1c0-.1.2-.3.2-.3h0c0-.1.2-.5.2-.5h0v-.5l.4-.7h.1c0-.1.2-.3.2-.3l.2-.2.2-.2v-.2h.1l.2-.3h.2v-.2l.3-.6h0v-.3h.1v-.2l.4-.7v-.2l.3-.7.3-.7h0c0-.1.4-.5.4-.5h0l.2-.2h0c0-.1.1-.3.1-.3h0v-.2h.1v-.5h0v-.6h-.1v-.5h0v-.6h0v-.2h0v-.2h0v-.2h.1l.3-.4h0v-.2c.1,0,.3-.2.3-.2h0v-.2h0l.2-.2h.1c0-.1.4-.4.4-.4h.1c0-.1.1-.3.1-.3h0v-.2h0v-.2h.1v-.2h0c0-.1-.1-.3-.1-.3h0v-.2h0v.2h.1l.5-.4h0v-.4h.8c0-.1.3-.4.3-.4l.5-.5h.2c0-.1.1-.1.1-.1,0-.1.1-.2.1-.2h0v-.4h.2v-.8h0v-.3h0v-.5h0v-.2h.1v-.3h0v-.2h0v-1.4h0v-.3h0v-.4h0v-.3h0v-.3h0v-.2h.1l.4.2h.2c0,.1.2.3.2.3l.3.3.4.3.4.2h.2c0,.1.8.7.8.7h0l.6.4h.1l1,.5.5.2h.3c0,.1.8.4.8.4h.2c0,.1.3.1.3.1,0,.1,1,.4,1,.4l.6.2h1.4l.2-.2h0v-.2h0v.6h0v.2h0c0,.1.1.1.1.1h0v-.2h.1l1,5,.8,4.3.5,2.6,1,3.5v2.5h0l.9,2.8.9,1.8,1,2h.2v.4h0c0,.1.1.1.1.1v1.7l-.3.2-.3.3h-.1l3.5,1.9,3.4,1.7,2,1h0l.9.5,2.7,1.3,2.7,1.4,2.6,1.3.8.5v.7c.1,0,.1.3.1.3h.1c0,.1.2.6.2.6l.2.4v.3c.1,0,.2.2.2.2h0v.4h0v1.1h0v1.4h0v.3h0v.6c.1,0,.4.9.4.9v.4c.1,0,.2.2.2.2v.2l.2.2.2.3.2.3v.2c.1,0,.2.2.2.2h0v.4h0v.7h-.1l4.1-3Z"/>
      </g>
      <g>
        <path class="st1" d="M103.5,26.1l-1.6.5-.7-4.3h0l1.1-.4,2-.7h.4c0-.1.4-.1.4-.1,0-.1,3.7-.8,3.7-.8h0l.2,1.4-.2,2.7-2.8.9-2.7.9" vector-effect="none"/>
        <path class="st1" d="M160.1,104.6v.6h0c0,0,.1,0,.1,0l-.4,1.5h-.1l-.5,1.6v.5l-.4,2.1-1.2,9.1v1.1c-.1,0-.1,1.2-.1,1.2-.1,0-.3.8-.3.8v1.2c-.1,0-.2.5-.2.5l-.2,1.7-9.2-3.7h0l-.2.2-.2.2-.4.4v.2l-.2.2v.2l-.5,1.5h0v.2l-.7.6-.2.3v.2h-.1c0,0-.2,0-.2,0l-.6-.3h-.1l-1.3-1.7.2-.2-.7-.9v-.6c.1,0,.4,0,.4,0l.3-.2.4-.4-3.8.2v-8.2l2.1-1.6,3.1-2.1,7.1-4.7,2-.2h.9c0,0,3.1-2.2,3.1-2.2l1.8.3h.4" vector-effect="none"/>
        <path class="st1" d="M122.9,16.3h0l1.4-.4.9,3.1v.2l.5,1.2-.4,1.5,1.2-.3-.4,1.9,4.5.4-.2.9v.8c-.1,0-.2.2-.2.2v.6l-.3,1v.6l-.2.5-.2,1v.5h0v.3l-.3-.2h-.1l-.6-.4-.5-.3-1.3,6.9-3.6-.7.4-.5-2.8-2.7-3.4,1.8-1.4,2.4-3.1-.7h0v-1.4h0v-.7l.2-.3v-.3h0l-2.4-1.1-.2-1.1h-3.2v2.1l-4.8.2-.4-3.3-.6.2-1.5-1.1-.3-1.1,1.3-.5v-.3c0,0,.8-.3.8-.3l1.6-.5,2.7-.9,2.8-.9.2-2.7-.2-1.4h.7c0-.1.7-.3.7-.3l.8-.2,1-.3.6-.2h0l2.7-5.6,2.8-5.6h0l4.7,8.4h0" vector-effect="none"/>
        <path class="st1" d="M193.9,4.7l1.9,6.6,1.9,6.4h.3l.8,2.3.6-.2.7,2.5-.6.2.9,2.9-.3.3v.4c.1,0-2.1-.4-2.1-.4v-.5c.1,0-.8.2-.8.2l-.5.2h-.2l-.5.2v-.2c-.1,0-3.1,1-3.1,1l-3,.9-3.4,1.1-3.7,1.2.2.5-.7-.4h-.4v.2l-6.1,3.7v.2l-1.2.3-1.1.3-1.6.5-1.7.5-.4.2-4.5.5v.6l-1.1.2v.4h-1.7l-.7,1.2h0c0,0-.4.8-.4.8v.2c-.1,0-.7.8-.7.8l-1.2,1.4-1.7-1.1.4-2.5,1.6.2v-4.6c.1,0,.1-.7.1-.7l1.4-.7v-.2l2-1v-.5h-.5v-.5l-6.3,1v-.9h-1.9v-.2h-8.4l-.3,1.2h-5.9l-4.6.2v-9h.1v-.4h.7v-.2h.2v-.3h-.1v-.7h.8v-1.3h.2v-.4h.2v-.4h.4v-.8h0v-.5c-.1,0,.4,0,.4,0v-1.2h-.4l-.3-1.5,4.1-1.3,3.7-1.2-.3-1,16.3-3.6,1.2-.3h0v-.2h0v-.2h.1c0,0,.7-.3.7-.3v.4h0v.2h0c0,0,.2,0,.2,0h.2v.4c.1,0,9.8-2.4,9.8-2.4h0l1.3-.3,1.1-.3h.3l.3-.2,1.7-.5.6-.2,1.1-.3h.6c0,0,.4,0,.4,0l.4-.2h.4l.4-.2h.7l.4-.2h.4l.4-.2h.4l.7-.3h.5c0,0,.2-.2.2-.2h.5c0,0,.2-.2.2-.2h.6c0,0,.1-.2.1-.2l.6-.2h.5c0-.1.2-.1.2-.1l.7-.3h.2l1-.3,1.1-.3h.5l.6-.2h.2l.7,2.7.3,1.1v.4" vector-effect="none"/>
        <path class="st1" d="M200.3,26.1l1.6,5.3-.8.5.9,3.1.8-.4.7-.3.5-.3,1.1-.6.9-.4,1.4-.7,1.5-.7.2.7v.8c.1,0,.2.6.2.6v.6c.1,0,.2.6.2.6l.2,1.6-1.7.4v.3h-.3c0,0,.4,1.8.4,1.8h-.2v2.1h-.9l.2,3.1-.2,3.4h-.3l.6,4.5.3.2v.3c.1,0-4.4,3.1-4.4,3.1l1.2.8-3.9,1.5.9,2.4.6,2.3v.4c.1,0,.1,1,.1,1v3.7c-.1,0-.1.7-.1.7h-3.4v-2.6l-.2-.6v-.2h-1.1l-1.1-.3v-.5h-.6v.2h-.6v.4h0c0,0-.5,0-.5,0h-.4c0,0-2.6-.5-2.6-.5v.2l-1.8-.2v-.2h-.3v.2l-2.3-.3-2.5-.9-1.6-.5-2.9-1h-.3c0,0,.2-1.8.2-1.8l.2-.7.2-1.1v-.4h.2c0,0-2.7-1.4-2.7-1.4l-.6-1,1-1.3.9-.4v-.9c.1,0-.4-4.9-.4-4.9l-2-1.4-.7-.3.6,3.2h-.3v.6l-.4.5h-1.3l-1-3.9,1.5-.8h-.2l-.2-1.5-.3-.4-.3-.6-.4-.6-.4-.5-.2-.3-.8-1.3-.4-.7-1-1.5-1-2.1,1.7-.5,1.6-.5,1.1-.3,1.3-.3v-.2l6.1-3.7v-.2h.4l.7.4-.2-.5,3.7-1.2,3.4-1.1,3-.9,3-1v.2c.1,0,.6-.2.6-.2h.2l.5-.2.9-.2v.5c-.1,0,2.1.4,2.1.4" vector-effect="none"/>
        <path class="st1" d="M147.4,89.2l3.2-.2h.4v.3l4.7-1,1.5,3.9v.2h.1c0,0,.1,0,.1,0,0,0,.1.2.1.2v.2h.2c0,0,.2,0,.2,0v.2c.1,0,.3.2.3.2l.2.3h0l-.8.5,1,1.8-1.1.4h-1.8l-.3,2.2h1.6l.7-.4,1.4-.9h0c0,0,.5,3.4.5,3.4h-.7v.6c-.1,0,.9.2.9.2l.3,2v.9c.1,0,.1.2.1.2h-.4l-1.8-.3-3.1,2.3h-.9c0,0-2,0-2,0l-7.1,4.7-3.1,2.1-2.1,1.6v1.4h0l-1.9-.8,1.7-2.3.7-.8,1-1.2-1.9-1.6-1.6-2.2-.9.8,1,1.4-.2.2v.5h0c0,0-.4.4-.4.4l-1.1.5-.9.3-.9-1.4-.9.3-.6.2-.4.2-1-1-.7-.7-.5-.4-.3-.3.6-2.2,1.5-4.7-2.1-.9,1.3-4.4.3-1.1.2-1.7-.8-.4,4.8-3.8,1.6-1.3,4.9-3.8.4,6.1h1c0,0,2.6-.3,2.6-.3l.5,1,.2.2v-.3h.5v-.6h.3v-.8" vector-effect="none"/>
        <path class="st1" d="M155.8,88.3l-4.7,1v-.4h-.5l-3.2.2h-.6l-.2-.3v.3h-.5v-.3h-.2v-.5h-.4v-.2h.2l-.2-.7h.4c0,0-.7-3.5-.7-3.5h-1v-.2l-.3-.4-.4-.5-1.4,1.1-4.9,3.8-1.6,1.3-.5-.9-.6-1.1-.6-.9-.7-.8.2-.3.3-.5.2-.6.2-.5.4-.7.2-.5.3-.6.4-.7.4-.9.4-.5.6-.9.3-.8h0c0,0,.2,0,.2,0,0,0,.2-.2.2-.2v-.4l-.3-.6h0v-.4h-.1v-.6l-.4-.3.3-2.1-.4-.2.2-.5.5-.4v-.6c.1,0,.6-.9.6-.9l1.4-.2v-.2l1.6.3.9.2,1.2.2h4.9c0,0,.9,0,.9,0v1.8c.1,0,.2.8.2.8v.8l.2.8v1c.1,0,.2,0,.2,0h.1c0,0,.2-.3.2-.3l.7-.6h.2c0,0,.6-.5.6-.5l.5-.3h.2v-.2l.4-.3v-.5l1.8-.2v.2h-.1v.3c-.1,0-.2,0-.2,0h0v.3h0v.2h-.2v.2h0v.3h0c0,0,.2.4.2.4h0v.2h0v.2h0v.2h0v1.8c.1,0,.2.8.2.8v.4l-.2.4.3,1,.3,1.1.6-.2.8,1.7.4,1.1.7,2.1.7.8v1l-.2.2h0l-.2.2h-.3l-1.1.2" vector-effect="none"/>
        <path class="st1" d="M186.3-13.2l.3.8.9,2,.4.9h-.3v.9c.1,0,.2.4.2.4v1.8l.6-.2v.6c-.1,0-.1.4-.1.4-.1,0-.3.3-.3.3v.2l-.3.3v.2h-.2c0,0-.1,0-.1,0,0,0-.1.4-.1.4v.4c-.1,0-.1.3-.1.3v1.3l.5.9.7,2.6h-.5c0,.1-.2.1-.2.1l-.6.2h-.1l-.6.2h-.2l-.5.2h-.2l-.5.2-.7.2h-.4l-.4.2h-.4l-.4.2h-.5c0,0-.2,0-.2,0l-.4.2h-.4l-.4.2h-.4l-.4.2h-.2l-1.1.3-.6.2-1.7.5h-.3l-.3.2-1.1.3-1.3.3h0l-9.7,2.4v-.4h-.5v-.7l-.7.2h-.1l-.8-1.3-.3-.5-.5-.7-.3-.4-.2-.2-.5-.7-.3-.4-.2-.3-.3-.4-.2-.3-.3-.4-.5-.7-.5-.7-.3-.4h0v-.6l-.2-.7v-.8h0v-2.7c.1,0,.2-.7.2-.7v-3c-.1,0-.1-.3-.1-.3l-.2-.9v-.8h-.1l2.1-.5.8-.2h.3l.5-.2h.4l.5-.2.3,1.8.2,1.2,11.4-2.9h.2c0,.1,2.8-.2,2.8-.2v-.9h1.4c0-.1,1.7-.9,1.7-.9l.3.7,2.3-1h0l.3-.2,3.1-1.4-1.1-2.8h.4l2.1-.4.2.7.2.5.2.4.3.5.3.6.2.3.4.5-1.6,1.2-.6.4.2.5" vector-effect="none"/>
        <path class="st1" d="M139.9,7.9v.4c.1,0,.5.7.5.7v.3c.1,0,.4.5.4.5l.2.4h0c0,.1.1.9.1.9v.6c.1,0,.2.4.2.4h0l.2,1.4-4.1,1.3.3,1.6h.4v1h-.5c0,.1.1.6.1.6h0v.8h-.4v.4h-.2v.4h-.2v1.3h-.8v.7h-5.2v.9c-.1,0-.4,1.2-.4,1.2l-4.5-.4.4-1.9-1.2.3.4-1.5-.4-1.2v-.2l-1-3.1h0c0-.1.6-.3.6-.3h0l-.4-.8-.8-1.4-1.1-1.9-.5-.8.7-.4.7-.4.7-.4.7-.4.7-.5.6-.3.7-.3.7-.3.6-.3h.1l.3.6h0c0,0,6.4-1.9,6.4-1.9h.2v-.2l-.2-.8h0v-.8c-.1,0-.4-.7-.4-.7l2-.6.8-.2.6-.2,1.2,3.8.6,1.6" vector-effect="none"/>
        <path class="st1" d="M159.2,108.4l.5-1.6h.1l.4-1.5h-.1v-.8h0v-1.1c-.1,0-.4-2-.4-2l-1-.2v-.6h.8l-.5-3.3h0v-.6h0v-.5c-.1,0-.3-.4-.3-.4l-1-1.8.8-.5h0l.4-.3h0l.9-.8.7-.8.6-1.2.5-1.1.4-1.2.2-.6-.5-.3v-.4l1.4-2.7,2-2.1v-.2l-.5-2.1,1.3,1,1.6,1.1,1.9,1.4.7-.2.5-.2v-.3c.1,0,.5-.7.5-.7l.4-.6.5-.6.6-.8.4-.5.2-.6.5-1.2.3-.9.3-.8.5-1,.4-.9.4-.9.2-.3.3-.4.3-.4v-.4c.1,0,.5-1.1.5-1.1l.4-1.1.4-1,.6-1.7.4-1.3.5-1.2.3-.8.3-1.1v-.4c.1,0,1.7.5,1.7.5l2.6.9,3.1,1.1h.2l-.2.7-.3.8-.3.8-.3.6-.5,1h.2l-.2.7-.2.7-.2.5-.3.4-.5.4h0c0,0-.1,0-.1,0,0,0-.1.2-.1.2h0v.3h-.1c0,0-.1.3-.1.3h0c0,0-.1.2-.1.2h-.1l-.2.2h-.2c0,0-.2.2-.2.2h-.2c0,0-.1.3-.1.3l-.2.2-.3.3-.2.3-.2.5.6.2-.2.7,1.5.6-.4,1.2h-.1l-1.1,2.6-.5,2.8,2,.7,1.8.5.2-.7.3-1.2.2-1.2.2-1.4,1.3.2h.1l3.5.6-.2,2-.6,1.5h-.5v1.4h-.9v.3l-.6,1.5,1.5.2.2-.4,3,.6.2.8-.8,2.9h.6l.7,2.4.2.7-1,.2v1.9h-1.3v.4h0v.2h0v.2h0v.8c-.1,0-.1.2-.1.2v.3c-.1,0-.3,1.1-.3,1.1l-.4.3-2.1,1.2-.3.2-.8.5-5.3,3.3-2.9-.7-.7,1.9-2.3,5.6-10.5.2-1.6-.4-2.4.2-1.8-1.7-.2-.8" vector-effect="none"/>
        <path class="st1" d="M120,38.1l-1.1.4-.5-.3-.6-.3-.5-.3-.3-.2-.3-.2-.4-.2h-.2c0,0-.4-.4-.4-.4h0l.2-.3,1.4-2.4,3.4-1.8,2.8,2.7-.4.5-.4.6h0l-1.2,1.1-1.2.7-.2.2" vector-effect="none"/>
        <path class="st1" d="M135,31.8v3.2l-.7-.4-1.1-.7-.6-.5-.6-.6-.8-.8-.6-.6-.9-.8v-.5c-.1,0-.1-.2-.1-.2h0v-.6l.2-1v-.5l.2-.6.2-1v-.8c.1,0,.1-.8.1-.8.1,0,.3-.9.3-.9l.2-1.2v-.9h5.4v.3h-.2v.2h-.7v.5h-.1v9" vector-effect="none"/>
        <path class="st1" d="M105,75.6l-.5,1.1,6.2.5h.7c0,0,.5.2.5.2h1c0,0,.8-.2.8-.2h.7c0,0,.3-.2.3-.2h.9l1.3.5.7.2,1.8.4,1.1.2,1.5.3,2.2.4h0v-.2h.4v-.3c0,0,0-.2,0-.2h.2c0,0,.3-.3.3-.3h.3c0,0,.5-.7.5-.7l.2-.2h.3c0,0,.2-.3.2-.3h.3c0,0,2,.8,2,.8l5.3-1.3,2.2,1.6h0l-.3.8-.6.9-.4.5-.4.9-.4.7-.3.6-.2.5-.4.7-.2.5-.2.6-.3.5-.2.3.7.8.6.9.6,1.1.5.9-4.8,3.8.8.4-.2,1.7-.3,1.1-1.3,4.4,2.1.9-1.5,4.7-.6,2.2.3.3h-.2v.4l-.2.2-.5.4-.6.6-1.7,1.7-.3.2-.4.2-4.8,2-.9.5v-.2h0v.2h0c0,0,0,0,0,0h0v.2h0v.4h-.4c0,0,0-.3,0-.3h0c0,0-.2-.3-.2-.3l-.2-.2h-.4c0,0-.2,0-.2,0h-.7c0,0,0,0,0,0l-1.9-3.6-.8-1.3-.2-.2-.8-.2-1.3-.2h-.9c0,0-.6-.5-.6-.5h0l-.6,1.2-1,2.1-.2.3-.2.4-.5.6-1.7.5v.2l-1.4.5-.5.3-1.8.4-1.6-3.1,2-.7h1.2l.3.2.8.2v1c0,0,.3.4.3.4l2-.7,2.2-4.4v-.8l1.5,1,2.3.4-.4-2.6-.2-1.4.2-4.6-1-1-.3-1.8.8-.7v-.5l-2.8-.5-1.9.8v-1.8c0,0-.9-.3-.9-.3h-.4l-.4-.3v.2l-4-1.2h-5.3v-.9l-.6-1.1.3-5.4.2-2.7v-1.1h0v-.3h0v-.2h0c0,0,.3-.9.3-.9v-.4c0,0,.4-.7.4-.7v-.5c0,0,.2-.3.2-.3v-.4l.2-.4.2-.8v-.7h0l5.7.5.7-1.4.9.4" vector-effect="none"/>
      </g>
    </g>
    <g class="st8">
      <text class="st3" transform="translate(96.6 86)"><tspan x="0" y="0">Valley Stream</tspan></text>
      <text class="st4" transform="translate(96.6 86)"><tspan x="0" y="0">Valley Stream</tspan></text>
    </g>
  </g>
  <g id="Layer_2">
    <ellipse class="st6" cx="109.5" cy="85.5" rx="17.4" ry="15.5"/>
    <g>
      <path class="st11" d="M58.7,61c-.2,1.9-.4,9.2,5.7,15.6,4.8,5,11.3,7,16.5,7.8"/>
      <polygon class="st10" points="78.8 87.1 89.8 84.7 79.1 81.3 78.8 87.1"/>
    </g>
    <ellipse class="st9" cx="111.7" cy="47.2" rx="22.1" ry="20.6"/>
    <ellipse class="st7" cx="131.6" cy="31" rx="28.1" ry="26.3"/>
    <g>
      <g>
        <path d="M23.1,37.8l-2.1-6.5c0-.2-.1-.4-.2-.6v-.5h-.7v-.9h3.5v.8c-.3,0-.5,0-.7.2s-.2.4,0,.7l.4,1.4c.1.5.2.9.4,1.4,0,.3.1.5.2.8,0,.2.1.6.2.9h0c0,0,0-.3.1-.5,0-.2.1-.5.2-.8,0-.3.1-.5.2-.7,0-.2.1-.4.1-.5.1-.4.3-.8.4-1.2s.2-.8.4-1.2c.1-.4.2-.8.4-1.2h1.1c.1.4.2.7.3,1.1.1.4.2.7.3,1.1.1.4.2.7.3,1.1s.2.7.3,1.1c0,.3.2.6.2.8,0,.3.1.6.2.9h0c0-.3.1-.5.2-.8,0-.3.2-.6.2-.9s.1-.4.2-.6.1-.4.2-.6.1-.4.2-.6.1-.4.2-.6c0-.2.1-.4.2-.6s.2-.4.3-.5h-.9v-.9h2.7v.8c-.2,0-.3,0-.5.1-.2,0-.3.2-.4.4-.1.2-.2.4-.3.7-.3,1.1-.6,2.1-1,3.2-.3,1.1-.7,2.1-1,3.2h-1.1l-1.4-4.3c-.1-.3-.2-.6-.3-.9,0-.3-.1-.6-.2-.9,0,.3,0,.5-.1.8,0,.3-.1.5-.2.8l-1.4,4.5h-1.1Z"/>
        <path d="M35.3,37.9c-.6,0-1.1,0-1.5-.4-.4-.3-.8-.6-1-1.1s-.4-1-.4-1.7,0-1.1.4-1.6c.2-.5.6-.9,1-1.2s1-.5,1.6-.5.7,0,1,.1c.3,0,.6.2.9.5.3.2.5.5.6.9.2.4.2.9.2,1.4h-3.9c0,.5,0,.9.2,1.2,0,.3.3.6.5.8s.6.3,1,.3h.5c.2,0,.4-.2.6-.3s.4-.3.6-.5l.5.5c-.3.4-.6.7-.9.9s-.7.4-1,.4-.6,0-.9,0v.2ZM34.2,33.7h2.2c0-.3,0-.6,0-.8s-.2-.3-.3-.4c0,0-.3,0-.5,0-.4,0-.6,0-.8.4-.2.3-.3.6-.4,1h-.1Z"/>
        <path d="M41.7,37.9c-.3,0-.7,0-1,0s-.6-.2-.8-.3v.4h-.9v-2.1h.7c0,.2,0,.5.3.7s.4.4.7.5.6.2.9.2h.4c0,0,.2,0,.3-.2s0-.2,0-.3,0-.3-.2-.4c0,0-.3-.2-.5-.3s-.5-.2-.8-.3c-.2,0-.5-.2-.8-.3s-.5-.2-.7-.4c-.2,0-.4-.3-.5-.6,0-.2-.2-.5-.2-.8s0-.5,0-.7c0-.2.2-.4.4-.6.2-.2.4-.3.7-.5.3-.1.6-.2,1-.2s.5,0,.7.1.5.2.7.3v-.3h.9v2.1h-.8c0-.3,0-.5-.3-.7,0-.2-.3-.4-.6-.5-.2,0-.5-.2-.8-.2s-.4,0-.5,0-.2.3-.2.5,0,.3.2.4c0,0,.3.2.5.3.2,0,.5.2.7.3.4,0,.8.3,1.1.5s.6.4.8.7.3.6.3,1,0,.8-.3,1c-.2.3-.5.5-.8.6s-.7.2-1.1.2h.3Z"/>
        <path d="M47.1,37.9h-.7c-.2,0-.4-.2-.6-.3-.2-.2-.3-.4-.4-.7,0-.3-.2-.7-.2-1.2v-2.9h-.8v-1c.2,0,.5,0,.7-.3.2-.2.4-.4.6-.6s.3-.5.3-.8h.9v1.7h1.5v.9h-1.5v3.5c0,.2,0,.3.2.4s.3.2.5.2.3,0,.5,0,.4-.3.6-.6l.6.5c-.2.3-.4.6-.7.7-.2.2-.5.3-.7.4-.2,0-.4,0-.6,0h-.3.1Z"/>
        <path d="M52.4,37.7v-.8c.2,0,.4,0,.5-.2s.2-.3.3-.5c0-.2.2-.4.3-.7l2.3-6.4h.8l2.6,6.5c0,0,0,.3.2.5s0,.5,0,.6h.7v.9h-3.2v-.8c.2,0,.4,0,.5,0s0-.2,0-.4,0-.3,0-.5l-.2-.7h-2.6l-.2.6c0,0,0,.3-.2.5,0,.2,0,.4-.2.5h.9v1s-2.6,0-2.6,0ZM55,34.3h2l-.6-1.5c0-.3-.2-.6-.3-.9,0-.3,0-.5-.2-.8h0c0,.1,0,.3,0,.6,0,.3-.2.6-.3,1,0,0-.5,1.6-.5,1.6Z"/>
        <path d="M61.6,31.4c0-1,.2-1.7.6-2.1.4-.4,1-.6,1.7-.6s.7,0,.9.2c.2.1.4.2.5.4s0,.3,0,.5,0,.4-.2.6c0,.2-.3.2-.6.3-.2,0-.4,0-.5-.2,0-.1-.2-.3-.2-.5s0,0,0-.1h0q0-.1,0-.1h0c0,0-.2,0-.3.1,0,0,0,.2,0,.3v1.8h1.3v.9h-1.3v4.2h.9v.9h-3.2v-.8c.2,0,.4,0,.5,0,0,0,.2-.2.2-.4v-3.8h-.9v-1h.9v-.5Z"/>
        <path d="M65.3,36.9c.2,0,.4,0,.5,0s.2-.2.2-.4v-3.6h-.8v-.9h.5c.3,0,.6,0,.9-.1s.4-.2.5-.2h.6v1.1c.2-.3.4-.5.6-.6.2-.2.4-.3.6-.4s.4-.1.6-.1c.3,0,.5,0,.7.2s.3.4.3.8v.4c0,0,0,.2-.3.3,0,0-.3,0-.5,0s-.3,0-.5,0-.3-.3-.3-.6c-.2,0-.3,0-.5.2-.2,0-.3.3-.4.5s-.2.3-.3.5v3.1h.8v.9h-3.1v-1Z"/>
        <path d="M71.1,36.9c.2,0,.4,0,.5,0s.2-.2.2-.4v-3.6h-.8v-.9h.9c.3,0,.5,0,.6-.1,0,0,.2-.1.3-.2h.6v5.3h.8v.9h-3.1v-.8h0ZM72.6,30.6c-.3,0-.5,0-.7-.3-.2-.2-.3-.4-.3-.7s0-.5.3-.7c.2-.2.4-.3.6-.3s.5,0,.6.3c.2.2.3.4.3.7s0,.5-.2.7-.4.3-.6.3Z"/>
        <path d="M77.8,37.9c-.5,0-1,0-1.5-.4s-.8-.6-1.1-1-.4-1-.4-1.7,0-.9.2-1.3c.2-.4.4-.8.6-1.1.3-.3.6-.5,1-.7s.8-.3,1.3-.3.9,0,1.3.2c.3.2.6.4.8.6.2.3.3.5.3.8s0,.4-.2.6c0,.2-.3.3-.6.3s-.5,0-.6-.3c0-.2-.2-.4-.2-.5v-.3c0,0,0-.2,0-.3,0,0,0-.2-.3-.3,0,0-.2,0-.3,0h-.3c-.4,0-.7.2-.9.6-.2.4-.4.9-.4,1.6s0,.8,0,1.1.3.6.5.9c.2.2.5.3.9.4.3,0,.7,0,1-.2s.6-.4.8-.7l.6.5c-.3.4-.6.7-.9.9s-.6.3-.9.4-.6,0-.9,0v.2Z"/>
        <path d="M84.5,37.7v-.6c-.3.3-.6.5-.9.6s-.6.2-.9.2c-.5,0-.9-.2-1.2-.5-.3-.3-.4-.7-.4-1.1s0-.7.3-1c.2-.3.5-.5.8-.7s.7-.3,1.1-.4.8,0,1.2-.2v-1.2c0-.2,0-.3-.3-.4,0,0-.3,0-.5,0h-.4c0,0-.3,0-.4.2v.2c0,0,0,.2,0,.2,0,.2,0,.3-.2.5s-.3.3-.6.2c-.2,0-.4,0-.6-.3s-.2-.3-.2-.6,0-.6.3-.8c.2-.2.5-.4.9-.6.4-.1.8-.2,1.3-.2s1.2.2,1.6.5c.4.4.6.9.6,1.7v3.1h.7v.9h-2.3v.4ZM84.4,34.9c-.2,0-.4,0-.6,0-.2,0-.4,0-.5.2s-.3.2-.3.3,0,.3,0,.5,0,.4.2.5c0,0,.3,0,.5,0s.4,0,.5,0c.2,0,.3-.2.4-.3v-1.3h0Z"/>
      </g>
      <g>
        <path d="M44.7,52.2v-.4c.3,0,.5,0,.6-.2,0,0,.3-.3.3-.5v-6.4l-1.5.9-.2-.3,2.3-1.7h.4v8.1h1v.5h-3.1.2Z"/>
        <path d="M53.1,50.9v.9h1v.5h-3v-.4h0c.3,0,.5,0,.6-.2,0,0,.2-.3.3-.5s0-.5,0-.8v-.4h-3.6v-.6l4.3-5.7h.4v5.6h1.2v.7h-1.2v1h0ZM52,45.4l-2.8,3.8h2.9v-3.8h-.1Z"/>
        <path d="M57.3,48.2c-.5,0-.9,0-1.2-.3s-.6-.5-.7-.8-.2-.7-.2-1.1,0-.7.3-1.1c.2-.4.4-.6.7-.9.3-.2.7-.4,1.2-.4s.9,0,1.2.3.6.5.7.8c.2.3.2.7.2,1.1s0,.8-.3,1.2c-.2.4-.5.7-.8.9s-.7.3-1.1.3ZM57.3,47.8c.3,0,.5,0,.7-.3.2-.2.3-.4.3-.7s0-.5,0-.8v-.6c0-.2,0-.4-.2-.6,0-.2-.2-.4-.4-.5,0,0-.3-.2-.6-.2s-.5,0-.7.3c-.2.2-.3.4-.4.7,0,.3,0,.5,0,.8v.6c0,.2,0,.4.2.6,0,.2.2.4.4.5s.4.2.6.2h.1ZM56.7,52.4l-.5-.4,6.8-8.4.5.5s-6.8,8.3-6.8,8.3ZM62.5,52.4c-.5,0-.9,0-1.2-.3s-.6-.5-.7-.8-.2-.7-.2-1.1,0-.8.3-1.2c.2-.4.5-.6.8-.9s.7-.3,1.1-.3.9,0,1.2.3c.3.2.6.5.7.8s.2.7.2,1.1,0,.7-.3,1.1-.4.7-.7.9-.7.4-1.2.4h0ZM62.6,52c.3,0,.5,0,.7-.3.2-.2.3-.4.3-.7s0-.5,0-.8v-.6c0-.2,0-.4-.2-.6s-.2-.4-.4-.5-.4-.2-.6-.2-.5,0-.7.3-.3.4-.4.7c0,.3,0,.5,0,.8v.6c0,.2,0,.4.2.6,0,.2.2.4.4.5s.3.2.6.2h.1Z"/>
      </g>
    </g>
    <g>
      <path class="st11" d="M107.2-.5c-1-.2-4.7-.4-8,5.7-2.6,4.8-3.6,11.2-4,16.4"/>
      <polygon class="st10" points="92.5 19.5 95.1 30.4 98.3 19.7 92.5 19.5"/>
    </g>
    <ellipse class="st7" cx="217.7" cy="102.2" rx="28.1" ry="26.3"/>
  </g>
</svg>