<?xml version="1.0" encoding="UTF-8"?>
<svg id="Layer_1" xmlns="http://www.w3.org/2000/svg" xmlns:xlink="http://www.w3.org/1999/xlink" xmlns:cc="http://creativecommons.org/ns#" version="1.1" viewBox="0 0 841.7 595.2">
  <!-- Generator: Adobe Illustrator 29.3.1, SVG Export Plug-In . SVG Version: 2.1.0 Build 151)  -->
  <defs>
    <style>
      .st0 {
        fill: #fff;
      }

      .st0, .st1, .st2 {
        fill-rule: evenodd;
      }

      .st1 {
        fill: #b7beb6;
      }

      .st1, .st2 {
        stroke: #232323;
        stroke-linecap: square;
        stroke-linejoin: bevel;
        stroke-width: .7px;
      }

      .st1, .st2, .st3 {
        fill-opacity: 0;
      }

      .st2 {
        fill: #e5e5e5;
      }

      .st4 {
        fill: #231f20;
      }

      .st5, .st6 {
        fill: none;
        stroke: #231f20;
        stroke-miterlimit: 10;
      }

      .st6 {
        stroke-width: .5px;
      }

      .st7 {
        fill: #ff9021;
      }

      .st7, .st8, .st9, .st10 {
        fill-opacity: .8;
        isolation: isolate;
        opacity: .9;
      }

      .st8 {
        fill: #f2ff2e;
      }

      .st11 {
        opacity: .4;
      }

      .st9 {
        fill: #860083;
      }

      .st10 {
        fill: #4ab7ff;
      }
    </style>
  </defs>
  <g id="Layer_11" data-name="Layer_1">
    <g class="st11">
      <path class="st0" d="M2.2-.5h842.7v594.1H2.2V-.5" vector-effect="none"/>
      <path class="st0" d="M25.6,0h795.8v595.8H25.6V0" vector-effect="none"/>
      <rect class="st3" x="0" y="8.6" width="795.9" height="595.7"/>
      <g>
        <path class="st2" d="M373.9,158.7h1.2l.2-.2h0v-.2h0v.6h0v.2h0c0,.1.1.1.1.1h0v-.2h.1l1,5,.8,4.3.5,2.6,1,3.5v2.5h0l.9,2.8.9,1.8,1,2h.2v.4h0c0,.1.1.1.1.1v1.7l-.3.2-.3.3h-.1l3.5,1.9,3.4,1.7,2,1h0l.9.5,2.7,1.3,2.7,1.4,2.6,1.3.8.5v.7c.1,0,.1.3.1.3h.1c0,.1.2.6.2.6l.2.4v.3c.1,0,.2.2.2.2h0v.4h0v1.1h0v1.4h0v.3h0v.6c.1,0,.4.9.4.9v.4c.1,0,.2.2.2.2v.2l.2.2.2.3.2.3v.2c.1,0,.2.2.2.2h0v.4h0v.7h-.1l-3.5.5-2.9.4-2.2.3-3.1.4-3.4.4.2.4-3,.4-2.6.3v1.2c.1,0,.2.2.2.2h-1.2c0,.1-.4.1-.4.1l-1.2.2h-.8c0,.1-.4.1-.4.1h-.4v.9c.1,0-1.9,1.7-1.9,1.7l-2.8,2.3-1.7,1.5-3,.9-3.4,1-1.6.5v-.5c-.1,0-.1-.2-.1-.2v-.3h0v-2.6c.1,0,.1-.1.1-.1h0v-1.4h0v-2.2h.1v-.6h.1v-.2h0c0-.1.2-.5.2-.5h0l-1.1.2-1.5.2-2,.3-2.1.9h-.1c0-.1-.1-.3-.1-.3h-.6l-.2.2h0l-.2-1.1-1.3.5-1.3.5-.3-.4-.6.3h-1c0-.1-.2-.1-.2-.1h0v-.4c.1,0,.3-.3.3-.3h0c0-.1.4-.9.4-.9v-.2c.1,0,.2-.3.2-.3l.2-.7v-.4h0v-.4h-.2l-.8.5h-.1v-.4l-.2-.2h-.1v-.2h-.9c0-.1-.3-.1-.3-.1v-.2h-.3v-.2h0v-.2h0c0-.1-.1-.1-.1-.1h0v-.2h0v-.2h-.2v-.6h0v-.3h0l-.3-.3h0v-.5h0v-1.7h0v-.2h0v-.8h0v-.2h0v-.6h0c0-.2-.2-.6-.2-.6h-.3c0-.1-.5-.3-.5-.3l-.3-.2h-.2l-.5-.2h0l.3-.6v-.5h.1v-.2h0v-.2h0v-.2h0v-1.1h0c0-.1.3-.7.3-.7h0v-.2h0v-.4c.1,0,.2-.2.2-.2v-.5c.1,0,.1-.2.1-.2h0v-.5h.1v-.3h0v-.7h0v-.2h0v-.2h0v-.2h0v-.7h0v-.4h0v-.2h0l-.2-.3h0c0-.1-.2-.3-.2-.3h0v-1.7h-.1c0-.1.5-1.1.5-1.1v-.2l.2-.3h0v-.5h0v-.3l.2-.8v-.2h0v-.4h0v-.7h0v-.7h-.1.3c0-.1.2-.3.2-.3h.1l.4-.3.3-.2.3-.3.5-.4.3-.4h0l.2-.2h.1v-.2h.2l.2-.4.2-.2.2-.2.2-.2h0v-.2l.3-.3.5-.8.2-.4.2-.4h0v-.2h0v-.3h0v-.3h.1c0-.1.2-.3.2-.3h0c0-.1.2-.5.2-.5h0v-.5l.4-.7h.1c0-.1.2-.3.2-.3l.2-.2.2-.2v-.2h.1l.2-.3h.2v-.2l.3-.6h0v-.3h.1v-.2l.4-.7v-.2l.3-.7.3-.7h0c0-.1.4-.5.4-.5h0l.2-.2h0c0-.1.1-.3.1-.3h0v-.2h.1v-.5h0v-.6h-.1v-.5h0v-.3h0v-.3h0v-.2h0v-.2h0v-.2h.1l.3-.4h0v-.2c.1,0,.3-.2.3-.2h0v-.2h0l.2-.2h.1c0-.1.4-.4.4-.4h.1c0-.1.1-.3.1-.3h0v-.2h0v-.2h.1v-.2h0c0-.1-.1-.3-.1-.3h0v-.2h0v.2h.1l.5-.4h0v-.4h.8c0-.1.3-.4.3-.4l.5-.5h.2c0-.1.1-.1.1-.1,0-.1.1-.2.1-.2h0v-.4h.2v-.8h0v-.3h0v-.5h0v-.2h.1v-.3h0v-.2h0v-1.4h0v-.3h0v-.4h0v-.3h0v-.3h0v-.2h.1l.4.2h.2c0,.1.2.3.2.3l.3.3.4.3.4.2h.2c0,.1.8.7.8.7h0l.6.4h.1l1,.5.5.2h.3c0,.1.8.4.8.4h.2c0,.1.3.1.3.1,0,.1,1,.4,1,.4l.6.2h.2" vector-effect="none"/>
        <path class="st2" d="M442.6,329.4l.8,7.5h42.6c0-.1,5.3-.1,5.3-.1,0,.1,2,11,2,11l1.9,10,3.1,16.3,2.6,13.6,1.3,6.5v1.1c.1,0,.2.4.2.4v.3l.2.3h0v.3h0v.6c.1,0,.1.2.1.2h0v1.4h0v.5h0v.4h0v.7c.1,0,.2.3.2.3v.6h0v.4h0c0,.1-.2.4-.2.4h0v.2h0v.2h0v.3h0v.2h0v.4h.1v.8h0v.5h0v.6h0v.3h0v.2h0v.2h0v.3h0v.2h0v.2h0v.3h0v.3h0v.2h0v.2h0v.4c.1,0,.2.1.2.1h0v1.8h0v.2h0v.3h0l.2.2h0v.2h0v.2h.2v.9h0v.3h0v.3h0v.5c.1,0,.1.2.1.2v.4h0v1.1c-.1,0-.1.2-.1.2h0v1.3c-.1,0-.1.2-.1.2v.2h0v.8l.2.2h.1c0,.1.1.1.1.1h0v1.5h0v.3h-.2v.3h0v1.5c-.1,0-.1.2-.1.2-.1,0-.1.3-.1.3v.4h.2c0,.1.2.2.2.2h.6c0,.1.1.3.1.3v.4l-.3.2v.2l-.2.3v.4h0v1.2c-.1,0-.1.2-.1.2l-.2.2v.2c-.1,0-.3.2-.3.2l-.2.2h-.2v.9h.1v.3h-.4v.5h-.1c0,.2-.1.4-.1.4v.6h0v.5c-.1,0-.1.2-.1.2v.4h0v.4l-.2.2-.2.2-.2.2h0v.5h-.2c0,.1-.1.1-.1.1h0c0,.1-.1.1-.1.1v.5h0v.5l-.2.3-.2.4h0v2.6h0v1.3h0c0,.1.2.3.2.3h.3c0,.1.3.2.3.2h.2c0,.1.1.3.1.3v.6l-.2.2v.2h-.1v.9c-.1,0-.2.5-.2.5v1.4c.1,0,.3.4.3.4v.5c.1,0,.2.4.2.4v.4h0v.3h1.1c0-.1.2.8.2.8h0v.3h0c0,.1.2,1,.2,1l.3,2h0v.9c.1,0,.2.1.2.1h0v.6c.1,0,.8,3.7.8,3.7v.4h0v.2l.7,3.9.6,3.7.2,1.2h0v.3h0l.4,2.3.4,2.5v.5h0v.3h0v.2l.2,1.2.3,2.3h0v.5h0c0,.1.1.9.1.9h0c0,.1.1,1.1.1,1.1h0c0,.1.3,1.7.3,1.7h0v.5l.2.8h0v.3l.4,2.3h0v.8h.1l.8,4.8h0c0,.1.1.9.1.9h0l.2,1h0v.9l.6,3.2h0l.4,2.1,1.4,8.2h0l9.5,57v.6c0,0-4.5,1.3-4.5,1.3l-13.5,3.3-8.3,1.7-3.1.4-5.2.7-6.6,1.5-6.8,2.2-5,1.8-3.2,1.2-3.8,2-3.6,2-2.2,1.2-1.9,1.1-4,1.7-5.9,2.5-6.7,1.9-4.4,1.2-6.5.9h-6.3l-7.2-.6-8.1-1.7-4.7-1.8-3.5-1.6-2.5-1.6-2.8-2-1.4-1-2.8-.5h0l-.5.3-.3.2-3.8.7h-.7c0,0-2.9.7-2.9.7l-5.5.7-6.3,1.1-6.8.4-8.3.4h-2.1c0,0-6.3.5-6.3.5h0l-10.1-.5h-10.5l-5.3-.2h-9.8c0,0-1.3,0-1.3,0l-7.1-.4-4.3-.6-3.4-.4h-1.6c0,0-1.4-.3-1.4-.3h0l-1.6.2-2.6,1-4.8,1.3-3.4.5-4.7.5-4.2.4h-.9l-3.2.2v-1.5l-.3-55.1v-2.8h0v-4.1l4.9-5.2,1.1-1.2.8-.8,3.5-1.8h1l5.3.2-.4-1.2h0v-.2l-.5-1.7.3-7.4-.3-.6-.6-1-.7-.2-.4-.5-1.1-1.6-1.9-1.8.3-.2.4-.2-2.2-4.5h0l-1,.5-.5-.8h-.4c0,.1,0,0,0,0l-.2-.3-.8.4h0c0-.1-1.1.4-1.1.4l-2.7,1.2-1.1.4h-.4c0,.1-.2.2-.2.2h0v-.6l-4.1-.7-5-3.9h-1v-.5h0v-.3l-.2-1.7-.2-1.6v-1c-.1,0-.3-1.2-.3-1.2v-.8h-.1l-.5-4.3v-1.4h0v-.3h.2c0-.1.4-.3.4-.3l3.2-1.7,12.3-6.3,3.7-2,.9-2.6.3-.4.3-.3.3-.2h.4c0-.1.2-.1.2-.1h.8l.2.2h0v.2h0v.3h-.1c0,.1-.2.3-.2.3v.2c-.1,0-.3.2-.3.2v.2c-.1,0-.3.3-.3.3v.2c-.1,0-.2.2-.2.2v.6h0c0,.2.1.3.1.3h.5c0,.1.2.1.2.1l2-.5v-.2h0l-.2-.9-.3-1v-.4h-.1l-.2-.6-.4-.7-1.7-2.5.7-.6-.2-.6h0v-.8l.6-3.2.3-2v-.5l.2-.2.3-.3h.5c0-.1.3-.2.3-.2h.2l.3-.2.2-.2h.1v-.2h.3c0-.1.6-.5.6-.5l2.2-1.2,2.5-.4h1l.6-.2,1.1-.5,3.7-1.8v-2.3c-.1,0-.1-.4-.1-.4-.1,0-.4-.8-.4-.8h0l-.2-.3-.2-1v-.9c-.1,0-.5-1.2-.5-1.2v-.3l-.8-1.7-.7-1.6-.4-1.9h.4v-2.2l-.7-1.1.3-5.4.2-2.7v-1.1h0v-.3h0v-.2h0c0-.1.3-.9.3-.9v-.4c.1,0,.4-.7.4-.7v-.5c.1,0,.2-.3.2-.3v-.4l.2-.4.2-.8v-.7c.1,0,.1-.7.1-.7v-.2h.1v-.2h0v-1.4h0v-2c-.1,0-.1-.8-.1-.8l-.3-5-.2-4.5v-1.4l-.3-4.9v-.3l-.3-7-.5-9-2.1-9.9-.7-2.9h.1l.2-.2.4-.3.6-.3h.1l.4-.2.4-.2h.3c0-.1.6-.5.6-.5l.4-.2.4-.2.5-.2.5-.2.5-.2,1.2-.4.6-.2.5-.2h.4c0-.1,1.1-.5,1.1-.5l2-.7h.4c0-.1.4-.1.4-.1,0-.1,3.7-.8,3.7-.8h.7c0-.1.7-.3.7-.3l.8-.2,1-.3.6-.2h0l2.4-.7,2.3-.7,4.7-1.3.7-.2h0l1.4-.4,16.9-3.7,3.6-.8,16.3-3.6,1.2-.3h.6c0-.1.2-.2.2-.2l10-2,1.3-.3,1.1-.3h.3l.3-.2,1.7-.5.6-.2,1.1-.3h.6c0-.1.4-.1.4-.1l.4-.2h.4l.4-.2h.7l.4-.2h.4l.4-.2h.4l.7-.3h.5c0-.1.2-.2.2-.2h.5c0-.1.2-.2.2-.2h.6c0-.1.1-.2.1-.2l.6-.2h.5c0-.1.2-.1.2-.1l.7-.3h.2l1-.3,1.1-.3h.5l.6-.2h.6c0-.1.7-.1.7-.1,0-.1.2-.1.2-.1h.7c0-.1.2-.1.2-.1h.9c0-.1.6-.2.6-.2h.5c0-.1.1-.1.1-.1h1.1c0-.1.3-.1.3-.1l1.5-.5h.3l.5-.2h.3l.8-.2h.4l1.2-.4.6-.2h.4l.4-.2h1c0-.1.5-.2.5-.2l1-.2h.2l.7-.2.9-.2.7-.2h.1l.8-.3.7-.2.8-.2.8-.2h.5c0-.1.3-.1.3-.1h3.9l.5-.3h.1l.4-.2,1.6-.6,1.3-.5,1-.3.6-.2.9-.3h.4c0-.1.4-.2.4-.2h.2l1.5-.5.6-.2h.2l1.6-.4h.6c0-.1,1-.4,1-.4h.4l1.3-.4h.5c0-.1.3-.2.3-.2h.4c0-.1.4-.3.4-.3h.2l.4-.3.3-.2.4-.2.7-.4.3-.2.4-.2h.3c0-.1.4-.3.4-.3h.3c0-.1.2-.2.2-.2l.8-.4h.3c0-.1.5-.4.5-.4l.4-.2.7-.3.8-.3.8-.3.7-.2h0l.8-.3.8-.2h.4c0-.1.2-.2.2-.2l1.2-.4,1.9-.5h0l.9-.3h.1l.6-.2h.4c0-.1.1-.1.1-.1h.7c0-.1.1-.1.1-.1h.1l.9,7.6M355.7,509.3l-.3.2h-.4c0,.1-.3.2-.3.2h-3.5c0-.1-1.6-.3-1.6-.3h-.8c0,.1-2.3.3-2.3.3l-4.6.6-.8.2h-2.5c0-.1-.6-.3-.6-.3l-8.8,1.2-1.1.2-1.1.3-1.1.6-1,.7-1.5,1.5-.8.8-7.3.5h-5c0,0,0,1.7,0,1.7h0v6.6h0v.6h.2v.2h0v-.3h.7c0,0,.1,0,.1,0h.1c0,0,.2,0,.2,0h.7v.3h0v.2h0v-.5h.7c0,0,.4,0,.4,0h.2v.4h0c0,0,0-.1,0-.1h0c0,0,.1,0,.1,0h1.4v.4h0v-.2h.2c0,0,.4-.2.4-.2h.6c0,0,.1,0,.1,0h.4v.2h0v.3h0c0,0,0-.1,0-.1h0c0,0,.3,0,.3,0h1.1v.4h0v-.2h.5c0,0,.2,0,.2,0h.9c0,0,.2,0,.2,0h1.5c0,0,.1,0,.1,0h1.7c0,0,.6,0,.6,0h.7c0,0,.1,0,.1,0h.5c0,0,.9,0,.9,0,0,0,.2,0,.2,0h1.7c0,0,.5,0,.5,0h.9c0,0,.1,0,.1,0h.4l.7-.3h5.6c0,0,.4,0,.4,0h2.6l.3.3h.1c0,0,.2,0,.2,0h1.9c0,0,.2.2.2.2h.2c0,0,.3,0,.3,0h.6c0,0,.1,0,.1,0h.6c0,0,.5,0,.5,0h0c0,0,.1,0,.1,0h1.2l.3-.2h.7c0,0,.1,0,.1,0h2.4c0,0,.5,0,.5,0h1.3c0,0,.3,0,.3,0h1.6l.6-.2h1.5c0,0,.5,0,.5,0,0,0,.4,0,.4,0h.5v.3h.8c0,0,.7-.3.7-.3h1.9c0,0,1.1-.4,1.1-.4l1-.3v-.8h0l-.4-13h0v-.2h0v-2.4h-1.7c0,.1-.7.1-.7.1l-1.4.2h-1.1c0,.1-.6.1-.6.1,0,.1-.9.3-.9.3l-1.1.2-1.6.4-1,.2h-.6c0,.1-.4.5-.4.5" vector-effect="none"/>
        <path class="st2" d="M366.8,509.8h0c0,.1.4,13.1.4,13.1h0v.8l-1,.3-1.1.3h-.5c0,0-.2,0-.2,0h-1.1l-.7.2h-.6c0,0-.2,0-.2,0h0v-.2h-.5c0,0-.4,0-.4,0h-.5c0,0-.5,0-.5,0h-.4c0,0-.2,0-.2,0h-1c0,0-.6.2-.6.2h-2c0,0-1.2,0-1.2,0h-.4c0,0-.4,0-.4,0h-1.6c0,0-.1,0-.1,0h-.1c0,0-.2-.2-.2-.2h-2c0,0-.5,0-.5,0h-1.3c0,0-.2,0-.2,0h-.3c0,0-.2,0-.2,0,0,0-.3-.2-.3-.2h-1.9c0,0-.3-.3-.3-.3h-3.5c0,0-.2,0-.2,0h-1.4c0,0-.9,0-.9,0h-2.6l-.7.2h-2.7c0,0-.3,0-.3,0h-1.7c0,0-.3.2-.3.2h-.3c0,0-.1,0-.1,0h-.2l-.2-.2h-1.6c0,0-.4,0-.4,0h-1.7c0,0-.3,0-.3,0h-.3l-.3-.2h-.8v.2h-.4v.3h-.1v-.3h0v-.2h-1.4v.2h0c0,0,0-.1,0-.1h0v-.2h-1.5c0,0-.2,0-.2,0h0v.3h0v-.4h-1.5v.2h0v-.3h0c0,0-.2,0-.2,0h-.8c0,0-.1,0-.1,0h-.2v.4h0c0,0,0,0,0,0h0v-.4h-.3c0,0-.2,0-.2,0h-.6c0,0-.2,0-.2,0h0c0,0-.2,0-.2,0h-.2v.2h-.2v-.2h-.2v-.6h0v-6.5h0v-1.8h0l4.2.2h.8l7.3-.5.8-.8,1.5-1.5,1-.7,1.1-.6,1.1-.3,1.1-.2,8.8-1.2h.6c0,.1.7.3.7.3h.9c0,.1.9,0,.9,0l.8-.2,4.6-.6,2.3-.2h.8c0-.1,1.6,0,1.6,0h1.5c0,.1,1,.1,1,.1h1.3c0-.1.4-.1.4-.1,0-.1.3-.3.3-.3l.4-.4h.6c0-.1,1-.3,1-.3l1.6-.4,1.1-.2.9-.2h.6c0-.1.6-.2.6-.2h.5l1.4-.2h.7l1.6-.2v2.3h0" vector-effect="none"/>
        <path class="st2" d="M479.7,336.8h11.6l2,10.9,1.9,10,3.1,16.3,2.6,13.6,1.3,6.5v1.1c.1,0,.2.4.2.4v.3l.2.3h0v.3h0v.6c.1,0,.1.2.1.2h0v1.4h0v.5h0v.4h0v.7c.1,0,.2.3.2.3v.6h0v.4h0c0,.1-.2.4-.2.4h0v.2h0v.2h0v.3h0v.2h0v.4h.1v.8h0v.5h0v.6h0v.3h0v.2h0v.2h0v.3h0v.2h0v.2h0v.3h0v.3h0v.2h0v.2h0v.4c.1,0,.2.1.2.1h0v1.8h0v.2h0v.3h0l.2.2h0v.2h0v.2h.2v.9h0v.3h0v.3h0v.5c.1,0,.1.2.1.2v.4h0v1.1c-.1,0-.1.2-.1.2h0v1.3c-.1,0-.1.2-.1.2v.2h0v.8l.2.2h.1c0,.1.1.1.1.1h0v1.5h0v.3h-.2v.3h0v1.5c-.1,0-.1.2-.1.2-.1,0-.1.3-.1.3v.4h.2c0,.1.2.2.2.2h.6c0,.1.1.3.1.3v.4l-.3.2v.2l-.2.3v.4h0v1.2c-.1,0-.1.2-.1.2l-.2.2v.2c-.1,0-.3.2-.3.2l-.2.2h-.2v.9h.1v.3h-.4v.5h-.1c0,.2-.1.4-.1.4v.6h0v.5c-.1,0-.1.2-.1.2v.4h0v.4l-.2.2-.2.2-.2.2h0v.5h-.2c0,.1-.1.1-.1.1h0c0,.1-.1.1-.1.1v.5h0v.5l-.2.3-.2.4h0v2.6h0v1.3h0c0,.1.2.3.2.3h.3c0,.1.3.2.3.2h.2c0,.1.1.3.1.3v.6l-.2.2v.2h-.1v.9c-.1,0-.2.5-.2.5v1.4c.1,0,.3.4.3.4v.5c.1,0,.2.4.2.4v.4h0v.3h1.1c0-.1.2.8.2.8h0v.3h0c0,.1.2,1,.2,1l.3,2h0v.9c.1,0,.2.1.2.1h0v.6c.1,0,.8,3.7.8,3.7v.4h0v.2l.7,3.9.6,3.7.2,1.2h0v.3h0l.4,2.3.4,2.5v.5h0v.3h0v.2l.2,1.2.3,2.3h0v.5h0c0,.1.1.9.1.9h0c0,.1.1,1.1.1,1.1h0c0,.1.3,1.7.3,1.7h0v.5l.2.8h0v.3l.4,2.3h0v.8h.1l.8,4.8h0c0,.1.1.9.1.9h0l.2,1h0v.9l.6,3.2h0l.4,2.1,1.4,8.2h0l9.5,57v.6c0,0,6.9-2,6.9-2l8-1.9,9.1-2.2,9.6-2.4,1.2-.4,3-.9v-1.5l-2.4-49.5-.5-10.1h0v-.2h0v-.4h0v-2.7l-.2-3.4h0v-1.4h0v-1h0v-.4h0v-.2h0v-2h0v-2l-.2-2h0v-.9h0v-4.1h0v-1h0v-.7h0v-2.3h0v-1.8l-.3-6.5h0v-.9h0v-.9h0v-.2l-.2-4.4-.3-5.4-.2-4.1h0l-.3-5.1h.2l1.6.4h0l-.2-1.5v-1.2c0,0-.2-.1-.2-.1h0v-1.1l-.2-.7h0v-1.9c0,0,0-.5,0-.5h0v-3.3h0v-1c0,0,0-.4,0-.4h0v-.2h0c0-.1.3-.9.3-.9l.5-1.4.2-.5.2-.4v-1.2h0l-.3-1.7-1.3-7.5-.6-3.5h0c0-.1-1-6.1-1-6.1l-.2-1.1-.3-1.5-.5-2.9-.3-1.6v-.5l-.5-2.7-.2-1.1-.2-1v-.6c0,0,0-.3,0-.3h0v-.8c0,0-1.5-8.5-1.5-8.5l-.3-2-.3-2.1v-.9c0,0-.5-2.7-.5-2.7l-.4-2.5v-.3l-.2-.7-.2-1.6h0v-.8c0,0-.2-.8-.2-.8l-.5-3-.4-2.7h0l-.3-1.6h0l-.7-4.2-.2-1.2-.6-3.8v-.5l-.3-1.4-.2-1.5-.7-4.1-.5-3.2-.5-3.4-.2-1v-.2h0v-.3l-.3-1.3v-.6h0c0-.1-.2-1.3-.2-1.3l-.4-2.3h0v-.2l-.9-5.9-.7-4.3h0l-.3-1.5-.3-2-.8-5.1-1.2-7.5-.6-3.4-.7-4.6-.3-1.6-.5-3.3v-.3h0c0-.1-.4-2.7-.4-2.7l-.4-2.2-.8-4.8-.8-4.7-.8-5.2-.2-1.2-.2-1.5v-.4l-.7-4.1h0c0-.1-.5-3.3-.5-3.3l-.2-1.1-1-5.9-.8-5-.8-5-.9-5.4-.2-1.3-.4-2.2-.4-2.7-.2-1.5v-.6l-.5-2.4v-.4h0v-.4h0v-1.8c0,0,0-.3,0-.3,0,0-.2-.2-.2-.2h0l-.2-.6v-.2l-.2-.2-.2-.5h0v-.2h0v-.6c0,0-.3-.6-.3-.6v-.7c0,0,0-.3,0-.3h0v-1.1c0,0-.3-.4-.3-.4v-.8h0v-.5h0c0-.1,0-.3,0-.3h0c0-.1-.6-.7-.6-.7l-.2-.4-.3-.6-.3-.7-.3-.7v-.4c0,0-.2-.2-.2-.2v-.5c0,0,0-.5,0-.5,0,0-.3-.5-.3-.5h0l-.3-.5-.2-.4v-.3c0,0-.3-.3-.3-.3l-.2-.4v-.2l-.3-.4-.5-.9v-.2c0,0-.2-.1-.2-.1l-.6-.5v-.2h0v-.8c0,0-.3-.3-.3-.3h0v-.2h0v-1h0v-.3l-.2-.5v-1.3l.2-.4v-.2l.2-.8.3-1,.2-.6.2-.4.6-2.1v-1.3c0,0,0-.7,0-.7l-.6-.2h0l-.2-.2h0v-.2h-1.1c0,.1-1.8.3-1.8.3h0l-1.4-2M440.5,312.3l.6,5,.2,1.5.3,3.1M427.7,301.5l2.1,1.8,3.5,3M422.5,297.1l1.3,1.1M392.2,271.7l1.6,1.3M385.7,266.4l-13.5-11.3.4.3,1.7,1.4,3,2.2.2.2M353.9,239.9l-4,.6h.8c0-.1.1-.1.1-.1h.2M349.6,239.7v.4M403.2,206.2l-3.5.5-2.9.4-2.2.3-3.1.4-3.4.4.2.4-3,.4-2.6.3v1.2c.1,0,.2.2.2.2h-1.2c0,.1-.4.1-.4.1l-1.2.2h-.8c0,.1-.4.1-.4.1h-.4v.9c.1,0-1.9,1.7-1.9,1.7l-2.8,2.3-1.7,1.5-3,.9-3.4,1-1.6.5v-.5c-.1,0-.1-.2-.1-.2v-.3h0v-2.6c.1,0,.1-.1.1-.1h0v-1.4h0v-2.2h.1v-.6h.1v-.2h0c0-.1.2-.5.2-.5h0l-1.1.2-1.5.2-2,.3-2.1.9h-.1c0-.1-.1-.3-.1-.3h-.6l-.2.2h0l-.2-1.1-1.3.5-1.3.5-.3-.4-.6.3h-1c0-.1-.2-.1-.2-.1h0v-.4c.1,0,.3-.3.3-.3h0c0-.1.4-.9.4-.9v-.2c.1,0,.2-.3.2-.3l.2-.7v-.4h0v-.4h-.2l-.8.5h-.1v-.4l-.2-.2h-.1v-.2h-.9c0-.1-.3-.1-.3-.1v-.2h-.3v-.2h0v-.2h0c0-.1-.1-.1-.1-.1h0v-.2h0v-.2h-.2v-.6h0v-.3h0l-.3-.3h0v-.5h0v-1.7h0v-.2h0v-.8h0v-.2h0v-.6h0c0-.2-.2-.6-.2-.6h-.3c0-.1-.5-.3-.5-.3l-.3-.2h-.2l-.5-.2h0l.3-.6v-.5h.1v-.2h0v-.2h0v-.2h0v-1.1h0c0-.1.3-.7.3-.7h0v-.2h0v-.4c.1,0,.2-.2.2-.2v-.5c.1,0,.1-.2.1-.2h0v-.5h.1v-.3h0v-.7h0v-.2h0v-.2h0v-.2h0v-.7h0v-.4h0v-.2h0l-.2-.3h0c0-.1-.2-.3-.2-.3h0v-1.7h-.1c0-.1.5-1.1.5-1.1v-.2l.2-.3h0v-.5h0v-.3l.2-.8v-.2h0v-.4h0v-.7h0v-.7h-.1.3c0-.1.2-.3.2-.3h.1l.4-.3.3-.2.3-.3.5-.4.3-.4h0l.2-.2h.1v-.2h.2l.2-.4.2-.2.2-.2.2-.2h0v-.2l.3-.3.5-.8.2-.4.2-.4h0v-.2h0v-.3h0v-.3h.1c0-.1.2-.3.2-.3h0c0-.1.2-.5.2-.5h0v-.5l.4-.7h.1c0-.1.2-.3.2-.3l.2-.2.2-.2v-.2h.1l.2-.3h.2v-.2l.3-.6h0v-.3h.1v-.2l.4-.7v-.2l.3-.7.3-.7h0c0-.1.4-.5.4-.5h0l.2-.2h0c0-.1.1-.3.1-.3h0v-.2h.1v-.5h0v-.6h-.1v-.5h0v-.6h0v-.2h0v-.2h0v-.2h.1l.3-.4h0v-.2c.1,0,.3-.2.3-.2h0v-.2h0l.2-.2h.1c0-.1.4-.4.4-.4h.1c0-.1.1-.3.1-.3h0v-.2h0v-.2h.1v-.2h0c0-.1-.1-.3-.1-.3h0v-.2h0v.2h.1l.5-.4h0v-.4h.8c0-.1.3-.4.3-.4l.5-.5h.2c0-.1.1-.1.1-.1,0-.1.1-.2.1-.2h0v-.4h.2v-.8h0v-.3h0v-.5h0v-.2h.1v-.3h0v-.2h0v-1.4h0v-.3h0v-.4h0v-.3h0v-.3h0v-.2h.1l.4.2h.2c0,.1.2.3.2.3l.3.3.4.3.4.2h.2c0,.1.8.7.8.7h0l.6.4h.1l1,.5.5.2h.3c0,.1.8.4.8.4h.2c0,.1.3.1.3.1,0,.1,1,.4,1,.4l.6.2h1.4l.2-.2h0v-.2h0v.6h0v.2h0c0,.1.1.1.1.1h0v-.2h.1l1,5,.8,4.3.5,2.6,1,3.5v2.5h0l.9,2.8.9,1.8,1,2h.2v.4h0c0,.1.1.1.1.1v1.7l-.3.2-.3.3h-.1l3.5,1.9,3.4,1.7,2,1h0l.9.5,2.7,1.3,2.7,1.4,2.6,1.3.8.5v.7c.1,0,.1.3.1.3h.1c0,.1.2.6.2.6l.2.4v.3c.1,0,.2.2.2.2h0v.4h0v1.1h0v1.4h0v.3h0v.6c.1,0,.4.9.4.9v.4c.1,0,.2.2.2.2v.2l.2.2.2.3.2.3v.2c.1,0,.2.2.2.2h0v.4h0v.7h-.1l4.1-3Z"/>
      </g>
      <g>
        <path class="st1" d="M296.1,517.7l.2,5.1h0v.5h-1.3v.2h0c0,0,0,0,0,0v-.4h0c0,0-.5,0-.5,0,0,0-.2,0-.2,0h-.8c0,0-.2,0-.2,0h0v.3h0v-.5h-1.2v.4h0v-.4h0v-.2h-1.9v.3h0v-.5h0v-.2h-.9c0,0-.1,0-.1,0h-.7v.3h0c0,0,0-.3,0-.3v-.2h0c0,0-.5,0-.5,0h-.2l-.3.2h-.5v.3h0v-.4h0c0,0-.3,0-.3,0h-.8v.2h0v.2h-.1v-.5h0v-.2h-1.5v.2c-.1,0-.1,0-.1,0h0v-.2h0v-.3h0c0,0-.1,0-.1,0h-1.5v.2h0v.2h0v-.8h-.3c0,0-.2,0-.2,0h-.5c0,0-.6,0-.6,0h-.5c0,0-.3-1.1-.3-1.1h0l-1.6-6.6h0c0,0-.2-1.1-.2-1.1h0l5.3.2,7.7,1.5h1.2l8.7.7h0v2.3h.1" vector-effect="none"/>
        <path class="st1" d="M314.9,231l.3,2.6.4,2.7h.9v.3h-.2v.6h-.3v.4h.4v.8c.1,0-1.6,0-1.6,0,0,.1-.2.1-.2.1h-.2l-2.7-.7-1.6-.4h-.1v-.2c-.1,0-.3-.4-.3-.4v-.2c-.1,0-.3-.1-.3-.1h-.4c0-.1-.4-.1-.4-.1h-.3c0-.1-.3-.1-.3-.1h-.3c0-.1-.3-.1-.3-.1h-.6c0,.1.2-.2.2-.2l.3-.3.2-.2.2-.2v-.2c.1,0,.1-.2.1-.2v-.2h-.3c0-.1-.1-.3-.1-.3v-.2c-.1,0-.2-.3-.2-.3v-.2h0v-.2h0c0-.1.3-.3.3-.3l.4-.4.4-.3.4-.3h.3c0-.1.2-.2.2-.2v-.2c.1,0,.2-.2.2-.2h0l2.7.3h1.4l.4-.2h.4c0-.1.3-.3.3-.3h.2" vector-effect="none"/>
        <path class="st1" d="M424.1,138.4h.2c0,.1.1.1.1.1h.3v.2c.1,0,.7.4.7.4l.9.5,1.8,1.1.3.2.7.4.4.2,1,.6.9.5.8.5.7.4.5.3.3.2.4.2.9.4.5.2,1.5.6.5.2.6.2h.3l.7.2h1.8c0-.1.2-.1.2-.1h.3l.4-.2h.5c0-.1.7-.5.7-.5l.5-.3.7-.4h0l.5-.3.4-.2.3-.2.6-.3.5-.3h.2l.6-.4.6-.3h.2l.4-.3h.6c0-.1.5-.2.5-.2h.2l.2.8h-.2l-.2,1.4.6,2-.3.3-4.6,2.9-.5.3-.3.2h-.3l-.7.2h-.6c0,.1-2.8,1.7-2.8,1.7h-.2c0,.1-.2.1-.2.1,0,.1-.2.2-.2.2h-.2l-.2-.2-.2-.3-.2-.2h-.1c0-.1-.1-.2-.1-.2h-.1l-.2-.2h-.2c0-.1-.1-.1-.1-.1h0v-.3h-.4c0-.1-.1-.3-.1-.3l-.5-.3h-.1l-.2-.2h-.5c0-.1-.4-.3-.4-.3h-.1l-.5-.2-.6-.2h-.2l-.3-.2h-.2v-.2l-.2-.3h-.2c0,.1-.2.5-.2.5h0c0,.1-.2.5-.2.5v.2c-.1,0-.3.2-.3.2l-.2.2v.2c-.1,0-.2.2-.2.2l-.2.3-.2.3h0v.2h0v.7l-.2.3v.2l-.2.2h0c0,.1-.2.4-.2.4v.2h-.7l-.3-.2h0v1.2h-.1v.4h-.5c0,.1-.2.1-.2.1h-.5v.7c.1,0-.9.9-.9.9l-1.1.2h-3.3v-.4h0v-.3h0c0-.1-.7-.1-.7-.1h-.2l-1.3-.5h-.2l-3-.9-2.4-.8-.8-.3-.5-.6h-.1c0-.1-.1-.2-.1-.2l-.3-.3h0l-.8-.9-2-2.3-.3-1.3-.4-2.1h0v-.2h1.5l.8-.2h.5c0-.1.3-.3.3-.3l.2-.2.2-.2h0v-.2h.2c0-.1.2-.3.2-.3h.1v-.2h0v-.2h.3v-.2h.4l.4-.3h.3l.3-.3.3-.2h.1v-.2l.2-.4v-.3c.1,0,.2-.1.2-.1v-.2h0v-.3h0v-.4h-.2.4l.5-.2h0l.5-.3.2-.2.3-.2h0v-.2h.1v-.2h.1c0-.1.1-.1.1-.1h1.8c0-.1.2-.1.2-.1h0c0-.1.3-.1.3-.1h0l.7-.3h0v.2h0" vector-effect="none"/>
        <path class="st1" d="M293.1,364.3l-1.6.5-.7-4.3h0l1.1-.4,2-.7h.4c0-.1.4-.1.4-.1,0-.1,3.7-.8,3.7-.8h0l.2,1.4-.2,2.7-2.8.9-2.7.9" vector-effect="none"/>
        <path class="st1" d="M437.4,246.6h.1c0-.1.2.2.2.2h0c0,.1.1.4.1.4h0v.8h.1l.3.4.3.4.3.3.2.2.2.2.4.3.8.4.9.6.6.5.3.4v.2c.1,0,.3.5.3.5v.5c.1,0,.2.4.2.4v.4c.1,0,.3.3.3.3l.2.3.2.3.2.2.2.3v.2h.2v.3c.1,0,.2.3.2.3v.3c.1,0,.3.4.3.4v.3c.1,0,.3.4.3.4l.5,1.2.3,1.1.2,1v.5l.6.9,1.2,1.6,1.4,1.6.7.6.9.8,1,.7-.3,3.2-1.5-.6-.7-.4-.6-.5-.3-.3-.5-.4-1.7,2.1-.2-.3-.3-.4-2,2.8h0v.4l-.2,1.4-.6-.3-.7-.4-.6-.5-.4-.4-.3-.4-5,1.8-2.1.8-2,.5h-.5c0,.1-2.8.4-2.8.4l-1.2-2.6-1.4,1-6-4.4v-.2c.1,0,.4-1.7.4-1.7l.2-1.5-1.5-.7-.4-.2-.2.4-.4-.2-.5.9h-.3c0-.1-.6-.4-.6-.4l-.9-.6-2.3-1.3v-.8h-1.8c0,.1-.5.3-.5.3l-.4.2h-.2l-.3.3h-.8c0,.1-.4-1.2-.4-1.2v-.9l-.9-4.5v-.7c-.1,0-3.1.3-3.1.3l-1.7-3-1.2-2.1-2.4,1.3-1.4.8-2,1-2.1.9v-.2l-.2-.3v-.3c-.1,0-.2-.3-.2-.3v-.2l-.2-.2v-.2c-.1,0-1.7,1.7-1.7,1.7l-1.6,1.7h0c0,.1-1.1,1.2-1.1,1.2l-2,.4v4.6c.1,0-1.2,2.1-1.2,2.1h0l-3.9-3.3h0l-1.5-4.9h0l.6-.3.7-.2h.4c0-.1.8-.5.8-.5l.7-.3.7-.4.5-.3,1-.6,2.2-1.5,1.7-1.1,1.5-1,1.2-.8,1-.6,1.8-1.1,1.5-1,1.6-1,1.5-.9,1-.6,1.3-.7,1.3-.7.6-.3.8-.4.8-.4.3.2h.3c0,.1.4.3.4.3l.5.2h.1l1.2.5.9.4,1.5.7h.3c0,.1.2.3.2.3v.2c.1,0,.2.2.2.2v1c.1,0,.1.2.1.2.1,0,.3.2.3.2l.2.2.3.3.4.3.3.2.3.2.3.2.4.2h1.2l.3.3.5.4.9.7,2.2,1.8.4-.5.2-.3.2-.3v-.2c.1,0,.6-.6.6-.6l.3-.4.4-.6.3-.4.5-.7.8-1.2v-.2h0v-.8l-.2-.3-.4-.8-.2-.3v-.2c-.1,0-.2-.2-.2-.2v-.4c-.1,0-.2-.3-.2-.3v-2.6l.2-1.7h.1l1.1.2h1.2l.5.3.6.3h.3c0,.1.5.3.5.3h.5c0,.1.3.1.3.1h.3c0,.1.2.1.2.1h.6c0,.1.3.3.3.3h.2v.2l.2.2h.2c0,.1.1.2.1.2h.3c0,.1.2.1.2.1h.3c0,.1.2.1.2.1l.5.2.7.2.9.2h.2l.5.2h.2l.3.2h0c0,.1.1.1.1.1v.2c.1,0,.3.2.3.2l.3.4h.1v.2h.2c0,.1.4.4.4.4l1.2.8,1.1.8h.2" vector-effect="none"/>
        <path class="st1" d="M283,469.8l.2.5,2.3-1,1.2-.5,1.6,1.3,3.6,3.1,1.2,1,.4.4h.1l.7.7.6.5.8.7.3.3h.2c0,.1-.5,1.5-.5,1.5l-.7,1.9-.3.4-1,1.2-1.3,1.5-.6.5-3.1,2v-.2c-.1,0-.9-1.8-.9-1.8l-.3-.8-.2-.5-.3-.7-.3-.7h0c0-.1-2.4,2.2-2.4,2.2l-1.1,1-2.1-4-1.8-3.7h0c0-.1-.2-.4-.2-.4l-1.2-3.6.7-.3v-.4c-.1,0,.7-.3.7-.3h0l.5-.2h0v-.3c-.1,0-.1-.3-.1-.3-.1,0-.4.1-.4.1l-1.2-3-.2-.5,1.5-.5.5-.2h.3c0-.1.2-.3.2-.3h.1c0-.1.1-.2.1-.2h.4l.2.4,1.5,3.3" vector-effect="none"/>
        <path class="st1" d="M464,138.8l.9.5.4.2h.2c0,.1.3.1.3.1,0,.1.5.4.5.4h.5c0,.1.3.2.3.2l.8.3h.2l.3.2h.2c0,.1.3.3.3.3h.4c0,.1.4.1.4.1h0v.2h.1c0,.1.2.1.2.1h.2v.2h.1c0,.1.1.1.1.1h0l.2.8v1.1c.1,0,.1.4.1.4v.2c.1,0,.1.2.1.2h.3c0,.1.6.4.6.4h.2l.6.2h.3v.7h-.4v.5h.3l.2.2h.2c0,.1.1.3.1.3h0v.2h0v.5l.2.5v.3h0v1.2l.4,2.2.3,1.2h0v.3h0c0,.1-.1.1-.1.1h-.1l-.3-.2-1-.6-.6-.4h-.1c0-.1-.1-.2-.1-.2h-1.6c0,.1-.2.1-.2.1l-.2.2-.3.2-.4.2h-.3c0,.1-.4.2-.4.2l-.4.2h-.2l-.5.2-.6.3-.3.2-.3.2-.2.3-.2.5v.3l-.2.5v.3c-.1,0-.4.9-.4.9v.3c-.1,0-.3.3-.3.3l-.2.6v.2l-.3.3v.3c-.1,0-.3.3-.3.3l-.4.5h0v.8c-.1,0-.2.2-.2.2v1.8h0v.5h0c0,.1-.2.5-.2.5v.4c-.1,0-.1.2-.1.2v.2h0v.3h0v1.8c-.1,0-.1.8-.1.8v.5c.1,0,.2.2.2.2v.3h.1v.4c.1,0,.3.5.3.5v.2l.2.6v.6h-1.7c0,.1-.2.1-.2.1l-.4.2-.6.2h-.4l-.3.2h-.2c0,.1-.6.3-.6.3h-1.6l-.8-.2h-1.2c0,.1-.3.1-.3.1h-.3c0,.1-.3.3-.3.3h-1c0,.1-.2.2-.2.2h-.3v-.2h0v-.6c-.1,0-.1-.4-.1-.4v-.2h0v-.3h0c0-.1.2-.2.2-.2h.5v-.2h0v-.4h0v-.4h-.1c0-.1-.1-.1-.1-.1h-.4v-.4h0v-.8h0v-.2h0v-.9c.1,0,.3-.2.3-.2h0l.2-.2h.3l1-.3.5-.2h.5c0-.1.5-.3.5-.3l.5-.2h.2v-.2h0c0-.1.2-.4.2-.4l.2-.3.4-.3.3-.3.4-.5.3-.4.5-.6.3-.5.5-.8.2-.3.3-.3v-.3c.1,0,.2-.2.2-.2l.4-1.3v-.2l.2-.8h0v-.5c.1,0,.1-.2.1-.2v-.3c.1,0,.1-.8.1-.8v-1.4c.1,0,.2-.2.2-.2l.2-.6v-.6c.1,0,.1-.2.1-.2h0v-1.4h0v-1.1h0v-.5c.1,0,.1-.4.1-.4v-2.4l-.2-.3v-.3l-.3-.4-.2-.3-.2-.3-.3-.4-.3-.3-.2-.2h0v-.2c-.1,0-.6-.4-.6-.4l-.6-.3-.9-.6-.7-.4h-.1v-.2h0v-.5h0c0-.1.4-.3.4-.3h0v-.4h0v-.2h-.1v-1.3h-.1c0-.1-.1-.3-.1-.3h-.7l-.3-.4h0l.2-.2v-.2c.1,0,.2-.2.2-.2v-1.1h.1v-.2h.1c0-.1.2-.3.2-.3h1.7l.5-.3h.1l.2-.2.2-.2v-.2c.1,0,.3-.3.3-.3v-.2c.1,0,.3-.2.3-.2l.4-.2h.3v.2h.1v1.2h0v.8h-.1v.6h0v.2h.1c0,.1.2.3.2.3l.3.2.7.4h0" vector-effect="none"/>
        <path class="st1" d="M492.7,180v.2h-1l-.3.2-.4.3-1.9,1-1.2.9-1.1,1.6-.6-.8-.6.7-2.1,2.2.9,1.2-.3.4-.6.5h-.2l-.2.2-.3.3-.6.4-.9.6-1-.3-1-.3-1,.4h-.1v-.3c-.1,0-.3-.2-.3-.2h-.2c0-.1-.2-.3-.2-.3l-.2-.2-.2-.3v-.2l-.2-.3h0v-.5h.6l.2-.2.3-.3.3-.3.3-.3v-.2c.1,0,.2-.2.2-.2v-.2h0v-.4c-.1,0-.3-.3-.3-.3v-.2c-.1,0-.2-.2-.2-.2v-.2h0c0-.1-.2-.3-.2-.3v-.2c-.1,0-.3-.2-.3-.2v-.5l.3-.3h0v-.8c.1,0,.2-.3.2-.3h0v-.3h0v-.3h-.4v-1.7h0v-.3h-.1l-1.2-.5h-.3c0-.1-.5-.3-.5-.3l-3.2-8.8.4-1.1,1.9-2.9h0c0-.1-.2-.3-.2-.3v-.2h-.2v-.3c-.1,0-.1-.3-.1-.3-.1,0-.3-.3-.3-.3l-.3-.5,1.4-1.4h0l3.8-.4h.9l.3-.2h.1l2.1-.6,1.1-.2h.5l1.5-.4h.5c0,.1.9.4.9.4h.5c0,.1.4.6.4.6l.9,1v.9c-.1,0-.1.4-.1.4v.2l.4,1,.8,1.1.7.8.4,1.9.5,1.8.2.8v1.3h0v2.5l.2.7.3,1.5.4,2.5h-.3" vector-effect="none"/>
        <path class="st1" d="M381.7,263.1l3.9,3.3,3.4,2.6-.6.4-.5.4-.8-.4-.4-.2h-.3l-.5-.2h-.7c0-.1-.1-.1-.1-.1h-.1c0,.1-.1.1-.1.1v.2h0v.5l-.2.3-.4.3h-.2c0,.1-.9.1-.9.1h-.2c0,.1-.1.1-.1.1l-.2.3h0v.2h-.2c0,.1-.4.2-.4.2h-.4c0,.1-.3.2-.3.2l-1.3.8-.3.2h-.6c0,.1-.5,0-.5,0l-.5-.2h-.2c0-.1-.3.1-.3.1h-.5v.3h0v.2h-.2c0,.1-.1.2-.1.2h0v.3h0c0,.1.2.3.2.3h0v.2h0v.2h0v.2h0v.2h-.1c0,.1.2,1.2.2,1.2l.3,1,.5,1.3.4,1,.3.3.2.2.3.3.2.3.2.2.4.3.4.3.2.2.2.2.2.2.2.2.4.5v.2c.1,0,.3.1.3.1h.1l-.6.6v.9l-3.1-.3-.9,5.6-.7,4.8h-.6v.5h.5l-.6,3.7h-1.2v-.2l-.2-.2h0c0-.1-.1-.4-.1-.4l-.2-.2-.2-.2h-.1c0-.1-.2-.3-.2-.3l-.2-.2-.2-.2-.3-.2h-.2l-.3-.2h-.3c0-.1-.3-.2-.3-.2h-7.3c0-.1-.3-.1-.3-.1l-1.2.5h-.2c0,.1,0,0,0,0v-.4c-.1,0-.2-.4-.2-.4v-.7c-.1,0-.2-.4-.2-.4v-1.1c.1,0,.1-.7.1-.7.1,0,.2-.6.2-.6v-.6c.1,0,.2-.5.2-.5v-.6c-.1,0-.1-.3-.1-.3h0v-.5c-.1,0-.2-.3-.2-.3l-.3-.8v-.8l-.2-.8v-.6h-.1c0-.1-.4-.7-.4-.7v-.2c-.1,0-.2-.1-.2-.1h0v-2.1h.9c0-.1.4,0,.4,0h.3l.5.2v-2.3h-1.6l-.4.5h-1.3v-.2l-.3-.2h0l-.4-.3h0l-.6-2.5v-.8l-.2-1.1v-1.4c.1,0,.2-.2.2-.2v-.3c.1,0,.1-.3.1-.3v-.2c.1,0,.2-.7.2-.7l.2-.7.4-.9.4-.5.4-.4.3-.4h-.1l.9-1.2.2-.3.3-.3.6-.6.8-1.3.3-.3.3-.2.4-.8h.1c0-.1.3-.5.3-.5h.6c0-.1.9-.3.9-.3l1-.4.4-.2,1.9-.5.5.2.5.2,1.3.3h.2l.2.2h.3c0,.1.2.3.2.3l.6.4.2.2-.2-.5,2.1-.7v-1.1c-.1,0-.4-2.3-.4-2.3l.7-.2,1.1-.3h.4c0-.1.6-.3.6-.3l.6-.2-.2-.2h0l.6-.2,1.2-.4,1.2-.4h0l1.5,4.9h0" vector-effect="none"/>
        <path class="st1" d="M349.7,442.9v.6h0c0,.1.1.1.1.1l-.4,1.5h-.1l-.5,1.6v.5l-.4,2.1-1.2,9.1v1.1c-.1,0-.1,1.2-.1,1.2-.1,0-.3.8-.3.8v1.2c-.1,0-.2.5-.2.5l-.2,1.7-9.2-3.7h0l-.2.2-.2.2-.4.4v.2l-.2.2v.2l-.5,1.5h0v.2l-.7.6-.2.3v.2h-.1c0,.1-.2.1-.2.1l-.6-.3h-.1l-1.3-1.7.2-.2-.7-.9v-.6c.1,0,.4-.1.4-.1l.3-.2.4-.4-3.8.2v-8.2l2.1-1.6,3.1-2.1,7.1-4.7,2-.2h.9c0,.1,3.1-2.2,3.1-2.2l1.8.3h.4" vector-effect="none"/>
        <path class="st1" d="M373.5,319.6l1.1,2.8-3.1,1.4-.3.2h0l-2.3,1.1-.3-.7-1.7.8h-1.4v1l-2.8.3v-.2l-1.6-14.6,3.6-.9,2-.2h1.1l2-.2h.6c0,.1.7.5.7.5l.4.3.4.5.3.7.2.7.9,2.3.7,1.6v.7c.1,0,.1.3.1.3v.7l-.4.9" vector-effect="none"/>
        <path class="st1" d="M537.6,339.8l5,5.9h0l.2,1.4v.5l.7,3.8.2,1.2.7,4.2h0l.3,1.7h0l-23.5-7.5h-.5c0,.1-.5.3-.5.3l-1.4.8-.4-.8,2.4-4.4-.6-1.1,1.9-.8.3-.5-1-1.3v-.3c0,0,.4-.7.4-.7l.2-.5.2-.3.2-.2h.3l.4-.3v.6c0,0,1.1-.2,1.1-.2h.6l.5-.8.8.3,1-.4.4-.2h0l6.4-.6,2.1-.2h1.3c0-.1.4.3.4.3h0" vector-effect="none"/>
        <path class="st1" d="M312.5,354.5h0l1.4-.4.9,3.1v.2l.5,1.2-.4,1.5,1.2-.3-.4,1.9,4.5.4-.2.9v.8c-.1,0-.2.2-.2.2v.6l-.3,1v.6l-.2.5-.2,1v.5h0v.3l-.3-.2h-.1l-.6-.4-.5-.3-1.3,6.9-3.6-.7.4-.5-2.8-2.7-3.4,1.8-1.4,2.4-3.1-.7h0v-1.4h0v-.7l.2-.3v-.3h.1l-2.4-1.1-.2-1.1h-3.2v2.1l-4.8.2-.4-3.3-.6.2-1.5-1.1-.3-1.1,1.3-.5v-.3c-.1,0,.8-.3.8-.3l1.6-.5,2.7-.9,2.8-.9.2-2.7-.2-1.4h.7c0-.1.7-.3.7-.3l.8-.2,1-.3.6-.2h0l2.7-5.6,2.8-5.6h0l4.7,8.4h0" vector-effect="none"/>
        <path class="st1" d="M349.7,268h-1.2v.8c.1,0,.1.5.1.5h-.6c0,.1-.5.1-.5.1h-.1l-.3.3-.2.3-.5.4-.5.4-1,1.1-.7.6v1.2h.1-.1c0,.1-.2.3-.2.3l-.3.3-.2.2-.3.3h-.1l-.2.2h-.4c0,.1-.3.1-.3.1h-1l-5.2,1.7v-.2h-.3v-1.1c-.1,0-.1-.6-.1-.6v-.5c-.1,0-.1-.6-.1-.6v-1.3c.1,0,.1-.7.1-.7.1,0,.2-.6.2-.6v-.5l.2-.7-.6.2h-.4c0,.1-.3.2-.3.2h-1.2c0-.1-.2-.1-.2-.1,0-.1-.2-.3-.2-.3h-.1c0-.1-.2-.4-.2-.4l-.2-.4-11.6,3.1-.3-1.2-2.7.5.4,1.6-4.2.9-1.6.3h0v-.3l.2-.3v-.3c.1,0,.2-.2.2-.2v-.4c.1,0,.1-.2.1-.2v-2.6c-.1,0-.4-1.4-.4-1.4h1.8l1-.3,1-.2h.7c0-.1.3-.2.3-.2l1-.2,1.3-.3-1.1-4.1-.4-1.7h-.6c0,.1-.2-.6-.2-.6h.7c0-.1-.8-2.7-.8-2.7l-4.3.8v-.3l.2-.3.2-.3.2-.3.3-.3.4-.3.4-.3.5-.3.5-.3.6-.3.6-.3.6-.4.7-.4.5-.3.3-.4v-.2c.1,0,.3-.2.3-.2v.5c.1,0,6.5-1.2,6.5-1.2v1.6l-.2.4v.5l7.9-1.5.2,1.1,1.3-.2.6,1.8,1.8-.5.2,2.3.7,2.4.8-.2.6,2.3.7-.2,1,4.3.6-.2h0l6.4-2.4v.4c.1,0,.4.3.4.3l.3.2h.3v.9h0v.3h0v.2h0v.3h0v.2" vector-effect="none"/>
        <path class="st1" d="M408.9,419.3v.6h.6v-.2l2.9-.5v.5c.1,0,0,0,0,0l.3,1.7,3.9-.6h0l.3.4.4.4.4.4.3.4.3.3.2.2.3.2.6.5h0l.6.5.6.5.3.3.2.2.2.2.3.3.3.3.3.3.8,1.1h0c0,.1.1.2.1.2h.2l1.5.2h.4v.5c.1,0,.1.4.1.4v.3c.1,0,.1.2.1.2h0v.3l.2.2v.4c.1,0,.1.2.1.2v.3h.2c0,.1.2.3.2.3l2.2,2.3.2,1.8-.4,1.2.5,3.1v.8c.1,0,.7,2.8.7,2.8v.5c.1,0,.3.4.3.4l.2.4v.5c.1,0,.1.4.1.4l.2,2.7-1.6,2h0c0,.1-.2,1.2-.2,1.2h0l-.6,2.7-1-.4v1.9c-.1,0,1.3,2.4,1.3,2.4h-.3c0,.1.1.4.1.4v.3h.1v.2h-.2l-4.6.8v-.4h0v-.5h-.4l-2.5.4h-.8c0,.1.8,4,.8,4l2.3,11.7.2,1.1-3,.2-1.3-1.3-1.8-1.8-.3-.3-2.7.8-1.4.2-1-.5-.5-2.7v-.2l-.4-2.4h-.1l-.7-.5-1.4-.8-1-.5-.4-.2h-1.9c0-.1-.3-.1-.3-.1l-.7-.4-.6-.2h-.2v-.4c-.1,0-.3-.3-.3-.3h0l-.2-.2v-.2c-.1,0-.5-.2-.5-.2h-.6c0,.1-.2.1-.2.1h-.2c0-.1-.1-.3-.1-.3v-.3c-.1,0-.1-.2-.1-.2v-.6l.2-.2h.1c0-.1.1-.3.1-.3v-.4h0c0-.1-.1-.2-.1-.2h-.1v-.4h0v-.3h0v-1h-.3c0-.1-.2-.1-.2-.1h-.4v-.2h0v-.4l.2-.2h.2v-.3h0v-.2h-.1l-.2-.2h-.1l-.2-.2h-.1v-.3h0v-.2c.1,0,.3-.2.3-.2v-.2c.1,0,.2-.1.2-.1h0v-.3h-.5c0,.1-.1.2-.1.2h-.3v-.2h0c0-.1.1-.2.1-.2h.1v-.2h-.5v-.2h0c0-.1.1-.2.1-.2h.6v-.2h0v-.3h0c0-.1-.1-.1-.1-.1h0c0-.1-.1-.1-.1-.1h-.4c0,.1-.2.2-.2.2h-.6l-.2-.3h0v-.2h.6v-.2h.1v-.4h-.1c0-.1-.1-.1-.1-.1h-.2c0-.1-.2-.1-.2-.1h-.1v-.2h0v-.2h0v-.4h0c0-.1-.1-.2-.1-.2h0v-.3h-.1v-.2h-.1v-.2h0v-.2h0v-.2h0v-.2h0v-.2h0v-.7h-.4v-.7h.1v-.2h-.1c0-.1-.1-.1-.1-.1v-.2h0v-.2h.1v-.3h0v-.8l-.2-.2v-.2c-.1,0-.2-.1-.2-.1v-.7h0v-.5c-.1,0-.2-.1-.2-.1v-.2h0v-.9c-.1,0-.1-.2-.1-.2h0v-.4h0v-1.7h.1v-.4h-.6v-.2h0v-.3l-.2-.3v-.3c-.1,0-.2-.3-.2-.3v-.2l-.2-.2h0v-.2h0v-1h0c0-.1.2-.1.2-.1h.5v-.5h0v-.7h-.1c0-.1-.1-.2-.1-.2h0v-.5h.2v-.6c.1,0,.1-.3.1-.3l-.2-.2h0v-.8h0c0-.1-.1-.1-.1-.1h-.1v-1.1h0v-.2h0v-.3h0v-.2h0v-.8h0v-.2h0v-.2h0v-.6c.1,0,.3-.2.3-.2v-.4h0v-1c-.1,0-.2-.1-.2-.1v-1.4c.1,0,.1-.2.1-.2h0v-.2h0v-.2c.1,0,.1-.3.1-.3v-2h0v-.3h0v-.3h0v-.5h0v-.2h0c0-.1-.1-.3-.1-.3v-.2h0l.2-.4v-1.2h0v-.5l-.2-.2-.2-.2v-.4l.2-.2.2-.5h0l.7.6.4-1.2h2l3.3-.4,5.3-.4v.7" vector-effect="none"/>
        <path class="st1" d="M383.5,342.9l1.9,6.6,1.9,6.4h.3l.8,2.3.6-.2.7,2.5-.6.2.9,2.9-.3.3v.4c.1,0-2.1-.4-2.1-.4v-.5c.1,0-.8.2-.8.2l-.5.2h-.2l-.5.2v-.2c-.1,0-3.1,1-3.1,1l-3,.9-3.4,1.1-3.7,1.2.2.5-.7-.4h-.4v.2l-6.1,3.7v.2l-1.2.3-1.1.3-1.6.5-1.7.5-.4.2-4.5.5v.6l-1.1.2v.4h-1.7l-.7,1.2h0c0,.1-.4.8-.4.8v.2c-.1,0-.7.8-.7.8l-1.2,1.4-1.7-1.1.4-2.5,1.6.2v-4.6c.1,0,.1-.7.1-.7l1.4-.7v-.2l2-1v-.5h-.5v-.5l-6.3,1v-.9h-1.9v-.2h-8.4l-.3,1.2h-5.9l-4.6.2v-9h.1v-.4h.7v-.2h.2v-.3h-.1v-.7h.8v-1.3h.2v-.4h.2v-.4h.4v-.8h0v-.5c-.1,0,.4,0,.4,0v-1.2h-.4l-.3-1.5,4.1-1.3,3.7-1.2-.3-1,16.3-3.6,1.2-.3h0v-.2h0v-.2h.1c0-.1.7-.3.7-.3v.4h0v.2h0c0,.1.2.1.2.1h.2v.4c.1,0,9.8-2.4,9.8-2.4h0l1.3-.3,1.1-.3h.3l.3-.2,1.7-.5.6-.2,1.1-.3h.6c0-.1.4-.1.4-.1l.4-.2h.4l.4-.2h.7l.4-.2h.4l.4-.2h.4l.7-.3h.5c0-.1.2-.2.2-.2h.5c0-.1.2-.2.2-.2h.6c0-.1.1-.2.1-.2l.6-.2h.5c0-.1.2-.1.2-.1l.7-.3h.2l1-.3,1.1-.3h.5l.6-.2h.2l.7,2.7.3,1.1v.4" vector-effect="none"/>
        <path class="st1" d="M277.7,261.2v.9l2.6-.4.2,1.4h-.4l.3,2.1h-.1v.3h.2v.2c.1,0,.7-.1.7-.1v.2c.1,0,1.7-.3,1.7-.3v.6c.1,0,1.4-.2,1.4-.2h.8c0-.1,1.1-.3,1.1-.3h1c0-.1.6-.2.6-.2l.2,1.3h.8l.2,1.3.2.6h.2l.3,1.7h1.4c0-.1,0,.2,0,.2v.5l.2.6v1.4h1l3.5-.5h0l1.5-.2v.3l.2.6v.3c.1,0,.2.4.2.4l.2.6.2.6.3.6v.5c.1,0,.2.5.2.5l.6,1v1.6h-.3l-4.4.8-.2-1.2h.5v-.2h-.3v-.3h-.1l-.3-1.6h-.8v.5l-2.7.4v-.5h0v-1.4c.1,0,0-1,0-1l-3.9.7-.2-1.3-3.3.6.7,4.3-5.6,1h-.2v-.5c-.1,0-.1-.5-.1-.5-.1,0-2,1.4-2,1.4l-1.1.9-1.4-2.7-2.8,1.6-.8-.9-.6-.7-.3-.5h0l-.4-.6-.4-.6-.3-.5h0v-1.6l1.3-.5h.4l.3-.3.6-.5.2-.2.7-.5-1.4-2-1.3-1.6-1.9-2.3-2.6,1.9-.9-1-1.1-.7.5-.4-2-1.9-.2.3-.5-.3-.3.5-.2-.3-1.1-1.1-1.1-1h0c0-.1.2-.4.2-.4l.3-.5.3-.5.2-.4v-.2l3.7,2.1-.5.8.3.2.6-.8,1.1.6.7.3,1.1.6h.8l.2-.3h.4c0-.1.2,0,.2,0l.8-.3.6-.6.6.2h.5c0-.1.3-.9.3-.9l1.5.3v-1.1h.7v1.3h.8c0-.1,1.4-.1,1.4-.1v-1.8c.1,0-.2,0-.2,0l.2-1.4v-.4l.8.4.6.2h.8v.8c-.1,0-.2.2-.2.2v.2c-.1,0,1.6.1,1.6.1" vector-effect="none"/>
        <path class="st1" d="M278,279.4v.5h.4v.3l.2.4v.3c.1,0,.3.4.3.4l.3.6v.2h.1c0,.1.4.8.4.8l.4.7.4.6.4.6.4.5h-.3l.5.9.3.6.3.5.3.5-1.5,1.1.2.4h-.2c0,.1.1.4.1.4l-.4.3.2.4-2.8,2.5,1,1.2v.2c-.1,0-.3.2-.3.2l-.2.3v1.2c.1,0,.1.4.1.4h0v.4l-.2.4-.2.3-.4.4-.3.2-.2.2-.3.3-.2.4-.2.3-.3.3-.3.3-.3.3-.3.2-.2.2-.2.2-.3.3-.3.4-.3.4-.2.3h0l-4.1-3.2-2.2-1.7h0l-.7-.6-1.3-1-1.1-.8h-.1v-.2h0l.2-3.1h0l.4-.5.4-.2.6-.5v-.3l.2-.7,4.5-4.1.2-.2,4.4-3.9,1.1-.9,1.9-1.4v.5" vector-effect="none"/>
        <path class="st1" d="M289.1,284.2l.4,2.4v1.1c.1,0,1.7-.4,1.7-.4h1.5l1-.2h.8c0-.1,0,.5,0,.5v1.7h-1.7c0,.1,0-.4,0-.4h-1c0,.1-1.3.3-1.3.3v.5h-.6l.2,1.8h-1.5c0,.1-.5-.1-.5-.1l-2.3-1.3-.6.9v1.8h-.6c0-.1,0,.4,0,.4l.2.3.2.3h-1.1c0-.1-.4-.3-.4-.3l-.5-.2h-.9c0,.1-.2.4-.2.4l-.5.2h-.4v.2h-.2l-1.4,2.3-.8-.4v-1.3c-.1,0-.1-.3-.1-.3l.2-.3.2-.2v-.2c.1,0-.9-1.2-.9-1.2l2.8-2.5-.2-.4.4-.3v-.2c-.1,0,.1-.1.1-.1l-.2-.4,1.5-1.1-.3-.5-.3-.5-.3-.6-.5-.8h.3l1-.2v-.4l1.1-.2v.4l5.8-.8h0" vector-effect="none"/>
        <path class="st1" d="M389.8,364.4l1.6,5.3-.8.5.9,3.1.8-.4.7-.3.5-.3,1.1-.6.9-.4,1.4-.7,1.5-.7.2.7v.8c.1,0,.2.6.2.6v.6c.1,0,.2.6.2.6l.2,1.6-1.7.4v.3h-.3c0,.1.4,1.8.4,1.8h-.2v2.1h-.9l.2,3.1-.2,3.4h-.3l.6,4.5.3.2v.3c.1,0-4.4,3.1-4.4,3.1l1.2.8-3.9,1.5.9,2.4.6,2.3v.4c.1,0,.1,1,.1,1v3.7c-.1,0-.1.7-.1.7h-3.4v-2.6l-.2-.6v-.2h-1.1l-1.1-.3v-.5h-.6v.2h-.6v.4h0c0,.1-.5.1-.5.1h-.4c0-.1-2.6-.5-2.6-.5v.2l-1.8-.2v-.2h-.3v.2l-2.3-.3-2.5-.9-1.6-.5-2.9-1h-.3c0-.1.2-1.8.2-1.8l.2-.7.2-1.1v-.4h.2c0-.1-2.7-1.4-2.7-1.4l-.6-1,1-1.3.9-.4v-.9c.1,0-.4-4.9-.4-4.9l-2-1.4-.7-.3.6,3.2h-.3v.6l-.4.5h-1.3l-1-3.9,1.5-.8h-.2l-.2-1.5-.3-.4-.3-.6-.4-.6-.4-.5-.2-.3-.8-1.3-.4-.7-1-1.5-1-2.1,1.7-.5,1.6-.5,1.1-.3,1.3-.3v-.2l6.1-3.7v-.2h.4l.7.4-.2-.5,3.7-1.2,3.4-1.1,3-.9,3-1v.2c.1,0,.6-.2.6-.2h.2l.5-.2.9-.2v.5c-.1,0,2.1.4,2.1.4" vector-effect="none"/>
        <path class="st1" d="M313.1,457.4l2.4.7,2-.3,1.8-.2v1.5c.1,0,.5-.2.5-.2l.3-.2v.2c.1,0-.4.3-.4.3v.3l-.4.2-.4.9-.2.4h0v.2h0v.4h0l-.4.2-1.2,4.1,1.4,2.5h-.4c0,.1-.2.1-.2.1v1l.2.2.4.4.7.5,1,.8h.2c0,.1-.7.6-.7.6h-1.1l-.2.2v.2h0v1h-1l.2-1h-.2l-.8.4-.6.3-.8.4-.5.2h0l-.4-.6-.4.2-.9-4.5h-.3v-.7h-1.2c0,.1-.1-.6-.1-.6h-1.3v-.8h.2l.2-1.5h2v-.4h0v-.2l-1.3-.4.5-.8-1.7-1.2.4-.5-.5-.4,3.3-4.3" vector-effect="none"/>
        <path class="st1" d="M329.1,458.6v2.8l3.8-.2-.4.4-.3.2h-.3c0,.1-.1.7-.1.7l.7.9-.2.2,1.3,1.6h.1l.6.4h.2c0,.1-.3.8-.3.8l-.2.5-.4.4v.6l-1.1,1.9h0v.3h-.3l-.5.7h0l-3.8,4h-.1l-1,.6-.8.5-1.6.9-1,.6-1.7,1h-1.3v-.2h0v-1.4c.1,0-.3,0-.3,0h-.6c0-.1-.4-.1-.4-.1h-.1v-.2h0v-.3h0v-.2h0v-.9h0v-.3h0v-.4h0v-.2h0v-.3h0v-.7h0v-.2h1l.6-.3h0l.4-.2-2-3.5-1.4-2.5,1.2-4.1h.4v-.2h0v-.3h0v-.2h-.1l.2-.4.4-.9.3-.2v-.3l.5-.3v-.2c-.1,0-.4.2-.4.2l-.4.2v-1.5c-.1,0,1.2,0,1.2,0h.4l.7.2.8.2,1.4.3h.6c0,.1.4.2.4.2h4.2" vector-effect="none"/>
        <path class="st1" d="M318.5,473.9v1.5h0v.5h0v.7h0c0,.1-.2.2-.2.2h-.8l-.5.4h0v.3h0v.3l-.3.3-.2.3-.2.2h-.2c0,.1-.2.2-.2.2h-.5c0,.1-.2.2-.2.2l-.3.2-.3.2h-1c0,.1-.3.5-.3.5v.5l-.2.6v.5l-.9.7-.3-.2h-.1c0-.1-.1-.7-.1-.7v-1.1h-.1l-.3-.6h0c0-.1-.1-.2-.1-.2l-.8-.4h-1.8l-.9-.8-.2-.2h-.1c0-.1-.2-.4-.2-.4v-.2c.1,0,.4-.2.4-.2l.2-.2h.2c0-.1.2-.1.2-.1h.6v-.3h-.1l.7-2.2v-.3h2.1l.3.2h2.6l.5-.2.4-.2.4.6h.5c0-.1.8-.5.8-.5l.6-.3.8-.3h.2l-.2.9h1.1" vector-effect="none"/>
        <path class="st1" d="M356.6,490.5v.5l.2.6v1.7l-.2.4v.3c-.1,0-.3.5-.3.5l-.3.5-1,1.7-1.5,2.5-.7,1.3-.3.5-.3.5-.7,1.2,1,.8-.5.9-.4.6-.4.7-.3.4-.3.5-.2.3-.3.5v.2h-.1v1.1h-.3c0-.1-.2-.1-.2-.1l-.2-.2h-2.2c0,.1-.2.1-.2.1h-.9v-.2h0v-.2h0v-.2h.2v-1.1h-.3v-.3h0v-1h0v-.2h0v-.5h0v-.4h0v-.9h0v-.9h0v-.2h0v-.2h0v-2.5h0v-1.4h0v-.2h.2c0-.1.1-.1.1-.1h0c0,.1.1.1.1.1h.4c0-.1.1-.1.1-.1h.6c0-.1,1-.6,1-.6h.1v-.2h0v-.3c.1,0,.3-.2.3-.2l.2-.3.4-.5.3-.4.2-.2h0l.2-.2h0v-.4l.2-.2.3-.5h0v-.3h.1c0-.1.2-.3.2-.3h.3c0-.1.1-.1.1-.1h0c0-.1.2-.3.2-.3l.2-.2.2-.2h0v-1.4h0v-.4h0c0-.1.3.1.3.1h.2v.2h.2c0,.1.2.1.2.1h0c0,.1.1.1.1.1h.2l.2-.2.2-.3v-.2l.2-.2v-.3l.2-.5v-.4l.5,2" vector-effect="none"/>
        <path class="st1" d="M299.2,280.5v.4c.1,0-.3,0-.3,0l-.8.3v.2l-.7.4v.2l-.4.2-.3.2-.5.4-.3-.3-.5.4v.3l-2.5.4-3.9.7h0l-5.7.7v-.4l-1.2.2v.4h-.9c0,.1-.4-.4-.4-.4l-.4-.6-.4-.6-.4-.7-.4-.7h0c0-.1,3.3-.7,3.3-.7l-.2-1.1h.9v-.2h.8c0-.1,0,0,0,0l1.1-.2h0l1-.3.2,1.2,2.6-.5v.9l5.7-1.1,4.4-.7.2.8v.3" vector-effect="none"/>
        <path class="st1" d="M275.1,241h.5c0,.1.5.1.5.1h2l.5-.2h1.1l.5.2.4.4.3.6.3.5.3.4.2.4.3.7.2.5.2.4.4.2h1.4c0-.1.6-.1.6-.1l.5.2.5.2.8.3.6.3.9.5.9.5.6.5.6.7.4.5.5.5.3.3.2.4.2.5.4.5.3.4.3.4.3.5.2.4v.6c.1,0,.3.6.3.6v.5c.1,0,.3.3.3.3l.2.3.2.3v.7c-.1,0-.3.4-.3.4v.2c-.1,0-.1.1-.1.1l.2.2.2.2.2.3v1.7h0c0,.1.2.4.2.4l.2.3.3.4.2.3v1.1l.4.6.2.4v2.2c.1,0,.2.6.2.6v1.2h-.2c0,.1-.1.3-.1.3h0v.2h0v1.1l.3.5.2.5v.3l.2.4.2.2.3.2.2.2.3.6v.4c.1,0,.2.6.2.6l-1.5.2h0l-3.5.5h-1v-2c-.1,0-.1-.5-.1-.5l-.2-.4h-1.4c0,.1-.3-1.6-.3-1.6h-.2l-.2-.5-.2-1.4h-.8l-.2-1.2h-.6l-1,.2-1.1.2h-.8c0,.1-1.2.4-1.2.4v-.6c-.1,0-1.7.3-1.7.3v-.2c-.1,0-.7.1-.7.1v-.2h-.3v-.3h.1l-.3-2h.4l-.2-1.4-2.6.4v-.9h-1.7v-.3c.1,0,.2-.2.2-.2v-.3c.1,0,.2-.4.2-.4h-.8c0-.1-.6-.3-.6-.3l-.8-.4v.4l-.3,1.4h.3v1.7h-1.5l-.8.2v-1.3h-.6v1.1l-1.6-.3-.3.8h-.5c0,.1-.6,0-.6,0l-.6.6-.8.3h-.2c0-.1-.4,0-.4,0l-.2.3h-.8l-1.1-.6-.7-.3-1.1-.6-.6.8-.3-.2.5-.8-3.6-2.1v.2l-.3.4-.3.5-.3.5-.2.3h0c0,.1,1.1,1.1,1.1,1.1l1.1,1.1.2.3.3-.5.5.3.2-.3,2,1.9-.5.4,1.1.7.9,1,2.6-1.9,1.9,2.3,1.3,1.6,1.4,2-.7.5-.2.2-.6.5-.3.2h-.4l-1.3.5h-.4l-.6-.3-.5-.3h0l-.8.3h-.3l-.2.2h-.1l-.3.2h-.8c0,.1-.2.1-.2.1l-.2.2v.2c-.1,0-.2.1-.2.1v.6c-.1,0-.1.2-.1.2v.2h.1v.3h0c0,.1,0-.1,0-.1v-.2h0v-.6h0v-.2h0v-.2h0l-1.1.7-.2-.2-.2-.3-.3-.4-.4-.4-.5-.3-.6-.4-.5-.2h-.4c0-.1-.5-.2-.5-.2l-.5-.2-.3-.2-.3-.4-.3-.4-.3-.5-.4-.7-.3-.5-.2-.4-.3-.5-.5-.3h-.4c0-.1-.4-.2-.4-.2l-.4-.5-.3-.4-.4-.3h-.1l-.2-.3-.2-.4v-.7c-.1,0-.1-.2-.1-.2v-.6l.2-.3v-1.3c-.1,0-.2-.3-.2-.3v-.3c-.1,0-.2-.2-.2-.2l-.2-.3v-.3c-.1,0-.1-.4-.1-.4v-4.5l.2-.3.2-.4.3-.5.4-.6.3-.5.3-.4.2-.3.2-.3.3-.2h.3l.4-.2.6-.2h.7c0-.1.7-.3.7-.3l.6-.2.6-.3.4-.3.4-.4.6-.6.4-.5.5-.7.3-.4.3-.5.4-.6.3-.6.2-.4v-.9l-.3-.4-.3-.4-.3-.4-.2-.4v-2.1c-.1,0-.3-.4-.3-.4l-.3-.4-.4-.4-.5-.5-.5-.6-.4-.6-.2-.7v-1.2c-.1,0-.1-.6-.1-.6v-3.1c.1,0,.4-.4.4-.4l.3-.3.3-.2.5-.2.4-.3.3-.3.2-.5v-1.4c-.1,0-.2-.4-.2-.4v-.5c.1,0,.3-.4.3-.4l.2-.4.2-.3.3-.3.4-.2h.9l.5.2.4.2.3.3.4.3.3.2.3.2.2.2v.4c.1,0,.3.4.3.4l.2.3h0l.4.5.4.6.3.7.2.5.3.4.6.4.8.3h.8c0,.1.9.2.9.2h.7l.5.2.4.3.4.4.4.5.4.4.4.3.6.4.4.3.4.6.4.6.4.6.5.6.4.5.4.3" vector-effect="none"/>
        <path class="st1" d="M305.8,309.7l.8,1.1h.3c0,.1.4.3.4.3h.3c0,.1.3.2.3.2h.3l.2.2h1l.3.2h.5c0,.1.4.2.4.2h.3l.6.2h.4c0,.1.2.1.2.1h.8c0-.1.3-.1.3-.1h.2l.3.3.2.2h.1c0,.1.1.2.1.2h.2c0,.1-.2,2.3-.2,2.3h.4c0-.1.4-.1.4-.1l-.8.8v.7l-.2.2v1.9l1.7-1.5,1.9-.4.6,3.1.2,1.6h-2.7v1.6c.1,0,.2.3.2.3l-.6-.2h-.3c0-.1-.5-.3-.5-.3h-.5c0-.1-.4-.2-.4-.2h-.5l-1.5-.4h-.5c0-.1-.8,1.9-.8,1.9l-3.8.3-1.8-.3v.7c.1,0,.2.3.2.3v1c.1,0,.2.2.2.2v.2l.3.4.2.4h0l.3.4h0l.2.2h.1l.3.4.3.2.2.2h0l-9.9-7.7-8.1-6.4,1.2-.3v-4.9h-2.3c0,.1-1.1.3-1.1.3h-.7c0,.1-.5.2-.5.2h-1c0,.1-.4-2-.4-2l-1.1.3-1.4-2.9,1.1-.3,2.3-.6,7.3-2.7.4,1,1.2-.4v-.5c-.1,0-.3-.5-.3-.5l-.2-.3-.2-.3-.4-.5-.3-.4-.3-.3v-.2l-.3-.4v-.4l-.2-.4h.3l.3-.2h.2c0-.1.2-.2.2-.2l-1.2-2.3,1.3-.7,1.1-.6,1.3,2.4h1.2c0-.1,2.3-.4,2.3-.4l1.5-.2h1.2l-.8-1.2v-.4l3.2-.6v.4c.1,0-.6.2-.6.2l.3.8.7-.2h0v.8h0l.5.3h0v.5c.1,0,.1.7.1.7.1,0,.3.6.3.6v3.7l-.9.2v.8c.1,0,.1.4.1.4v1.5h.4v4.2l.2.3.4.5" vector-effect="none"/>
        <path class="st1" d="M399.9,146.6h0v.4c.1,0,1.8.2,1.8.2h.8c0-.1,1.9,0,1.9,0h1l.9-.5h2.4v1.2h0v.4l-.3.5v.2l-.2.2h0v.2h0v.8l.2.8.5,2.1v.4l.2.8.2.7.2,1v.3l.7-.2.8-.2.8-.2.8-.2.8-.2,1-.3v-.2h0v-.3h0v-.2h0v-.2h0c0-.1,0,0,0,0h0v.3c.1,0,.1.2.1.2h.5c0-.1.2-.2.2-.2h.2l.3.2h.4c0,.1.1.1.1.1h.1-.2v.3h0v.3h-.2v.2h.2v.3h0v-.2h0c0-.1.2-.1.2-.1h.4l.4.2h.2v-.3h.3c0,.1-.1.1-.1.1h0v.2h0v.9c.1,0,.1.1.1.1h0v.3h0v.2h.3l.2.2h.1v.5c.1,0,.1.5.1.5.1,0,.2.1.2.1h0v.2h-.1v.2h-.1v.3h0v.3h-.1c0,.1-.1.1-.1.1v.2h-.6v.3h1.3c0,.1.1.1.1.1,0,.1.2.4.2.4h0l-1.8,1.1h-.2c0,.1.3.5.3.5l.3.5.5,1v.3c.1,0,.2.2.2.2v.5c.1,0,.1.4.1.4v1.9h-.2l-.3.7-.2.3h.2l-.3,1.3v.3h-.3c0,.1-.2.3-.2.3h0l-.3.4h0l.8,5.4h-.7c0,.1-.4.1-.4.1l-.4.2h-.3c0,.1-.2.2-.2.2h-.2c0,.1-.3.3-.3.3l-.3.2-.2.2-.3.3-.2.3-.5.6-.8,1-.3.3-.3.3h-.2c0,.1-.2.3-.2.3h-.1v-.4l.6-.5-.7-2.9-.6-2.5-.9-.2-2.2.4v.5l-1.1.6-1.1.9.3,1.9-.9.2-1.2,1-1.9.3-.4-2-.2-1.1-.8-.2.2,1.4-2.4.5v.2l-2.6.3v.4l-.2,1.7-.2,1.6h-1.1c0,.1-.5.4-.5.4h-.3l-2.9.4-1.1.2-2.2.5h-.1v-.6c-.1,0-.1-.7-.1-.7-.1,0-.2-.4-.2-.4h-.5c0,.1-.4.1-.4.1h-.2c0,.1-.4.1-.4.1h-1c0,.1-.3.1-.3.1l-.3.2h-.2c0,.1-.7.7-.7.7h0c0,.1-.1.1-.1.1h-.2l-1-2-.9-1.8-.9-2.8h0v-2.5l-1-3.5-.5-2.6-.8-4.3-1-5h.7c0,.1.3.1.3.1h.3c0,.1.3.1.3.1h.9c0-.1.1-.1.1-.1l.7-.3h.2c0-.1.3-.3.3-.3h0l.3-.3h.2v-.2h.1c0-.1.2-.1.2-.1,0-.1.2-.3.2-.3l.2-.2h0l.2-.3v-.2c.1,0,.3-.2.3-.2l.2-.3h0v-.3h.1v-.4h.1v-.3h0v-.6h0c0-.1-.1-.3-.1-.3h-.7c0,.1-.2.2-.2.2h0c0,.1,0,0,0,0h.1c0-.1.2-.2.2-.2h3.2l.3-.2h.6c0,.1-.2.1-.2.1h-.3.4v.2h.3v-.2h.1c0-.1.1-.1.1-.1v.2h.1l.6.2,1,.2h1.3l.4-.2.5-.2.4-.2h.2c0-.1.2-.1.2-.1,0-.1.1-.3.1-.3h0v-.2h0c0-.1-.3-.2-.3-.2h.3v.2h.1l.2-.2,1-.6.2-.2.4-.3.3-.4v-.2h.3c0-.1.3-.4.3-.4l1.4-1.1.3-.3h0v-.3c.1,0,.3-.2.3-.2l.2-.4v-.2h.2v-.3h0v-.5h0c0-.1,1-.8,1-.8h.1" vector-effect="none"/>
        <path class="st1" d="M493.1,180.1l.2.4.8,1.5,1.8,1.6h.4c0,.1.2.1.2.1l.8.3h.3c0,.1.6.2.6.2h.1v.2c.1,0,.4.5.4.5l.3.5.2.2,2.6.4,1.9.9.8.9,1,1.1.4.5.4.5.6.9.3.4.2.2.5.2,2.7,1.4.4-.2,1.2-.6.6-.2,1-.3h1.2l.2.2h0l.6.9v.3h0l-1-.2h0l-.7.2-3.6,1.2.2,1.1v.3l-.5.2h0v.3h.1v.3c.1,0,.1.2.1.2l.2.3h0v.2h.1v.3h0v.7h.1v.2h0v.2h0v.3h0v.2h0v.2h0v.2h.2c0,.1.2.6.2.6v.4c.1,0,.1.2.1.2l.2.2v.2h1.4l.6.4h0v1h0v.2h0l.2.3v.4c0,0,.2.2.2.2h0v.4c0,0,.7.5.7.5h0c0,.1,0,.3,0,.3l.5.9.2.4v.2l.3.4.2.3v.3c0,0,.3.4.3.4l.3.5h0l.2.5v.5c0,0,.2.2.2.2v.5c0,0,0,.4,0,.4,0,0,.4.7.4.7l.3.7.3.6.2.4.6.6h0v.3h0v.5h0v.9l.2.4v.4c0,0,.2.6.2.6h0v1.1c0,0,.3.6.3.6v.4c0,0,.2.1.2.1h0v.2h0l.2.5v.2c0,0,.2.2.2.2l.2.5h0v.5c0,0,.2.3.2.3v1.3h0v.2h-1.4v.2l-.3.3-.2.2h0c0,.1,0,.2,0,.2h-.3c0,.1-.2.2-.2.2h0l-.2-.3h0c0-.1-.2-.3-.2-.3l-.4-.3-.4-.3h-.2c0-.1,0-.2,0-.2h-.4c0-.1-.4-.1-.4-.1h-.3c0-.1-.3-.1-.3-.1h-.9c0,.1-.7.3-.7.3l-.8.2h-.2l-.3.2-.3.2-.4.3-.3.3h-.1l-.2.2-.4.2h0l-.2.2-.4.3h-.1c0,.1-.2.1-.2.1h-.2c0,.1-.2.1-.2.1h-.5l-.4-.2h-1.2l-1.4.5-.9.3h-.4c0,.1-2.9.6-2.9.6l-1.3.2h-.7c0,.1-.4.2-.4.2h-.8c0-.1-.5.7-.5.7l-6.1-6.6,3.1-.4h.3l-.4-4.8h.6l-.2-.2-.3-.2-.3-.2-.5-.3h-.2c0-.1-.1-.2-.1-.2h0v-.9h0v-1h0v-1.3c-.1,0-1-2.9-1-2.9l-.8-2.3-1.3-2.7-.8-1.1-.5-.9-.2-.3v-.2c-.1,0-.3-.2-.3-.2h-.2c0-.1-.2-.3-.2-.3l3.9-1.2h.3c0,.1.7,0,.7,0v1.2c-.1,0,.4-.1.4-.1l.5,1.2v.4l.4.9h.5c0-.1.5-.1.5-.1l.6-.2h.9l-.5-1.6h.3v-.4l-.5-1.9h0l-.2-1.1.2-1.1.2-1.3v-.8c.1,0,.6-.9.6-.9l.5-1,.3-.7h-1.4c0,.1-.2.1-.2.1h-.6v-.3h-.1v-.2h0l1.2-.6,1.1-.9-.9-1.3-.5-.7v.4l-.2.5-.2.3h-.1c0,.1-.4-.2-.4-.2l-.9,1.6-1.1.5-.8.3-.5.2-.5.4-.9.4-.2-.4h0l.2-.3.5-.7v-.2c.1,0,.4-.3.4-.3l.2-.2.2-.2h0v-.2h0v-.3l.3-.7v-.2h.2v-.2h.1v-.6h0v-.5c-.1,0-.8-.1-.8-.1l-1.2-.4v-.8c.1,0,.3-2,.3-2l.3-3.5h0l.3-.3h1v-.2h.3v.2" vector-effect="none"/>
        <path class="st1" d="M297.3,484.1l.5.2h.3l.4-.5.5-.2h4.3l.2.2.3.7.2.4.2.3h.1l.3.2.7.6h0l.2.2v.4c.1,0,.2.8.2.8l.2.5v.2c.1,0,.2.2.2.2h0v.2h.3c0,.1.3.3.3.3l1.8.7,2.1.7,2.7,1,.9.4,1.2.5h.1l1.1,1.6.4.6.5.8h0l1.9,2.9h0l.6.9h0c0,.1,2.8,4,2.8,4h0v1.1h0v6h0v.3h0v3.8l-.8.8-7.3.5h-5c0,0-5.9-.3-5.9-.3l-8.4-.4-8.7-.6h-1.2l-7.7-1.6-.4-1.2h0v-.2l-.5-1.7.3-7.4-.3-.6-.6-1-.7-.2-.4-.5-1.1-1.6-1.9-1.8.3-.2.4-.2-2.2-4.5h0l3.3-1.7-.3-.4h.2c0-.1-.2-.5-.2-.5h.6l.3.4,2-1,1-.5.8-.6,4.3-3.4,1.1-1,2.4-2.3h0c0,.1.3.8.3.8l.3.7.2.5.3.8.8,1.8v.2c.1,0,3.2-2,3.2-2l.6-.5,1.3-1.5,1-1.2,1.6,1,.2.6h0l.3,1,.4,1" vector-effect="none"/>
        <path class="st1" d="M336.9,427.4l3.2-.2h.4v.3l4.7-1,1.5,3.9v.2h.1c0,.1.1.1.1.1,0,.1.1.2.1.2v.2h.2c0,.1.2.1.2.1v.2c.1,0,.3.2.3.2l.2.3h0l-.8.5,1,1.8-1.1.4h-1.8l-.3,2.2h1.6l.7-.4,1.4-.9h0c0,.1.5,3.4.5,3.4h-.7v.6c-.1,0,.9.2.9.2l.3,2v.9c.1,0,.1.2.1.2h-.4l-1.8-.3-3.1,2.3h-.9c0-.1-2,0-2,0l-7.1,4.7-3.1,2.1-2.1,1.6v1.4h0l-1.9-.8,1.7-2.3.7-.8,1-1.2-1.9-1.6-1.6-2.2-.9.8,1,1.4-.2.2v.5h0c0,.1-.4.4-.4.4l-1.1.5-.9.3-.9-1.4-.9.3-.6.2-.4.2-1-1-.7-.7-.5-.4-.3-.3.6-2.2,1.5-4.7-2.1-.9,1.3-4.4.3-1.1.2-1.7-.8-.4,4.8-3.8,1.6-1.3,4.9-3.8.4,6.1h1c0-.1,2.6-.3,2.6-.3l.5,1,.2.2v-.3h.5v-.6h.3v-.8" vector-effect="none"/>
        <path class="st1" d="M345.3,426.5l-4.7,1v-.4h-.5l-3.2.2h-.6l-.2-.3v.3h-.5v-.3h-.2v-.5h-.4v-.2h.2l-.2-.7h.4c0-.1-.7-3.5-.7-3.5h-1v-.2l-.3-.4-.4-.5-1.4,1.1-4.9,3.8-1.6,1.3-.5-.9-.6-1.1-.6-.9-.7-.8.2-.3.3-.5.2-.6.2-.5.4-.7.2-.5.3-.6.4-.7.4-.9.4-.5.6-.9.3-.8h0c0-.1.2-.1.2-.1,0-.1.2-.2.2-.2v-.4l-.3-.6h0v-.4h-.1v-.6l-.4-.3.3-2.1-.4-.2.2-.5.5-.4v-.6c.1,0,.6-.9.6-.9l1.4-.2v-.2l1.6.3.9.2,1.2.2h4.9c0,.1.9.1.9.1v1.8c.1,0,.2.8.2.8v.8l.2.8v1c.1,0,.2-.1.2-.1h.1c0-.1.2-.3.2-.3l.7-.6h.2c0-.1.6-.5.6-.5l.5-.3h.2v-.2l.4-.3v-.5l1.8-.2v.2h-.1v.3c-.1,0-.2.1-.2.1h0v.3h0v.2h-.2v.2h0v.3h0c0,.1.2.4.2.4h0v.2h0v.2h0v.2h0v1.8c.1,0,.2.8.2.8v.4l-.2.4.3,1,.3,1.1.6-.2.8,1.7.4,1.1.7,2.1.7.8v1l-.2.2h0l-.2.2h-.3l-1.1.2" vector-effect="none"/>
        <path class="st1" d="M298.4,222.4l1.6,1.9.2.2,1,1,.9,1h.1c0,.1,1.3.5,1.3.5l.7,1.2-.9.6h0l1.5,3.4h0c0,.1-2.1,2.8-2.1,2.8l-1.9,2.6h-2.5l-1.5-3.7-1-2.4-2.7.2h-2.6c0,.1-1.8.2-1.8.2h-.4c0-.1-.2-.8-.2-.8h0v-.3h-.1c0-.1-.2-.8-.2-.8h0l.3-.4.3-.2.3-.2h.1l-.7-4.6-.3-1.7,1.6-.2h.1c0,.1,1.9,0,1.9,0v-.4l2.8-2v-.3l1.6-.7,1.6,1.9,1.1,1.3" vector-effect="none"/>
        <path class="st1" d="M541.2,385.5h.4l.7-.2-1.6,14.7-.2,1.5-.3,2.6-.2,2.1-.3,2.5v1.4c0,0-1.4.1-1.4.1l-1.8.2-1.6.2-1.9.2v1.3l-.2,1.2-.3.5-1.3,1.7-1.1,1.5-.6.7-.6.8-.8,1.2h-.3v5.2h2.3c0,.1.2.3.2.3h0c0,.1,0,.3,0,.3v.6h0v.7h0c0,.1,0,.3,0,.3v.5h0v.2h0v.3h0v.2h.7c0,.1.3.3.3.3l.3.2.3.2h0l.2.2v.5h0v.3h0v.2c0,0,.3.2.3.2h0v.3h0l.2.6.4,1.1v.2h0v.3h0c0,.1-.2.3-.2.3v.2c0,0-.2.2-.2.2v1.7c0,0-.3.4-.3.4v.3c0,0-.4.4-.4.4v.2c0,0-.9,1.2-.9,1.2l-.5.8-.7,1-.6.9-.6.8-2.4.3v-.9h0v-.5h-.5v-.5h.3v-.2c0,0,0-.1,0-.1v-.2c0,0-.4-.2-.4-.2l.2-.2v-.5l-.3-.5.2-1.1-.3-1.3-.2-1-.3-1.3-.2-.8-.2-.7-.2-1.5-.2-1.4-.2-1.8-.2-2-.3-.4v-1l-.3-2.3v-1.9h-6.4v-1.2c0,0,.2-.3.2-.3v-.3c0,0,1-2.2,1-2.2l-.2-1.2.7-1.2v-.2l.5-.6v-.2c0,0,.4-1.1.4-1.1l.5-1.9.3-1.3.5-.8.7-1.3.8-1.4,1.1-2.1.9-1.8,2.6-5.3v-1.5l2.9-7.5-2-3.1h0v-.5h0v-.3h0v-.2h0v-.4h0v-.2h0v-1.4l8.1.6-.5,3.9,1.4.4.8.3h.5l1.8.3" vector-effect="none"/>
        <path class="st1" d="M413.6,181.5l.4.2h.3c0,.1.2.3.2.3l.4.3h0v.2h0v.5l.2.2v.3c.1,0,.3.3.3.3l.2.3v.3c.1,0,.3.3.3.3l.2.3v.2c.1,0,.2.1.2.1h.1v.2h0l.2.3.2.3v.2h.2l-.3.2v.2c.1,0,.3.4.3.4l.2.4v.4c.1,0,.3.4.3.4v.3c.1,0,.3.2.3.2l.2.2.3.3.2.2.3.3.2.4.2.5v.2l.2.3.2.3v.2c.1,0,.3.2.3.2h.2c0,.1.2.3.2.3h0l.2.2h.2l.2.2h.3c0,.1.1.3.1.3l.2.2.3.3.2.2v.2c.1,0,.2.1.2.1h0v.5h0c0,.2.1.2.1.2h.5l.3-.2h.2c0-.1.3-.3.3-.3l.2-.2.5-.5.3-.3.3-.3h.5c0-.1.1-.1.1-.1h.6c0-.1,1.1-.3,1.1-.3h.8c0-.1,1.5-.4,1.5-.4h.5c0-.1-.8,1.5-.8,1.5l-1.1,2.3-.7,1.5-.3.6-1,2-.8,1.7-.5.6-1,1.2-.3.4-.9,1-.7,2-.7,1.7v.3c-.1,0-.2.2-.2.2l-.2.2v.2c-.1,0-.4.3-.4.3v.2c-.1,0-.2.3-.2.3v.4c-.1,0-.3.6-.3.6l-.2.3v.2c-.1,0-.3.1-.3.1h-.2c0,.1-.2.3-.2.3l-1,.6-.4.3-.5.4-.2.2-.5.5h-.2c0,.1-.4.4-.4.4l-.6.3-.5.3-.4.2-.5.4-.3.3-.3.2-.3.2-.2.3-.3.3h-.2c0,.1-.3.3-.3.3l-.3.2-.3.3-.3.4-.3.3-.2.3-.3.4-.3.3h-.1c0,.1-.4.3-.4.3l-.7.4-.6.4-.4.2-.4.2h0c0-.1-.1-.3-.1-.3v-.3c-.1,0-.3-.3-.3-.3l-.2-.4-.2-.4v-.3c-.1,0-.3-.3-.3-.3l-.3-.4-.3-.4-.2-.3-.2-.3-.2-.3v-.3c-.1,0-.2-.3-.2-.3v-2.7c-.1,0-.4-.6-.4-.6l-.2-.5-.2-.5-.2-.4-.2-.5-.2-.4v-.5c-.1,0-.2-.6-.2-.6v-.2h0c0-.1-.4-2.5-.4-2.5h.1v-.4h0v-.5h-.1v-.3l-.2-.2-.2-.3-.2-.3v-.2c-.1,0-.2-.2-.2-.2v-.2l-.2-.4-.3-.9v-.3c-.1,0-.2-.1-.2-.1h0v-.3h0v-1.5h0v-1h0v-.4h-.2v-.3l-.2-.3-.2-.4-.2-.5h0v-1.1c-.1,0-.9-.5-.9-.5l-2.6-1.3-2.7-1.4-2.7-1.3-.9-.4h0l3-2.4,1.6-1.3,1.6-1.2h.7v-.2h0c0-.1.4-.4.4-.4h.2c0-.1.4-.4.4-.4l.4-.3.5-.3.5-.3.5-.3.3-.2.5-.2.4-.2.5-.2.6-.2.7-.2.8-.2.7-.2.6-.2h.5c0-.1.4-.1.4-.1,0-.1.4-.3.4-.3h.4c0-.1.3-.2.3-.2h.7c0-.1.3-.1.3-.1h.6c0,.1.2.1.2.1h.4v.2h.4v-.2h.8v-.2h.1v-.2h.1c0,.1,2.2.6,2.2.6" vector-effect="none"/>
        <path class="st1" d="M440,156.2v.5c-.1,0-.2.4-.2.4v.5l-.2.4v.4h0v.3h0v.7c-.1,0-.1.5-.1.5h0v.9h0v1.7c.1,0,.3.5.3.5l.7,1.6.2.4.2.5.2.7v.5c.1,0,.1.4.1.4.1,0,.2.3.2.3h0v.2h0v.5h0v.5l-.2.5h0v.5l-.3.5-.2.8v1.3l.2.3.2.4v.2c.1,0,.2.1.2.1v.4c.1,0,.1.2.1.2l.4.4.4.5.3.2h0l.2.3.6.5.3.3.2.3v.2l.3.5.6,1.8v.5c.1,0,.2.2.2.2v.4c.1,0,.3.4.3.4h0l.2.4h0l.2.5h0c0,.1.2.5.2.5h0c0,.1-.3.2-.3.2l.5,1.2v.7h0v.2h0c0,.1.1.3.1.3l.2.3v.2h.3c0,.1-.3.8-.3.8h0v.3h0v1.7h0c0,.1-.4,1.7-.4,1.7v.2l-.3,1-.3,1.3-.2.8v.6h-.9c0-.1-.1-.1-.1-.1h-2.2c0-.1-.8-.2-.8-.2h-.3c0-.1-.1-.2-.1-.2v-.2c-.1,0-.2-.3-.2-.3l-.2-.4h0v-.2h0l-.4-.5-.3-.3h-.1c0-.1-.1-.3-.1-.3l-.2-.5-.3-.8-.2-.4v-.2c-.1,0-.2-.1-.2-.1l-.2-.2h-.1c0,.1-1,.8-1,.8l-.5.4-.6.4-.3.2h-.4c0,.1-.6.2-.6.2h-.7c0,.1-.4.1-.4.1,0,.1-1.2.7-1.2.7l-.7.4h-.4c0,.1-.5.1-.5.1,0,.1-1.5.4-1.5.4h-.8c0,.1-1.1.3-1.1.3h-.6c0,.1-.1.2-.1.2h-.3c0,.1-.2.2-.2.2h0l-.3.3-.3.3-.5.5-.2.2-.3.2h-.2c0,.1-.3.2-.3.2h-.6v-.7h-.1v-.4c-.1,0-.4-.2-.4-.2l-.3-.3-.2-.2h-.1v-.2h-.3c0-.1-.2-.1-.2-.1l-.2-.2h-.2v-.2l-.2-.2h-.2c0-.1-.2-.3-.2-.3v-.2c-.1,0-.3-.3-.3-.3v-.3c-.1,0-.2-.2-.2-.2l-.2-.5-.2-.4-.3-.3-.2-.2-.3-.3-.2-.2-.2-.2v-.3c-.1,0-.3-.4-.3-.4v-.4c-.1,0-.3-.4-.3-.4l-.2-.4v-.2c-.1,0,.2-.2.2-.2l1.1-.8.2-.2h1.1c0,.1.2.1.2.1h.8c0,.1.7.1.7.1h1.6c0-.1.2-.3.2-.3l.2-.5v-.3c.1,0,.2-.4.2-.4v-.6c.1,0,.1-.3.1-.3v-.4h0v-1.2h1.6c0,.1,0,0,0,0h0v-.2h0v-.3h0v-.3h0v-.3h0v-.2h0v-.5h-.1c0-.1-.2-.1-.2-.1h-.5c0,.1-.1.1-.1.1v-.4h0l.5-1.2.2-.5.7-2.3h-1.1l-3-.6h0v1c.1,0,.1.2.1.2l.2.3v.2h.1c0,.1-.3.1-.3.1h-.4c0-.1-.5-.1-.5-.1h-.5l-.4.3h-.3l-.8.2h-.6c0,.1-.6.2-.6.2h-.5l-.8-5.2h0l.3-.3h0l.2-.3h.1c0-.1.1-.1.1-.1v-.3l.3-1.2h-.2l.2-.3.3-.7h.1v-.2c.1,0,.1-.2.1-.2v-2.4l-.2-.2v-.3c-.1,0-.7-1-.7-1l-.3-.5-.3-.4h.2c0-.1,1.8-1.2,1.8-1.2h0l4.4-2.3h.3c0-.1.2-.1.2-.1l.3-.3h.2c0-.1.1-.2.1-.2h.5c0-.1.6-.3.6-.3h.5c0-.1.2-.2.2-.2h.6l.2-.2h.1c0-.1.2-.1.2-.1h.1c0-.1,1.1-.4,1.1-.4l.7-.2.9-.5.3-.2.2-.2h0v-.2h.9l.3-.2h0l.5-.3h.2c0-.1.5-.4.5-.4l.3-.2.5-.2h1.1l.3-.2h0l.3-.2h0l.3-.2.6-.4.3-.2h.1l.3-.2h.7c0,.1.3.1.3.1h0v.5c.1,0,.3.5.3.5h0v.2h0v.2h0v1.1" vector-effect="none"/>
        <path class="st1" d="M375.9,325l.3.8.9,2,.4.9h-.3v.9c.1,0,.2.4.2.4v1.8l.6-.2v.6c-.1,0-.1.4-.1.4-.1,0-.3.3-.3.3v.2l-.3.3v.2h-.2c0,.1-.1.1-.1.1,0,.1-.1.4-.1.4v.4c-.1,0-.1.3-.1.3v1.3l.5.9.7,2.6h-.5c0,.1-.2.1-.2.1l-.6.2h-.1l-.6.2h-.2l-.5.2h-.2l-.5.2-.7.2h-.4l-.4.2h-.4l-.4.2h-.5c0,.1-.2.1-.2.1l-.4.2h-.4l-.4.2h-.4l-.4.2h-.2l-1.1.3-.6.2-1.7.5h-.3l-.3.2-1.1.3-1.3.3h0l-9.7,2.4v-.4h-.5v-.7l-.7.2h-.1l-.8-1.3-.3-.5-.5-.7-.3-.4-.2-.2-.5-.7-.3-.4-.2-.3-.3-.4-.2-.3-.3-.4-.5-.7-.5-.7-.3-.4h0v-.6l-.2-.7v-.8h0v-2.7c.1,0,.2-.7.2-.7v-3c-.1,0-.1-.3-.1-.3l-.2-.9v-.8h-.1l2.1-.5.8-.2h.3l.5-.2h.4l.5-.2.3,1.8.2,1.2,11.4-2.9h.2c0,.1,2.8-.2,2.8-.2v-.9h1.4c0-.1,1.7-.9,1.7-.9l.3.7,2.3-1h0l.3-.2,3.1-1.4-1.1-2.8h.4l2.1-.4.2.7.2.5.2.4.3.5.3.6.2.3.4.5-1.6,1.2-.6.4.2.5" vector-effect="none"/>
        <path class="st1" d="M335.3,276.6l-3.5,1.1-2.6.7h-.3l-.3.2h-.7c0,.1-.9.3-.9.3l-1.1.2-5.3.8-.4-2.4h0l-.6-2.4-1.7.4.3,1.2-3.9.7v-.3h0l-.3-1.8-.3-1.2,4.2-.9-.4-1.6,2.7-.5.3,1.2,11.6-3.1.2.4.2.3h.1c0,.1.2.3.2.3h.2c0,.1.1.2.1.2h1.1l.3-.2h.4c0-.1.6-.3.6-.3v.7c-.1,0-.2.5-.2.5v.6l-.2.7v.8c-.1,0-.1.5-.1.5v1.7c.1,0,.1.4.1.4v.7" vector-effect="none"/>
        <path class="st1" d="M444.5,217.5l.6.6.4.4.6.7h0v.3l.2.4.5.7,1.3,1.8.5.6v.3h0l.5,1.1.4,1h.5l.3.9,1.4-.2.2.8,1-.2h.5c0-.1,1.6-.4,1.6-.4l1.6-.3-.5-1-.7-1.5,1.2-.4-.4-1.3.7-.2,2.2-.4,1.8-.4v.2h.7v3.8c.1,0,.3.5.3.5h-.7l.6,1.4,2.1-.6h.6l.2.2.2.2.2.3v.6h.5l.4,1.8h-.9v1.6l-.2.9-.4,1.2,1.4,1.6,1.5-1,1.6-1.4,1.3-.8,1.6-1,2.3,3.4,1.2,2,1.1,1.8,1.2,1.9-.7.6v2.1l.9,1.2-1.1.2.5,1.3.5,1.2.4,1.1-.2.5-1.2.2-1.3.2-.4.6-1,1.9-1,2-.9,1.7-.6,1.3-.4,1v1.9c.1,0,.2,1.3.2,1.3v.3h-.5c0,.1-.4.3-.4.3h-.2l-.3.2h-.3c0,.1-.2.2-.2.2h-.2l-.2.2-.3.2-.2.2h-.1l-.2.3-.2.3-.3.2-.2.2-.3.3-.2.2h-.1c0,.1-.2.3-.2.3l-.4.3-.2.2-.2.2-.2.2-.4.2-.5.3-2.2,1.3-1.9,1.1-1,.7-1.5,1.4-.7.9-.4.5-1.1,1.6-1.1,1.6-.2.4-.2.3-.5.6-.9.8-1,.7-1.1.8h-.3c0,.1.1-.4.1-.4l.2-2.1.3-1.3v-1.6c.1,0,.2-1.6.2-1.6l.3-3.2-1-.7-.9-.8-.7-.6-1.4-1.6-1.2-1.6-.5-.9v-.5l-.3-1-.3-1.1-.5-1.2-.2-.4v-.3c-.1,0-.3-.4-.3-.4v-.3c-.1,0-.2-.3-.2-.3v-.3h-.2v-.2c-.1,0-.3-.3-.3-.3l-.2-.2-.2-.3-.2-.3v-.3c-.1,0-.3-.4-.3-.4v-.4c-.1,0-.2-.5-.2-.5v-.5c-.1,0-.3-.2-.3-.2l-.3-.4-.6-.5-.9-.6-.8-.4-.4-.3-.2-.2-.2-.2-.3-.3-.3-.4-.3-.3h0v-.5c-.1,0-.2-.3-.2-.3h0c0-.1-.1-.4-.1-.4h0c0-.1-.2-.4-.2-.4h0v.2h-.1l-.2-.2-1.1-.8-1.2-.8-.4-.3h-.2v-.2h-.1c0-.1-.3-.5-.3-.5l-.2-.2h-.1c0-.1-.1-.2-.1-.2h0c0-.1-.3-.1-.3-.1,0-.1-.2-.2-.2-.2h-.5c0-.1-.2-.2-.2-.2l-.9-.2-.7-.2h-.5c0-.1-.2-.2-.2-.2h-.5c0-.1-.1-.1-.1-.1h-.2c0-.1-.1-.1-.1-.1l-.2-.2-.2-.2h0l-.2-.2-.3-.2h-.4c0-.1-.2-.1-.2-.1h-.8c0-.1-.4-.1-.4-.1,0-.1-.1-.1-.1-.1h0l-.5-.2h-.3c0-.1-.6-.4-.6-.4l-.5-.2h-1.2l-1.1-.2h-.1c0-.1-.1-.3-.1-.3v-.2c-.1,0-.2-.1-.2-.1v-.2l-.2-.3v-.6h0v-.3h0c0-.1.2-.2.2-.2l.4-.3.3-.2.3-.2.6-.5.5-.4,1.1-1,.2-.2-.3-.5h0v-.2h0v-.8h0v-.5l.2-.4v-.2h0v-.4h0v-.4l.2-.7.2-.6v-.2l.2-.2v-.2c.1,0,.2-.1.2-.1l.4-.4.4-.4.2-.2h0c0-.1.1-.6.1-.6v-.2h.3l.5-.6h0v-.2h.1l.6-.4.7-.4.9-.5h.2v-.2h.3c0-.1.2-.3.2-.3v-.2c.1,0,.3-.3.3-.3h0v-.5h.1c0-.1.1-.1.1-.1,0-.1.1-.3.1-.3l.2-.2h0v-.8h.1v-.6c.1,0,.3-.2.3-.2l.2-.2h.3l.3-.2h.8c0-.1.2-.1.2-.1h.2l.4-.3h0l.7-.7.4-.4.5-.5.3-.3,1.2-1.1h.1c0-.1.2-.3.2-.3l.2-.2h.1l.4-.3.3-.2.8-.5,1-.6h.2c0-.1.4-.3.4-.3h1.4v.2h0v.3h0c0,.1.4.5.4.5l.7.5.7.6" vector-effect="none"/>
        <path class="st1" d="M329.5,346.2v.4c.1,0,.5.7.5.7v.3c.1,0,.4.5.4.5l.2.4h0c0,.1.1.9.1.9v.6c.1,0,.2.4.2.4h0l.2,1.4-4.1,1.3.3,1.6h.4v1h-.5c0,.1.1.6.1.6h0v.8h-.4v.4h-.2v.4h-.2v1.3h-.8v.7h-5.2v.9c-.1,0-.4,1.2-.4,1.2l-4.5-.4.4-1.9-1.2.3.4-1.5-.4-1.2v-.2l-1-3.1h0c0-.1.6-.3.6-.3h0l-.4-.8-.8-1.4-1.1-1.9-.5-.8.7-.4.7-.4.7-.4.7-.4.7-.5.6-.3.7-.3.7-.3.6-.3h.1l.3.6h0c0,.1,6.4-1.9,6.4-1.9h.2v-.2l-.2-.8h0v-.8c-.1,0-.4-.7-.4-.7l2-.6.8-.2.6-.2,1.2,3.8.6,1.6" vector-effect="none"/>
        <path class="st1" d="M337.3,283.3v.3l.3.5.2.4.2.5v.3h.2c0,.1.2,0,.2,0h.3c0-.1.2-.1.2-.1h.2l.3.2.3.2h1.1l.8-.2.8-.2h.5v.6l.3.7.2.4.3.4.4.2h.6l.5-.2.5-.2.6-.4h.2c0-.1.4-.2.4-.2h.3l.3,2.2h-.4l.5,2.9h-.2c0,.1-.4.3-.4.3h-.3c0,.1-.3.3-.3.3h-.4c0,.1-.2.2-.2.2h-.3c0,.1-.6.1-.6.1,0,.1.5,2.5.5,2.5l.7,3.3-1.7.3v.2h-.5c0-.1-.2-.4-.2-.4l-.2-.2-.3-.3-.2-.2h-.4c0,.1-.7.4-.7.4h-.4c0,.1-.5.4-.5.4l-.3.2-.5.3-.3.2-.3.3-.3.3-.4.4-.3.4v.2c-.1,0-.2.2-.2.2l-.2.3-.2.3-.3.3-.2.2.4,1.8-.6.2v.3l-.4.2.3,1.8v1c.1,0,.2.3.2.3v.2l.2.4.2.4.4.5.9.8-.6.4-.4.3-.6.4-3.3.6v1l-.2.5v1c.1,0,.3.7.3.7v.3c.1,0,.3.3.3.3l.2.3.2.3-.2.2-.2.2-.5.3h-.4c0,.1-.5.2-.5.2h-3.2c0-.1-.7-.2-.7-.2h-.6l-1-.2h-3.3c0,.1-.5.1-.5.1h-.4c0,.1-.6.1-.6.1h-1.5v-.3l-6.7-1.1h-.8c0,.1.2-2.1.2-2.1h-.2c0-.1-.1-.1-.1-.1v-.2c-.1,0-.3-.2-.3-.2l-.3-.3h-1.3c0,.1-.2.1-.2.1h-.4c0-.1-.6-.3-.6-.3h-.3l-.4-.2h-.5c0-.1-.3-.2-.3-.2h-1.5l-.3-.2h-.3c0-.1-.4-.3-.4-.3h-.3c0-.1-.8-1.2-.8-1.2h0l-.3-1v-2.2c.1,0,.1-1.3.1-1.3v-.5h0l1.8-.2v1.5l2.3-.2v-2.4l2.1.2v-2.2l.2-.7,2.7.2v.5l1.8.5.2.6,2-.8-.4-4,1.5-.5.2,1,2.6-.5-1-4.3-1-2.9-1.4-3.7-.2-.2-.6-.3-.5-.2h-.3c0-.1-.2-.2-.2-.2h-.5c0,.1-.4.3-.4.3h-.4l-.5-.3-.2-.3v-.6c-.1,0-.1-.5-.1-.5v-.9l-.2-.4-.4-.3-.3-.2.2-.2.8-.4,2.5-.4h0c0,.1,1,0,1,0v-.3h.3l.6,3h.4v.2h0v.2l.2.2.3.2-1.4,1.6h.1c0,.1.4-.3.4-.3l.6,1.1h.7c0,.1.2.1.2.1,0,.1.3.3.3.3l.3.3.4.3h.2c0,.1.3.4.3.4l2.3-.4-.2-1.2,1.8-.5.4.9v.2h0c0,.1.2.1.2.1l2.3-.3v.6c.1,0,3.5-.5,3.5-.5v.2h1l-.9-4.5,2.7-.7.2.8.8-.2h.3" vector-effect="none"/>
        <path class="st1" d="M404.1,210.5l.2.5.2.4.2.5.2.5.2.6v.4c.1,0,.2.4.2.4v2.5c.1,0,.3.3.3.3l.2.3.2.3.3.4.3.4.2.3v.3c.1,0,.3.4.3.4l.2.4.2.3v.3c.1,0,.3.2.3.2h0c0,.1.4,0,.4,0h.1c0,.1.2.4.2.4l.2.3.2.3.3.3.2.2.3.2.4.2.4.2h.4c0,.1.4.2.4.2h.3l.3.2h.4c0,.1.3.2.3.2h.4c0,.1.3.2.3.2h.3l.3.2h.3c0,.1.3.3.3.3l.4.3.3.3.3.3.3.4h0c0,.1-2.4.9-2.4.9l-3.6,1.2.3,1.5-2,.6.4,1.8-2.9.7.2,1.5.2,1.9.8-.2.5,3.2.6,3.7v.2l-2.6,1.4-.8.4-.8.4-.6.3-1.3.7-1.3.7-1,.6-1.5.9-1.6,1-1.5,1-1.8,1.1-1,.6-1.2.8-1.5,1-1.7,1.1-2.2,1.5-1,.6-.5.3-.7.4-.7.3-.8.4h-.4c0,.1-.7.4-.7.4l-.6.2-1.2.4-1.2.4-.6-3-.4-2.1v-1.3l-.5-1.8-3.1.8h0v-1.5c.1,0-.4-1.9-.4-1.9l.2-2.1.2-2.2v-1.9l-.2-2.6-.2-1.9h.3c0-.1.5-.1.5-.1,0-.1.3-.2.3-.2v.6c.1,0,.9-.3.9-.3h0c0-.1.4-.3.4-.3v-.4c-.1,0,1.3-.5,1.3-.5l2.1-.7-.7-3.1.5-1.2h.4c0-.1.5-.2.5-.2l.4-.2.5-.3.4-.2.4-.2.4-.2.4-.2.5-.2h.4c0-.1.2-.1.2-.1v-.2l-.2-.6v-.3l-.2-.5v-.4c-.1,0-.2-.7-.2-.7l-.3-1.1v-.4c-.1,0-.3-.6-.3-.6v-.3l-.2-.6v-.8c-.1,0-.1-.7-.1-.7v-1.1c.1,0,.1-.6.1-.6v-1.5c-.1,0-.1-.5-.1-.5-.1,0,2.8-.4,2.8-.4l3.3-.5,3.1-.4,2.7-.4,2.2-.3-.4-2-.2-1.2v-.6c-.1,0,0-.1,0-.1v-.2c.1,0,.1-.1.1-.1v-.2l-.2-1.2h.8l1.1-.3h.9c0-.1.2-.1.2-.1h1.3c0-.1.7-.1.7-.1h.4l2-.8,1.3-.4v.8c.1,0,.1.5.1.5.1,0,.3.4.3.4" vector-effect="none"/>
        <path class="st1" d="M402.9,254.4l1.7,3,3-.3v.7c.1,0,1,4.5,1,4.5v.9l.4,1.4h.8v-.2h0l.3-.2h.2l.4-.3.5-.2h.8c0-.1.4-.1.4-.1h.5v.8l2.4,1.3.9.6.6.2h.3c0,.1.5-.8.5-.8l.4.2.2-.4.4.2,1.5.7-.2,1.5-.3,1.7v.2c-.1,0,5.9,4.4,5.9,4.4l1,.8v.9l.4.3-1.6,2-1.8-1.6-.7.8-1.1-1-.4.5-1-.7-2.1,2.8,2.1,1.8.5.2.7.2,2.2,2-2,2.4,1.6,2.5.3,4.5h.3l.5,1.8.8,2.9-1.9,1.3h0l-1.6,1.1,1,1.9-2.4,1.8-3,2.1-2.2,1.5-1.9,1.2-1.9,1.2h-.2l-2.1.7-1.9.6-.7.2-2.2.7-.8.3-1.7.8-1.7.8-1.5.7-1.4.7-1.6.7-.7.3-2.5.6-1.4.3-1,.3-2.2.8-.6.2-.9.4-.7.3-.7.3-1.1.6-1.7,1.1-1.9,1.4-2.3,1.6-.5-.4-.4-.5-.2-.3-.3-.6-.3-.5-.2-.4-.2-.5-.2-.7-.2-.6v-.4c-.1,0-.4-.6-.4-.6l-.2-.6-.2-.7v-.4c-.1,0-.2-.4-.2-.4v-.7c-.1,0-.2-.3-.2-.3v-1.1c-.1,0-.6-5.7-.6-5.7v-1.7c-.1,0-.1-.7-.1-.7v-3.5c.1,0,.3-.8.3-.8v-.9h0v-1.4c-.1,0-.1-.2-.1-.2v-.2h1.2l.6-3.8h-.5c0,.1,0-.3,0-.3h.6c0-.1.7-4.9.7-4.9l.9-5.6,3.1.3v-.9l.7-.6h-.2c0-.1-.1-.3-.1-.3l-.4-.5-.2-.2-.2-.2-.2-.2-.2-.2-.4-.3-.4-.3-.2-.2-.2-.3-.3-.3-.2-.2-.3-.3-.4-1-.5-1.3-.3-1-.2-1.1h.1v-.3h0v-.2h0v-.2h0v-.2l-.2-.2h0v-.3h0c0-.1.1-.1.1-.1,0-.1.2-.2.2-.2h0v-.2h0v-.2h.1c0-.1.2-.1.2-.1h.2l.3-.2h.2c0,.1.5.3.5.3h1.1l.3-.2,1.3-.8h.3c0-.1.4-.2.4-.2h.4l.2-.2h0v-.2l.2-.2h.3c0-.1.9-.1.9-.1h.2l.4-.4.2-.3v-.3h.1c0-.1.1-.3.1-.3h.2c0-.1.2-.1.2-.1h.5c0,.1.5.1.5.1,0,.1.3.2.3.2l.4.2.8.4.5-.4.6-.4-3.4-2.6h0l1.3-2.1v-4.6c-.1,0,1.8-.4,1.8-.4l1.1-1.1h0c0-.1,1.6-1.8,1.6-1.8l1.6-1.7v.2c.1,0,.2.2.2.2v.2l.2.3v.3c.1,0,.2.3.2.3v.2l2.2-.9,2-1,1.4-.8,2.4-1.3,1.2,2.1" vector-effect="none"/>
        <path class="st1" d="M491.1,184v2c-.1,0-.3.8-.3.8l1.2.4h.7c0,.1.1.4.1.4v.2h.1v.5h0v.2h0v.3h0v.3c-.1,0-.4.7-.4.7v.2h-.2v.3l-.2.2-.2.2-.3.3v.2c-.1,0-.7.7-.7.7l-.2.3h0l.2.5.9-.4.5-.4.5-.2.8-.3,1.1-.5.9-1.6.4.4h.1c0-.1.2-.5.2-.5l.2-.5v-.4l.5.7.9,1.3-1.1.9-1.2.6h0c0,.1.1.1.1.1v.2h0c0,.1.2.1.2.1h.1c0,.1.2.1.2.1h.1c0-.1.2-.1.2-.1h1.3c0-.1.1-.1.1-.1h0l-.3.7-.5,1-.4.9v.8c-.1,0-.3,1.3-.3,1.3l-.2,1.1.2,1h0l.5,2v.3h-.4l.5,1.6h-2.3c0,.1-.2.1-.2.1l-.4-.8v-.4l-.6-1.2h-.5c0,.1.1-1.1.1-1.1h-1l-3.9,1.2.2.2h.2c0,.1.2.4.2.4v.2c.1,0,.4.3.4.3l.5.9.8,1.1,1.3,2.7.8,2.3.9,2.9v1.2h.1v.9h0v.9h0v.2h.1l.2.2.5.3.3.2.3.2h.2c0,.1-.6.2-.6.2l.4,4.8h-.3l-3.1.4h-.2l1,7.8-3.8.9-1.3,1.1-1.1.6-.8-3-1.8.2-.4-2.9h-1c0,.1,0-.1,0-.1l-1.4.2h-1.1c0,.1-.3-1.3-.3-1.3l-.2-1.2h-4.2c0,.1-1.2.1-1.2.1l-1,.3-2,.6-1.2.4h0v-.2h0v-.2h0l-.3-.4h-.6c0,.1-.2.2-.2.2h-.8l-.3-.2-.4-.2-1.2-.7-.3-.2-.4-.3-.4-.3-.4-.3-.3-.3-.3-.4h0c0-.1-.2-.4-.2-.4h0v-.6h0v-.3h0c0-.1.2-.1.2-.1,0-.1.4-.3.4-.3l.3-.2.4-.2.3-.2.4-.2.4-.2h.4c0-.1.5-.3.5-.3h.5c0-.1.6-.2.6-.2h.1l-1.1-2.7v-.2l-.2-.7-.2-.3v-.2l-.5-1.4-.5-1.8-.2-.7.4-.2-.5-2.5,1.7-.3v-2.8c-.1,0-3.2-3.4-3.2-3.4h0v-1h0v-.3c-.1,0-.5-.9-.5-.9v-.2c-.1,0-.2-.1-.2-.1l-.2-.2-.3-.2-.8-.3-.4-.2-.4-.3-.2-.2v-.2c-.1,0-.2-.2-.2-.2v-1.4c.1,0,.5-.7.5-.7l.2-.4.3-.5h0v-.8h1l1.3-.3v-.2c-.1,0-.4-.3-.4-.3l-.3-.4-.3-.4-.2-.4v-1.4h0c0-.1.3-.1.3-.1v-.3l.3-1.2.4-1.5h0v-.2h0v-.6h1c0,.1.4.2.4.2l.6.2.6.2h.8l.4-.2.3-.2h1.7l.4-.2.3-.3.3-.2h.3c0-.1.4-.4.4-.4l.3-.2h.3c0-.1.2-.2.2-.2h.8c0-.1.4-.1.4-.1l.3.2h.3c0,.1.2.3.2.3h0l.5.4.5.4.3.4.2.3v.2c.1,0,.4.4.4.4l.2.4v.3c.1,0,.3.2.3.2h.2v.4h0v.3l.2.2.2.3.2.2.2.2h.2c0,.1.2.3.2.3v.2h.2l1-.4,1,.3,1,.3.9-.6.6-.4.3-.3h.2c0-.1.2-.2.2-.2l.6-.5.3-.4-.9-1.2,2.1-2.2.6-.7.6.8,1.1-1.6,1.2-.9,1.9-1,.4-.3h0l-.3,3.6" vector-effect="none"/>
        <path class="st1" d="M312.1,259.8l.4,3,1.1-.4,1.4.4,3.3.8,1.1,4.1-1.3.3-1,.2h-.3l-.7.2-1,.2-1,.2h-2.1v.7c.1,0,.3.5.3.5h0l-5.8,1.3h-.2v-.5c-.1,0-.3-.2-.3-.2l.3-.2-1.6-2.2h0l-1.5.4h-.8c0,.1-.3.1-.3.1,0,.1-.4.2-.4.2l-.4.2h-3.1v-1.5h0v-1.4l.2-.2v-.5h.2v-.3h0v-.2h0v-.3h0l.2-.4.2-.3h0v-.5l.2-.3h0v-.2c.1,0,.3-.2.3-.2v-.2h0l2.2-.2h0v-.3h.1c0-.1.1-.2.1-.2h.3c0-.1.2.4.2.4l4.9-.8v-.2h1.3l.4.2.2-.6h.6c0-.1.4-.3.4-.3h.3v-.5l.9-.5" vector-effect="none"/>
        <path class="st1" d="M304.7,268.2l1.6,2.2-.3.2.2.2v.2c.1,0,0,.1,0,.1h0v.2h.2l5.8-1.3v.8c.1,0,.1.3.1.3v.3c.1,0,.1.3.1.3h-.4c0,.1-.2.2-.2.2h-.3l-.3.2h-.2v.2h-.1l-4.1,1-7,.4h-.9c0,.1-.8.1-.8.1l-.5-1.1.2-3.5h3.7l.4-.2h.4c0-.1.3-.2.3-.2h.3c0-.1.3-.1.3-.1h.2l1.5-.4h0" vector-effect="none"/>
        <path class="st1" d="M309.4,249.6l1.3,3.6,1.9-.9,2.7-1.3,2.5-1.3.7,3.1h.7c0-.1,0,0,0,0v.8c-.1,0-.3.4-.3.4l-.2.2-.3.3-.3.3-.4.2-.4.2-.4.2-.4.2-.5.3-.5.2-.4.2-.4.3-.4.3-.3.2-.4.3-.3.3-.3.3-.2.4v.3c-.1,0-.2.2-.2.2v.2l-.2.2h.3l4.3-.9.8,2.6h-.7c0,.1.2.8.2.8h.6c0-.1.4,1.6.4,1.6l-3.3-.8-1.4-.4-1.1.4-.4-3-1,.5v.3h0c0,.1-.3.1-.3.1,0,.1-.4.3-.4.3h-.4c0,.1-.2.1-.2.1l-.2.6h-.4c0-.1-.3-.2-.3-.2h-1c0,.1-4.9.9-4.9.9l-.2-.5h-.3c0,.1-.1.2-.1.2h-.1v.3h0c0,.1-2.2.3-2.2.3h-1.1l-.3-1.2.5-2.1v-.2l1.5-1.7.8-.8.5-2.2.5-2.4,1.1-.4,5.8-2.1" vector-effect="none"/>
        <path class="st1" d="M309.6,218.7l.8,2.8.2-.2.2-.2.2-.2.2-.3v-.3c.1,0,.2-.3.2-.3l.2-.2.3-.3h.4c0-.1.6-.3.6-.3h1.8c0,.1.4.1.4.1h.8v.5h0l-3.8,1h-.2l.3,1-.9.4-.4.4.2.5.5,2.7-.2.2-1.5,2.5v.6c.1,0,.1.3.1.3v.7h-.1v.2h0v.5c-.1,0-.1.2-.1.2v.2c-.1,0-.1.2-.1.2h-.7c0,.1-.4.4-.4.4l-.4.3-.4.4-.3.2h0v.2h0l-1.2,1.1-1-2.1h0l-1.5-3.5h0l.9-.6-.7-1.2-1.3-.4h-.1c0-.1.1-.4.1-.4l-1.8-1.9v-.3c.1,0,.3-.4.3-.4v-.3c.1,0,.2-.3.2-.3v-.5c.1,0,.2-.5.2-.5v-.7c.1,0,.2-.7.2-.7v-2.7l-.2-.9v-.5l-.2-.3v-.2c-.1,0-.3-.2-.3-.2h-.2c0-.1-.1-.3-.1-.3h0l3.7.3,2.6.2,1.4,1.3,1.7,1.6" vector-effect="none"/>
        <path class="st1" d="M348.8,446.7l.5-1.6h.1l.4-1.5h-.1v-.8h0v-1.1c-.1,0-.4-2-.4-2l-1-.2v-.6h.8l-.5-3.3h0v-.6h0v-.5c-.1,0-.3-.4-.3-.4l-1-1.8.8-.5h0l.4-.3h0l.9-.8.7-.8.6-1.2.5-1.1.4-1.2.2-.6-.5-.3v-.4l1.4-2.7,2-2.1v-.2l-.5-2.1,1.3,1,1.6,1.1,1.9,1.4.7-.2.5-.2v-.3c.1,0,.5-.7.5-.7l.4-.6.5-.6.6-.8.4-.5.2-.6.5-1.2.3-.9.3-.8.5-1,.4-.9.4-.9.2-.3.3-.4.3-.4v-.4c.1,0,.5-1.1.5-1.1l.4-1.1.4-1,.6-1.7.4-1.3.5-1.2.3-.8.3-1.1v-.4c.1,0,1.7.5,1.7.5l2.6.9,3.1,1.1h.2l-.2.7-.3.8-.3.8-.3.6-.5,1h.2l-.2.7-.2.7-.2.5-.3.4-.5.4h0c0,.1-.1.1-.1.1,0,.1-.1.2-.1.2h0v.3h-.1c0,.1-.1.3-.1.3h0c0,.1-.1.2-.1.2h-.1l-.2.2h-.2c0,.1-.2.2-.2.2h-.2c0,.1-.1.3-.1.3l-.2.2-.3.3-.2.3-.2.5.6.2-.2.7,1.5.6-.4,1.2h-.1l-1.1,2.6-.5,2.8,2,.7,1.8.5.2-.7.3-1.2.2-1.2.2-1.4,1.3.2h.1l3.5.6-.2,2-.6,1.5h-.5v1.4h-.9v.3l-.6,1.5,1.5.2.2-.4,3,.6.2.8-.8,2.9h.6l.7,2.4.2.7-1,.2v1.9h-1.3v.4h0v.2h0v.2h0v.8c-.1,0-.1.2-.1.2v.3c-.1,0-.3,1.1-.3,1.1l-.4.3-2.1,1.2-.3.2-.8.5-5.3,3.3-2.9-.7-.7,1.9-2.3,5.6-10.5.2-1.6-.4-2.4.2-1.8-1.7-.2-.8" vector-effect="none"/>
        <path class="st1" d="M362.4,266.5l-.8,1.3-.6.6-.3.3-.2.3-.9,1.3h.1l-.3.4-.4.4-.4.5-.4.9-.2.7v.7l-.2.2v.6c-.1,0-.1.2-.1.2l-.2,1.4.2,1.1v.8l.6,2.5h0v1.7c-.1,0-5.5.8-5.5.8l-.2-1.1-2.8.5h-.8c0,.1-.1-.3-.1-.3v-.2h0v-.5c-.1,0-.1-.2-.1-.2l-.2-.2-.2-.3v-.2c-.1,0-.3-.2-.3-.2h-.1v-.3l-.2-.3v-.2c-.1,0-.4-.3-.4-.3v-.2c-.1,0-.5-.4-.5-.4v-.2c-.1,0-.2-.1-.2-.1v-.2c-.1,0-.2-.2-.2-.2v-.2c-.1,0-.2-.2-.2-.2v-.2l-.2-.2v-.5c-.1,0-.1-.2-.1-.2h0v-.4l-.2-.4v-.5c-.1,0-.1-.2-.1-.2-.1,0-.2-.2-.2-.2v-.2c-.1,0-.3-.2-.3-.2h-.1c0-.1-.1-.2-.1-.2h-.2c0-.1-.3-.2-.3-.2h0v-1.3c-.1,0,.6-.6.6-.6l1-1.1.5-.4.5-.4.2-.3.3-.2h1.3v-.6l-.2-.7h1.2v.2h.5v.5h0c0,.1.1.4.1.4h0v.4h.2c0,.1.4.6.4.6v.2c.1,0,.3.3.3.3l.6,1.1.2.3h0v-.2l-.2-.5h0v-.2h0v-.2h-.1v-.3h0c0-.1-.3-.7-.3-.7h0v-.7h0v-.4h0v-.4h0v-.7h.1v-.3h0l.2-.6h0c0-.1.2-.1.2-.1h.4v-.5h.3l1.9.7h.3v.2h.4c0-.1.7-.3.7-.3h.1v.3h.2v-.3h.3l.2.9h.4v-.4c-.1,0-.1-.4-.1-.4h.4l1.6-.2.2.5.7-.4.5-.4.2-.2v-.6l1-.2.7-.2.8-.2-.3.4h-.1c0,.1-.4.9-.4.9l-.3.2-.3.3" vector-effect="none"/>
        <path class="st1" d="M344.3,273.8h.3c0,.1.2.2.2.2h.1c0,.1.1.2.1.2v.2c.1,0,.3.2.3.2v.2c.1,0,.2.2.2.2v.5c.1,0,.1.4.1.4.1,0,.2.3.2.3h0v.8c.1,0,.1.2.1.2l.2.2v.2l.2.2v.2c.1,0,.2.2.2.2h0c0,.1.1.3.1.3l.3.4v.2c.1,0,.4.3.4.3v.2c.1,0,.3.3.3.3h0c0,.1.1.3.1.3l.2.2v.2c.1,0,.3.3.3.3v.2c.1,0,.2.2.2.2v.4h.1v.5l.4,1.1v.2h-.3v-.3h-.9v.4h-.8v-.2c-.1,0-.3-.2-.3-.2l.5,3h-.7l-.2.2-.6.4-.5.2-.5.2h-.6l-.4-.2-.3-.4-.2-.4-.2-.7v-.6h0c0-.1-.5-.1-.5-.1,0,.1-.8.3-.8.3l-.8.2-.6.2h-.5l-.3-.3-.3-.2h-.7c0,.1-.2.1-.2.1h-.1v-.4l-.2-.5-.2-.4-.2-.5v-.3l-1.1-3.8-.7-2.7,5.2-1.7h1.7c0-.1.2-.1.2-.1v-.2c.1,0,.4-.3.4-.3l.2-.2.3-.3.2-.2h0c0-.1.1-.1.1-.1h0" vector-effect="none"/>
        <path class="st1" d="M361.8,243.4l.3.8v.3c.1,0,.4.6.4.6l.4.7.2.4v.3l.4,1.4h1.1v-.5c.1,0,.3-1.2.3-1.2h.1l1.5-.2,1.4-.9h1.9c0-.1.4,2,.4,2l.4,2.3h2.2c0,.1-.2,2.7-.2,2.7h.5v-.6h0l3.1-.8.5,1.8h-.4c0,.1-3.6,1.5-3.6,1.5l-.3,1.5-.4-.3.2-.8h-1.2v.2c-.1,0,.5.2.5.2l-.2.5-.6-.2-1,2.6.8.4-.2.3-.3.4-.6.7-.7.6-1,1-1.4,1.3.3,1.6-.4.2-1,.4-.9.2h-.6c0,.1-.8.3-.8.3l-.7.2-1,.2h0v.6l-.2.2-.5.4-.7.4-.2-.5-1.6.2h-.4v.9c.1,0-.3,0-.3,0l-.2-.9h-.3v.2h-.2v-.2h-.8v.2h-.4v-.2h-.3l-1.9-.8h0l.2-.4h0v-.2c.1,0,.1-.3.1-.3h0v-.7c.1,0,.2-.1.2-.1l.4-1.6v-.2l.2-.3h0c0-.1.2-.3.2-.3h0v-.6h-.2v-.2h0v-.7h0v-1.5h0v-.3l-.2-.4h0v-.7c.1,0,.1-.2.1-.2.1,0,.1-.1.1-.1h0v-.3c.1,0,.1-.3.1-.3l.2-.4.2-.6v-.8h0v-1.4l-.2-.3h0l-.2-.4h0v-.5c.1,0,.1-.1.1-.1h0v-.2h0v-.7h0v-.3h-.1v-.3h0v-.5h0v-.2h0v-.2h0c0-.1.2-.4.2-.4v-.2c.1,0,.4-.2.4-.2h.4l.4-.2.6-.2h.2l-.3-.8h.5l.2-.3-.6-.5h0c0-.1,1.2-.6,1.2-.6h.2c0-.1-.6-.7-.6-.7h.1c0-.1.2-.1.2-.1,0-.1.1-.3.1-.3h0l.3-.4.3-.3h.1c0-.1.1-.1.1-.1h.9l-.4-2.1h.4v-.8c-.1,0,3.4-.6,3.4-.6v.3c.1,0,.2.3.2.3l.2.7v1.2l-.5.2h-.3c0,.1-.6.5-.6.5h-.3" vector-effect="none"/>
        <path class="st1" d="M292.2,293.3h0l-.4.5-.4-.2-1.4,1.3v.4h0v.2l.3.4-.2.2v.3l.2.3h0c0,.1-1.3.9-1.3.9l-1.6,1-2.3,1.5-.8.6-.7.4-2.5-7.1h0c0-.1.2-.2.2-.2h.2l.5-.2.2-.2h.2c0-.1.3-.2.3-.2h.4l.5.2.4.2h.5c0,.1.3.2.3.2h.6c0-.1.2.1.2.1h.3l1.2,1,.5-.4,1.4-2.7h.2l.2.2.5.2.4.2h0l.7.4,1,.5" vector-effect="none"/>
        <path class="st1" d="M267.4,274.7v.4h0v.7h.2v.4h0v.3h0c0,.1,0,0,0,0l-.9-1.4-.5-.4h-.2c0,.1-.5.5-.5.5h0l1.7,2.5.8-.4.3-.2h0l.4.6h0l.3.5.6.7-.8.2v1.3h-.2l1.6,3.6h-.2c0,.1-.3-.3-.3-.3l-.2.2.7,1-.2.2-.6-.8-.7-1.2-.4-.8-4,2.9-1,.9h-2.4l-.4-.8.4-.3h0v-.3h0l.2-.2.2-.3v-.4h0v-.2h0v-.3h-.1v-1.1c.1,0,.1-.2.1-.2h0c0-.1-.2-.2-.2-.2h-.2l-.6-1.8v-3.2c.1,0,2.2-1.2,2.2-1.2h0v.6h0v.3h0c0,.1,0,0,0,0h0v-.2h0v-.2h0v-1h.2v-.3c.1,0,.4-.1.4-.1h.2l.2-.2h.6l.3-.2h.3c0-.1.2-.2.2-.2h.1l.8-.3h0l.5.3.6.3" vector-effect="none"/>
        <path class="st1" d="M306.4,195.2h1.7c0-.1.9-.1.9-.1l.6.2.9.2.8.2.8.2.7.2.7.3.7.3.6.3.4.3.5.2.7.4.7.4.5.3.6.4.8.3.8.3.8.3.8.3.9.3,1.2.3.9.2,1.1.3,1,.3.7.2.8.3.6.3.5.3.5.4.3.3.8.6.7.5.6.5.4.4.2.5v.4c.1,0,.2.5.2.5v2.7c.1,0,.4.7.4.7l.3.4.4.6.4.4.4.4.5.2h.4c0,.1.2.4.2.4l.2.3.2.4v1.1c-.1,0-.3.3-.3.3v.4l.2.6.2.3.3.4.3.4.5.8.3.7.2.6.3.8.2.7v.6c.1,0,.2.4.2.4l-2.5,1.8-.3.2h0l-1.4,1-2.4,1.6v.8l-2.2.4v1.9l-2.9.5-5,.9-2.3.4h0l.7-.2v-.5c-.1,0-.9.2-.9.2v-.2l-.3-.6-.2-.6-.3-.5-.3-.4-.3-.4-.3-.4-.3-.4-.2-.3-.2-.4v-.3c-.1,0-.2-.4-.2-.4v-.7c-.1,0-.1-.3-.1-.3l-.4-2.5-.3-2.5v-.5l-.4-3.4v-.7c-.1,0-.1-.3-.1-.3-.1,0-.2-.2-.2-.2h0l-1.3-1.5-1.7-1.8-.4-.3-1.6,2.4-2.1,3.3h0l-1.4-1.3-2.6-.2-3.7-.3h-.4l-.7,2.3-3.3,1.3v.2h-.1l-1.6.7v.3l-2.8,2v.4h-1.8c0,.1-.1.1-.1.1,0-.1-1.6,0-1.6,0l.3,1.7.7,4.5h-.1l-.3.3-.3.2-.3.3h0l.2.8h-.5c0-.1-.3-.4-.3-.4h-.2c0-.1-.3-.2-.3-.2h0v-.2h-.4l-.2-.3-.2-.2v-.2h-1.3l-.3.3-.4.3-.4.4-.2.3h0v.6l.2.2.8.8h0v.4l-.2.5v.7h0v.2h0l.2.3.2.3v.3c.1,0,.2.2.2.2v.7c-.1,0-.3.4-.3.4v.3c-.1,0-.2.1-.2.1h-.1c0,.1-.3-.2-.3-.2l-.3-.6-.4-.6-.2-.5-.2-.5-.2-.4-.3-.4h0v-1.6h0c0-.1-1.1-.3-1.1-.3l-2-.2.3-3.1v-.2h-.1c0-.1-.2-.1-.2-.1,0-.1-.4-.4-.4-.4l-.6-.5-.7-.6-.6-.5-.8-.7-.7-.5-.4-.3-.4-.4-.6-.6-.5-.6-.4-.4-.2-.4-.2-.4-.3-.6-.3-.6-.3-.6v-.3c-.1,0-.1-.2-.1-.2v-.5l.2-.8v-.6l.3-.5.3-.4.5-.4.5-.4.3-.2.5-.2h.5c0-.1.6-.3.6-.3l.6-.2.7-.3.5-.2.4-.3.4-.4.3-.3.6-.4.5-.3.5-.4.3-.4.3-.5.3-1v-1.2l-.3-.6-.5-.8-.4-.6-.5-.8-.4-.5-.4-.3-.3-.2-.2-.2v-2c-.1,0-.2-.7-.2-.7v-1c-.1,0-.3-.5-.3-.5l-.4-.6-.3-.7-.2-.5v-1.7c.1,0,.2-.5.2-.5l.2-.5.3-.5.4-.5.6-.4.6-.3.6-.2h.6c0-.1.8,0,.8,0l.6.2.6.2h.6c0,.1.9.3.9.3h.8c0,.1.8.3.8.3h.5c0,.1.6.3.6.3l.5.2h.5l.5-.4.5-.4.6-.4.3-.3.4-.5.4-.5.4-.6.4-.6.6-.7.6-.5.8-.4h.8c0-.1.9,0,.9,0l1,.2,1,.3.7.3,1,.3.7.4.8.4.8.4.7.4h.3c0,.1.7.4.7.4l.6.2.9.4.7.3.7.3.6.2.6.2.9.3.5.2" vector-effect="none"/>
        <path class="st1" d="M364.4,212.5v.6c-.1,0-.1.4-.1.4v1.1h0v1.5h0c0,.1-.1,1-.1,1v1.7h0v1c.1,0,.1.4.1.4.1,0,.2.2.2.2v1.5c-.1,0-.1.2-.1.2v.2h0v1.5h.1v.3h0c0,.1.2.3.2.3h0c0,.1.1.3.1.3h0v.2h0v.8c.1,0,.3.5.3.5l.2.6v.2l.2.4.2.4v.2c.1,0,.2.3.2.3l.4.9v.3c.1,0,0,0,0,0l-1.8.8-1.8.9-.5-.4-.9-.5-2.5.5-3.6.7-3,.5-2.2.4h-.3l-.3-.2h-.3c0-.1-.2-1.1-.2-1.1v-.6h0v-.4h0c0-.1-.1-.5-.1-.5l-.2-.6h0v-.2h0c0-.1.3-.9.3-.9h0v-.2h0v-.7l-.2-1.1v-.2h0v-.2h-.2c0-.1-.2-.3-.2-.3h0v-.9h0v-1.2h.1v-.5h0v-.3h0v-.2h0v-.2h0v-.3h0l.2-.4h0v-.3h0c0-.1.2-.4.2-.4h0v-.2h0v-.5h0v-.3h.1v-.2h0v-.5h0v-.4l.2-.3h0v-.2h0v-.2l.2-.7v-.2h0v-.2h0v-.3h0v-.2h0c0-.1.2-.3.2-.3l.9-1.2v-.2c.1,0,.6-.7.6-.7l.3-.4h.1v-.2c.1,0,.4-.5.4-.5h1.2c0,.1.6-.2.6-.2l.3.4,1.3-.5,1.3-.5.2,1.1h.2c0-.1.2-.1.2-.1h.1c0-.1.1-.1.1-.1h.2v.2h.2c0,.1,2.1-.8,2.1-.8l2-.3,1.5-.2,1.1-.2h0l-.2.4h0v.2h0v.6h-.1" vector-effect="none"/>
        <path class="st1" d="M309.6,376.3l-1.1.4-.5-.3-.6-.3-.5-.3-.3-.2-.3-.2-.4-.2h-.2c0-.1-.4-.4-.4-.4h0l.2-.3,1.4-2.4,3.4-1.8,2.8,2.7-.4.5-.4.6h0l-1.2,1.1-1.2.7-.2.2" vector-effect="none"/>
        <path class="st1" d="M324.6,370.1v3.2l-.7-.4-1.1-.7-.6-.5-.6-.6-.8-.8-.6-.6-.9-.8v-.5c-.1,0-.1-.2-.1-.2h0v-.6l.2-1v-.5l.2-.6.2-1v-.8c.1,0,.1-.8.1-.8.1,0,.3-.9.3-.9l.2-1.2v-.9h5.4v.3h-.2v.2h-.7v.5h-.1v9" vector-effect="none"/>
        <path class="st1" d="M299.9,282.7l.2.2h.3c0,.1-.1.5-.1.5h.1c0-.1.2-.1.2-.1,0,.1-.5.8-.5.8l-.6.9.9,1.2h.1v.2l.2.6h.2l1,1.1h-.3c0,.1.3,1.2.3,1.2v.3h-.1v.3h-1c0,.1.6.8.6.8h-.3l-.5.2h-.5l-.6.2-.7.2-.7.3-.4.2-.5.4-.5.4-.5.3-.5.3-.5.3-.4.3-.7.5-1.1.6-.2-.4v-.2c-.1,0-.2-.2-.2-.2v-.2c-.1,0-.2-.1-.2-.1h-.2v-.2h-.1l-.3-.2-1-.5-.7-.4h0l-.4-.2-.5-.2h-.2c0-.1-.2-.2-.2-.2l-1.4,2.7-.5.4-1.2-1h-.8l-.2-.3v-.3c-.1,0-.2-.5-.2-.5h.6c0,.1,0-1.6,0-1.6l.6-.9,2.3,1.3.5.2h1.5c0-.1-.2-1.9-.2-1.9h.6v-.6l1.3-.2h1c0-.1,0,.4,0,.4h.8c0-.1.9-.2.9-.2v-2.3h-.8c0,.1-1,.3-1,.3h-1.5l-1.6.5v-1.1c-.1,0-.5-2.4-.5-2.4l3.9-.7,2.6-.4v-.3l.4-.4.3.3.5-.4.3-.2.5-.2v-.2l.7-.4v-.2l.7-.3h.4l.4,1.1v.2h0v.6" vector-effect="none"/>
        <path class="st1" d="M445,193.6h.3c0,.1,1.3.7,1.3.7h.1c0,.1-.2.4-.2.4l-.2.4v1h1.6v-1c-.1,0-.1-1.1-.1-1.1l-.5-.2h.1c0-.1,1.2.6,1.2.6h0v-.2h0v-.3h0c0-.1.1-.2.1-.2h.1v-.3h0c0-.1,1-.5,1-.5l1.2-.5.2.6.4,1.2.6,1.1v2.3c-.1,0,.7.3.7.3l-.5,1.1h0c0,.1-.3-.1-.3-.1l-.9.3-1.2.4.6,1.6v1.6h.9v.6c.1,0,.2.4.2.4v1.3l-1.3.2h-.8l-2.3.3h-1.4c0,.1-.8,0-.8,0l.2,2.1,1.7-.2v2l.6,1.1.8,1.2,1.8.3.3-.3.5-.5.4-.4.3-.4h.2v.7c-.1,0-.1.4-.1.4-.1,0-.2.4-.2.4v.5c-.1,0-.2.5-.2.5v.8l-2.1.8-1.7.7-1.8,1.1-1.6.9h-.1c0,.1-.7-.5-.7-.5l-.7-.5-.4-.4h0v-.2h0v-.2h-.1c0-.1-.3-.1-.3-.1h-1l-.4.2h-.2c0,.1-1,.8-1,.8l-.8.5-.3.2-.4.2h-.1l-.2.3h-.2c0,.1-.1.3-.1.3l-1.2,1.1-.3.3-.5.5-.4.4-.7.6h0l-.4.3h-1.2c0,.1-.3.2-.3.2h-.3l-.2.3-.2.2v.2c-.1,0-.2.1-.2.1h0v.7l-.2.2h0c0,.1-.2.3-.2.3h-.1c0,.1-.1.3-.1.3h0v.4h0v.5c-.1,0-.3.2-.3.2l-.2.2h-.2c0,.1-.1.2-.1.2h-.2l-.9.6-.7.4-.6.3h-.1v.2h0l-.5.6h-.2v.7h-.2c0,.1-.2.3-.2.3l-.4.4-.4.4h0c0,.1-.1.3-.1.3v.2c-.1,0-.2.2-.2.2l-.2.6-.2.7v.2h0v.6h0v.4l-.2.4v.3h-.1v.8h0v.2h0v.2l.3.5-.2.2-1.1,1-.5.4-.6.5-.3.2-.3.2-.4.3h-.2v.5h0v.9l.2.2h0c0,.1.1.3.1.3v.2c.1,0,.2.1.2.1h0v1.8c-.1,0-.1.9-.1.9v2.4c.1,0,.2.2.2.2v.2c.1,0,.3.3.3.3l.4.8v.3c.1,0,.2.2.2.2v.5h0v.3l-.8,1.2-.5.7-.3.4-.4.6-.3.4-.4.6v.2c-.1,0-.3.3-.3.3l-.2.3-.4.5-2.2-1.8-.9-.7-.5-.4-.3-.3h-.6c0-.1-.3-.1-.3-.1h-.3l-.4-.2-.3-.2-.3-.2-.3-.2-.4-.3-.3-.3-.2-.2v-.2c-.1,0-.3-.2-.3-.2v-.4c-.1,0-.1-.3-.1-.3v-.5l-.2-.2h-.2c0-.1-.3-.3-.3-.3l-1.5-.7-.9-.4-1.2-.4h-.1l-.5-.3-.4-.2h-.3c0-.1-.3-.3-.3-.3l2.6-1.4v-.2l-.6-3.7-.5-3.2-.8.2-.2-1.9-.2-1.5,2.9-.7-.4-1.8,2-.6-.3-1.5,3.6-1.2,2.4-.8h0c0-.1-.3-.6-.3-.6l-.3-.3-.3-.3-.4-.3-.3-.2h-.3c0-.1-.3-.2-.3-.2h-.3l-.3-.2h-.4c0-.1-.3-.2-.3-.2h-.4c0-.1-.3-.2-.3-.2h-.3l-.4-.2h-.4c0-.1-.4-.3-.4-.3l-.4-.2-.3-.2-.2-.2-.3-.3-.2-.3-.2-.3-.2-.2h-.1v-.2h0l.4-.2.6-.4.7-.4.4-.2h.1c0-.1.3-.4.3-.4l.3-.4.2-.3.3-.3.3-.4.3-.3.3-.2.3-.2h.2c0-.1.3-.4.3-.4l.2-.3.3-.2.3-.2.3-.3.5-.4.4-.2.5-.3.6-.3.4-.2h.2c0-.1.5-.6.5-.6l.2-.2.5-.4.4-.3,1-.6h.2c0-.1.2-.3.2-.3h.1c0-.1.1-.3.1-.3l.2-.3.2-.6v-.4c.1,0,.2-.3.2-.3v-.2c.1,0,.3-.3.3-.3v-.2c.1,0,.3-.2.3-.2v-.2c.1,0,.2-.3.2-.3l.7-1.7.7-2,.9-1,.3-.4,1-1.2.5-.6.8-1.7,1-2,.3-.6.7-1.5,1.1-2.3.8-1.6h.4c0-.1.7-.5.7-.5l1.2-.6h.4c0-.1.3-.2.3-.2h1c0-.1.4-.1.4-.1,0-.1.3-.3.3-.3l.6-.4.5-.4,1-.7h.1c0-.1.2,0,.2,0h0c0,.1.1.3.1.3l.2.4.3.8.2.5h.1c0,.1.1.3.1.3l.3.3.4.4h0v.2h0l.2.5v.3c.1,0,.2.2.2.2h.1c0,.1.2.2.2.2h.9l.8.2h1.7c0,.1.5.3.5.3" vector-effect="none"/>
        <path class="st1" d="M294.6,413.8l-.5,1.1,6.2.5h.7c0,.1.5.2.5.2h1c0-.1.8-.2.8-.2h.7c0-.1.3-.2.3-.2h.9l1.3.5.7.2,1.8.4,1.1.2,1.5.3,2.2.4h0v-.2h.4v-.3c.1,0,.1-.2.1-.2h.2c0-.1.3-.3.3-.3h.3c0-.1.5-.7.5-.7l.2-.2h.3c0-.1.2-.3.2-.3h.3c0,.1,2,.8,2,.8l5.3-1.3,2.2,1.6h0l-.3.8-.6.9-.4.5-.4.9-.4.7-.3.6-.2.5-.4.7-.2.5-.2.6-.3.5-.2.3.7.8.6.9.6,1.1.5.9-4.8,3.8.8.4-.2,1.7-.3,1.1-1.3,4.4,2.1.9-1.5,4.7-.6,2.2.3.3h-.2v.4l-.2.2-.5.4-.6.6-1.7,1.7-.3.2-.4.2-4.8,2-.9.5v-.2h0v.2h0c0-.1-.1-.1-.1-.1h-.1v.2h0v.4h-.4c0-.1-.1-.3-.1-.3h-.1c0-.1-.2-.3-.2-.3l-.2-.2h-.4c0-.1-.2-.1-.2-.1h-.7c0,.1-.1.1-.1.1l-1.9-3.6-.8-1.3-.2-.2-.8-.2-1.3-.2h-.9c0-.1-.6-.5-.6-.5h0l-.6,1.2-1,2.1-.2.3-.2.4-.5.6-1.7.5v.2l-1.4.5-.5.3-1.8.4-1.6-3.1,2-.7h1.2l.3.2.8.2v1c-.1,0,.3.4.3.4l2-.7,2.2-4.4v-.8l1.5,1,2.3.4-.4-2.6-.2-1.4.2-4.6-1-1-.3-1.8.8-.7v-.5l-2.8-.5-1.9.8v-1.8c-.1,0-.9-.3-.9-.3h-.4l-.4-.3v.2l-4-1.2h-5.3v-.9l-.6-1.1.3-5.4.2-2.7v-1.1h0v-.3h0v-.2h0c0-.1.3-.9.3-.9v-.4c.1,0,.4-.7.4-.7v-.5c.1,0,.2-.3.2-.3v-.4l.2-.4.2-.8v-.7h.1l5.7.5.7-1.4.9.4" vector-effect="none"/>
        <path class="st1" d="M429.9,303.3l-.2.4-.3.4-.4.5-.2.4-.8,1.2-.2.2-.2.3-.6.9-.4.5-.2.2v.2c-.1,0-.7.5-.7.5l-.3.3-.5.5-.6.6-.6.6-.6.6-.5.5-.4.4-.4.5-.2.3-.2.3-.5.8-.3.4-.3.3-.4.4-.4.3-.9.7-.5.5-.5.5-.3.4-.7.8-.7,1-1,1.2-.6.7-.4.5-.6.7-.4.4.9,3.2.8,3.3v.7h.2-.4c0,.1-.4.2-.4.2l-.9.3-.6.2-1,.3-1.3.5-1.6.6-.4.2h-.1l-.5.2h-.5c0,.1-.3.1-.3.1h-3.6c0,.1-.3.1-.3.1l-.8.3-.8.2-.7.2-.8.2h-.1l-.7.2-.9.2-.7.2v-2c-.1,0-.1-.4-.1-.4-.1,0-.4-.5-.4-.5v-.2l-.2-.3-.2-.5-.2-.5v-.5c-.1,0-.3-.5-.3-.5l-2.7-9h-.5c0,.1-.3.2-.3.2h-.4l-.5.2h-.5c0,.1-.4.2-.4.2h-.4l-.3.2-.6.2h-.3c0,.1-.4.3-.4.3l-.3.2-.3.2-.5.3-.4.2-.5.3-.4.3-.6.3-.6.3-.7.4-.4.2-.4.2-.4.2-.5.2h-.4c0,.1-.3.2-.3.2h-.6c0,.1-.3.1-.3.1h-.5l-.2-.2-.8-.6-.7-.7-.6-.7,2.3-1.6,1.9-1.4,1.7-1.1,1.1-.6.7-.3.7-.3.9-.4.6-.2,2.2-.8,1-.3,1.4-.3,2.5-.6.7-.3,1.6-.7,1.4-.7,1.5-.7,1.7-.8,1.7-.8.8-.3,2.2-.7.7-.2,1.9-.6,2.1-.6h.2l1.9-1.2,1.9-1.2,2.2-1.5,3-2.1,2.4-1.8,1-.8,1.2-.8,2.3,2,2.1,1.8" vector-effect="none"/>
        <path class="st1" d="M362.5,326.2l-11.4,2.9-.2-1.2-.3-1.8h-.5l-.7-3.3h.6c0-.1-.9-5.8-.9-5.8h-.8v-.3h-.2v-1l2.3.2h2l.2-.2h.1l.2-.3.3-.3.3-.4v-.2c.1,0,.2-.3.2-.3l.2-.3.3-.2.2-.2h.4c0-.1.3-.2.3-.2h.3v-.4l5.4-1.4.2,1.2.4,3.2.3,2.6.3,3.2.5,4.2" vector-effect="none"/>
        <path class="st1" d="M304.9,475.4l.3.4h.5c0-.1.5-.1.5-.1h.9c0,.1.3.1.3.1h.1c0,.1.2.1.2.1h.1v.3h-.1c0,.1-.2.1-.2.1h-.7c0,.1-.2.3-.2.3l-.2.2v.2c-.1,0,0,.2,0,.2h.1c0,.1.2.4.2.4l.9.8h1.8l.8.4h.1v.2l.3.5h0v1.8h.2v.2h0l-.3,1.1h0v.2h0v.2h-.2v.4h-.1v.5h0v.2h0v.3h0v.2h0v.2h.1v.3h0v.2h0v.2h0v.2h0v.2h-.6v.2h0l-.2.2h-.6c0,.1-.4.4-.4.4h-.6v-.3c-.1,0-.3-.5-.3-.5v-.8c-.1,0-.2-.4-.2-.4l-.2-.2h0l-.7-.6h-.3c0-.1-.1-.2-.1-.2l-.2-.3-.2-.4-.3-.7-.2-.2h-4.3l-.5.2-.4.4h-.3l-.5-.2-.4-1-.3-.9h0l1.7-.9,1.3,1.1h0l1.4-4.5-1.1-1.5-.3-.4-.7-1-.5-.7.7-.5.3-.2.4-.3h.1c0-.1,1.2-.9,1.2-.9h.1l.9-.7,1,1.4h0l.9,1.4.6.9" vector-effect="none"/>
      </g>
    </g>
  </g>
  <g id="Layer_2">
    <ellipse class="st10" cx="299.1" cy="423.8" rx="17.4" ry="15.5"/>
    <line class="st6" x1="990" y1="241.1" x2="950.4" y2="217.6"/>
    <path class="st4" d="M279.3,423"/>
    <ellipse class="st9" cx="301.3" cy="385.4" rx="22.1" ry="20.6"/>
    <ellipse class="st8" cx="321.1" cy="369.2" rx="28.1" ry="26.3"/>
    <ellipse class="st7" cx="449.2" cy="291.8" rx="28.1" ry="26.3"/>
    <ellipse class="st10" cx="488.5" cy="237.7" rx="28.1" ry="26.3"/>
    <g>
      <path class="st5" d="M296.8,337.7c-1-.2-4.7-.4-8,5.7-2.6,4.8-3.6,11.2-4,16.4"/>
      <polygon class="st4" points="282 357.8 284.6 368.7 287.8 357.9 282 357.8"/>
    </g>
    <ellipse class="st8" cx="418.7" cy="440.4" rx="28.1" ry="26.3"/>
    <g>
      <path class="st5" d="M480.4,441.5c0-1,.2-4.7-6.2-7.6-5-2.3-11.4-2.9-16.6-3"/>
      <polygon class="st4" points="459.5 428 448.8 431.3 459.7 433.8 459.5 428"/>
    </g>
    <g>
      <path class="st5" d="M524.4,189.1c-.7-.7-3.6-3.1-9.8,0-4.9,2.5-9.4,7.1-12.7,11.1"/>
      <polygon class="st4" points="500.8 197 496.7 207.4 505.5 200.5 500.8 197"/>
    </g>
    <g>
      <path class="st5" d="M390.5,267.7c-.3,1-.7,4.7,5.1,8.4,4.6,2.9,10.9,4.4,16.1,5.1"/>
      <polygon class="st4" points="409.6 283.9 420.6 282 410.1 278.1 409.6 283.9"/>
    </g>
    <g>
      <path class="st5" d="M383.3,380.7c.2-1,.4-4.7-5.7-8-4.8-2.6-11.2-3.6-16.4-4"/>
      <polygon class="st4" points="363.2 365.9 352.3 368.5 363.1 371.7 363.2 365.9"/>
    </g>
    <g>
      <path d="M530.4,199.4v-.8c.2,0,.3,0,.5,0s.2-.1.3-.3c0-.1.1-.4.1-.7v-4.6c0-.2,0-.4,0-.6,0-.2,0-.4,0-.5-.1,0-.3,0-.5,0-.2,0-.3,0-.4,0v-.9c.6,0,1.1,0,1.7,0s1.1,0,1.7,0c.7,0,1.3,0,1.8.2.5.2.9.4,1.2.8s.4.9.4,1.5c0,.3,0,.7-.2,1s-.4.6-.7.8c-.3.2-.7.4-1.2.6.2,0,.3.2.5.3.1.1.3.3.4.5l.6.8c.2.3.3.5.5.6.1.2.3.3.4.4.1,0,.3.1.5.1v.8h-2c-.1-.1-.3-.3-.4-.5-.1-.2-.3-.4-.5-.7l-.9-1.4c-.1-.2-.2-.3-.3-.4,0-.1-.2-.2-.2-.3h-.6v1.3c0,.2,0,.4,0,.6,0,.2,0,.4,0,.5,0,0,.2,0,.3,0,.1,0,.3,0,.4,0,.1,0,.2,0,.3,0v.9h-3.6ZM533.5,195.3c.4,0,.8,0,1.1-.2.3-.1.5-.3.6-.6.1-.3.2-.6.2-1s0-.7-.2-.9c-.1-.2-.3-.4-.5-.5-.2-.1-.4-.2-.5-.2s-.3,0-.5,0-.3,0-.4,0c-.1,0-.2.1-.3.3s0,.3,0,.6v2.5c0,0,.2,0,.3,0,0,0,.2,0,.3,0Z"/>
      <path d="M541.3,199.6c-.6,0-1.1-.1-1.5-.4-.4-.3-.8-.6-1-1.1-.2-.5-.4-1-.4-1.7s.1-1.1.4-1.6c.2-.5.6-.9,1-1.2s1-.5,1.6-.5.7,0,1,.1c.3,0,.6.2.9.5.3.2.5.5.6.9s.2.9.2,1.4h-3.9c0,.5,0,.9.2,1.2.1.3.3.6.5.8s.6.3,1,.3.3,0,.5,0,.4-.2.6-.3.4-.3.6-.5l.5.5c-.3.4-.6.7-.9.9s-.7.4-1,.4-.6.1-.9.1ZM540.2,195.4h2.2c0-.3,0-.6-.1-.8s-.2-.3-.3-.4c-.1,0-.3-.1-.5-.1-.4,0-.6.1-.8.4s-.3.6-.4,1Z"/>
      <path d="M547.3,199.6c-.2,0-.5,0-.7,0-.2,0-.4-.2-.6-.3-.2-.2-.3-.4-.4-.7-.1-.3-.2-.7-.2-1.2v-2.9s-.8,0-.8,0v-1c.2,0,.5,0,.7-.3.2-.2.4-.4.6-.6s.3-.5.3-.8h.9v1.7s1.5,0,1.5,0v.9h-1.5s0,3,0,3c0,.2,0,.4,0,.5s.1.3.2.4c.1.1.3.2.5.2s.3,0,.5-.1.4-.3.6-.6l.6.5c-.2.3-.4.6-.7.7-.2.2-.5.3-.7.4-.2,0-.4.1-.6.1-.2,0-.3,0-.3,0Z"/>
      <path d="M553.2,199.4c0-.1,0-.2,0-.3s0-.2,0-.3c-.3.3-.6.5-.9.6-.3.1-.6.2-.9.2-.5,0-.9-.2-1.2-.5-.3-.3-.4-.7-.4-1.1s0-.7.3-1c.2-.3.5-.5.8-.7s.7-.3,1.1-.4c.4,0,.8-.1,1.2-.2v-.6c0-.2,0-.4,0-.6,0-.2-.1-.3-.3-.4-.1,0-.3-.1-.5-.1-.2,0-.3,0-.4,0-.1,0-.3.1-.4.2,0,0,.1.2.1.2,0,0,0,.2,0,.2,0,.2,0,.3-.2.5s-.3.3-.6.2c-.2,0-.4,0-.6-.3s-.2-.3-.2-.6c0-.3.1-.6.3-.8.2-.2.5-.4.9-.6s.8-.2,1.3-.2c.7,0,1.2.2,1.6.5.4.4.6.9.6,1.7v.7c0,.2,0,.4,0,.6,0,.2,0,.4,0,.7s0,.3,0,.5,0,.4,0,.6c.1,0,.3,0,.4,0,.2,0,.3,0,.3,0v.9h-2.3ZM553.1,196.7c-.2,0-.4,0-.6.1-.2,0-.4.1-.5.2-.1,0-.3.2-.3.3,0,.1-.1.3-.1.5,0,.2,0,.4.2.5.1,0,.3.1.5.1s.4,0,.5-.1c.2,0,.3-.2.4-.3v-1.3Z"/>
      <path d="M556.2,198.7c.2,0,.4,0,.5-.1s.2-.2.2-.4c0-.2,0-.3,0-.6v-2c0-.1,0-.3,0-.5s0-.4,0-.5c-.1,0-.3,0-.5,0s-.3,0-.4,0v-.9c.4,0,.7,0,.9,0s.5,0,.6-.1c.1,0,.2-.1.3-.2h.6v4.2c0,.1,0,.3,0,.5s0,.4,0,.6c.1,0,.3,0,.4,0,.2,0,.3,0,.4,0v.9h-3.1v-.8ZM557.7,192.4c-.3,0-.5,0-.7-.3-.2-.2-.3-.4-.3-.7s0-.5.3-.7c.2-.2.4-.3.6-.3s.5,0,.6.3c.2.2.3.4.3.7s0,.5-.2.7c-.2.2-.4.3-.6.3Z"/>
      <path d="M559.9,198.7c.2,0,.4,0,.5-.1,0,0,.2-.2.2-.4,0-.2,0-.3,0-.6v-4.9c0-.1,0-.3,0-.5,0-.2,0-.4,0-.5-.1,0-.3,0-.5,0s-.3,0-.4,0v-.9c.4,0,.7,0,.9,0,.3,0,.5,0,.6-.1.1,0,.2-.1.3-.2h.6v7.1c0,.1,0,.3,0,.5,0,.2,0,.4,0,.6.1,0,.3,0,.4,0s.3,0,.3,0v.9h-3.1v-.8Z"/>
      <path d="M569.6,199.6c-.3,0-.7,0-1-.1s-.6-.2-.9-.4c-.3-.2-.5-.4-.7-.7-.2-.3-.2-.6-.2-1s.2-1,.5-1.4c.4-.4.8-.7,1.3-.9-.3-.3-.5-.6-.6-.9-.1-.3-.2-.5-.3-.7,0-.2,0-.4,0-.7,0-.6.2-1.1.6-1.4.4-.4,1-.5,1.7-.5s.8,0,1.1.3c.3.2.6.4.7.7s.3.6.3.9,0,.6-.2.9-.4.6-.6.8c-.3.2-.5.4-.8.6,0,0,.1.1.3.3.2.2.4.4.7.7s.6.6.9.8c0,0,0-.2,0-.3,0,0,0-.2,0-.3,0-.2,0-.4,0-.5s-.1-.2-.2-.3c0,0-.2,0-.4-.1v-.8h2v.9h-.7c0,0,0,.2,0,.3,0,.1,0,.3,0,.4,0,.2,0,.5,0,.7,0,.2,0,.4-.2.6,0,0,0,0,0,0,0,0,0,0,0,0,.3.3.6.5.9.6.3.2.5.3.6.3v.8h-1.3c0,0-.2,0-.4-.2-.2-.1-.5-.3-.8-.5-.3.3-.7.5-1.1.6s-.9.2-1.4.2ZM570,198.8c.3,0,.6,0,.8-.1.3-.1.5-.2.7-.4-.1,0-.2-.2-.3-.3,0,0-.2-.2-.3-.3-.5-.4-.8-.8-1.1-1.1s-.5-.6-.8-.9c-.2.1-.3.3-.4.4s-.1.3-.2.5,0,.3,0,.4c0,.4,0,.7.2.9s.3.4.6.6.5.2.9.2ZM569.8,194.4c.3-.2.5-.5.7-.9.2-.3.2-.6.2-.9s0-.5-.2-.7c-.1-.2-.3-.3-.6-.3s-.4,0-.6.3c-.2.2-.2.5-.2.8s0,.5.2.8.3.6.5.8Z"/>
      <path d="M578.3,199.4v-.8c.2,0,.3,0,.5,0s.2-.1.3-.3c0-.1.1-.4.1-.7v-4.6c0-.2,0-.4,0-.6s0-.4,0-.5c-.1,0-.3,0-.5,0-.2,0-.3,0-.4,0v-.9h6v2.3c0,0-.7,0-.7,0,0-.4,0-.8-.2-1-.2-.2-.3-.4-.6-.4-.2,0-.4-.1-.7-.1h-.4c-.2,0-.3,0-.4,0s-.2.1-.3.3c0,.1,0,.4,0,.7v2.1h1.2v-1s.9,0,.9,0v2.9h-.8c0-.3,0-.6-.2-.7-.1-.2-.2-.2-.4-.3-.2,0-.4,0-.6,0h-.1v1.7c0,.2,0,.4,0,.6s0,.4,0,.5c0,0,.2,0,.3,0,.1,0,.3,0,.4,0,.1,0,.2,0,.3,0v.9h-3.6Z"/>
      <path d="M588,199.6c-.6,0-1.1-.1-1.6-.4s-.8-.6-1.1-1.1c-.3-.5-.4-1-.4-1.6s.1-1.2.4-1.7.6-.9,1.1-1.2c.5-.3,1-.4,1.5-.4s1.1.1,1.5.4.8.6,1.1,1.1c.3.5.4,1,.4,1.6s-.1,1.3-.4,1.8c-.3.5-.6.9-1.1,1.1-.4.3-1,.4-1.5.4ZM588,198.8c.3,0,.6-.1.7-.3s.3-.5.3-.8c0-.3,0-.7,0-1s0-.6,0-.9-.1-.6-.2-.8-.2-.4-.4-.6c-.2-.2-.4-.2-.6-.2-.3,0-.6.1-.7.3-.2.2-.3.5-.4.8s-.1.7-.1,1,0,.8.1,1.2c0,.4.2.7.4,1s.5.4.8.4Z"/>
      <path d="M594.8,199.6c-.6,0-1.1-.1-1.6-.4s-.8-.6-1.1-1.1c-.3-.5-.4-1-.4-1.6s.1-1.2.4-1.7.6-.9,1.1-1.2c.5-.3,1-.4,1.5-.4s1.1.1,1.5.4.8.6,1.1,1.1c.3.5.4,1,.4,1.6s-.1,1.3-.4,1.8c-.3.5-.6.9-1.1,1.1-.4.3-1,.4-1.5.4ZM594.8,198.8c.3,0,.6-.1.7-.3s.3-.5.3-.8c0-.3,0-.7,0-1s0-.6,0-.9-.1-.6-.2-.8-.2-.4-.4-.6c-.2-.2-.4-.2-.6-.2-.3,0-.6.1-.7.3-.2.2-.3.5-.4.8s-.1.7-.1,1,0,.8.1,1.2c0,.4.2.7.4,1s.5.4.8.4Z"/>
      <path d="M600.9,199.6c-.5,0-.9-.1-1.3-.4s-.6-.6-.9-1.1-.3-1-.3-1.6.1-1.2.4-1.7.6-.9,1-1.2c.4-.3,1-.4,1.6-.4s.4,0,.6,0,.3,0,.5.2v-.8c0-.1,0-.3,0-.5s0-.4,0-.6c-.1,0-.3,0-.5,0-.2,0-.3,0-.4,0v-.9c.4,0,.7,0,.9,0s.5,0,.6-.1c.1,0,.2-.1.3-.2h.6v7.1c0,.1,0,.3,0,.5s0,.4,0,.6c.1,0,.3,0,.4,0,.2,0,.3,0,.3,0v.9h-2.3c0,0,0-.2,0-.3,0,0,0-.2,0-.3-.3.3-.5.5-.8.6-.3.1-.6.2-.9.2ZM601.6,198.5c.2,0,.4,0,.6-.2.2-.1.3-.2.4-.4v-3.6c0,0-.2-.1-.4-.2s-.3,0-.5,0c-.4,0-.7.1-.9.3s-.4.5-.4.9c0,.3-.1.7-.1,1.1s0,.7.1,1c0,.3.2.6.4.8.2.2.4.3.8.3Z"/>
    </g>
    <g>
      <path d="M301.5,337v-.8c.2,0,.4,0,.5-.2s.2-.3.3-.5c0-.2.2-.4.3-.7l2.3-6.4h.8l2.6,6.5c0,.1.1.3.2.5s.1.5.1.6c.1,0,.3,0,.4,0s.2,0,.3,0v.9h-3.2v-.8c.2,0,.4,0,.5-.1s.1-.2.1-.4,0-.3-.1-.5l-.2-.7h-2.6s-.2.6-.2.6c0,.1,0,.3-.2.5,0,.2-.1.4-.2.5.1,0,.3,0,.5,0,.2,0,.3,0,.4,0v1h-2.6ZM304,333.7h2l-.6-1.5c-.1-.3-.2-.6-.3-.9,0-.3-.1-.5-.2-.8h0c0,.1,0,.3-.1.6,0,.3-.2.6-.3,1l-.5,1.6Z"/>
      <path d="M312.4,337.2c-.5,0-.9,0-1.2-.3s-.5-.5-.6-.9c-.1-.4-.2-.9-.2-1.5v-1.4c0-.1,0-.3,0-.5,0-.2,0-.4,0-.5-.1,0-.3,0-.5,0s-.3,0-.4,0v-.9h.1c.5,0,.9,0,1.2-.1s.5-.2.6-.2h.7v3.7c0,.5,0,.9.2,1.2.1.3.4.4.6.4s.4,0,.6-.2.4-.2.5-.4v-2.4c0-.1,0-.3,0-.5,0-.2,0-.4,0-.5-.1,0-.3,0-.5,0-.2,0-.3,0-.4,0v-.9h.3c.4,0,.7,0,1-.1s.5-.2.6-.2h.7v4.2c0,.1,0,.3,0,.5,0,.2,0,.4,0,.6.1,0,.3,0,.4,0,.2,0,.3,0,.4,0v.9h-2.3c0-.1,0-.2,0-.3,0-.1,0-.2,0-.3-.2.2-.5.4-.8.6-.3.2-.6.3-1,.3Z"/>
      <path d="M319.7,337.2c-.2,0-.5,0-.7,0-.2,0-.4-.2-.6-.3-.2-.2-.3-.4-.4-.7-.1-.3-.2-.7-.2-1.2v-2.9s-.8,0-.8,0v-1c.2,0,.5,0,.7-.3s.4-.4.6-.6c.2-.3.3-.5.3-.8h.9v1.7s1.5,0,1.5,0v.9h-1.5s0,3,0,3c0,.2,0,.4,0,.5,0,.2.1.3.2.4.1.1.3.2.5.2s.3,0,.5-.1c.2,0,.4-.3.6-.6l.6.5c-.2.3-.4.6-.7.7-.2.2-.5.3-.7.4-.2,0-.4.1-.6.1-.2,0-.3,0-.3,0Z"/>
      <path d="M325.2,337.2c-.6,0-1.1-.1-1.6-.4-.5-.2-.8-.6-1.1-1.1s-.4-1-.4-1.6.1-1.2.4-1.7c.3-.5.6-.9,1.1-1.2.5-.3,1-.4,1.5-.4s1.1.1,1.5.4.8.6,1.1,1.1.4,1,.4,1.6-.1,1.3-.4,1.8c-.3.5-.6.9-1.1,1.1-.4.3-1,.4-1.5.4ZM325.3,336.4c.3,0,.6-.1.7-.3s.3-.5.3-.8,0-.7,0-1,0-.6,0-.9-.1-.6-.2-.8c0-.2-.2-.4-.4-.6-.2-.2-.4-.2-.6-.2-.3,0-.6.1-.7.3-.2.2-.3.5-.4.8s-.1.7-.1,1,0,.8.1,1.2c0,.4.2.7.4,1,.2.3.5.4.8.4Z"/>
      <path d="M332.1,340.1v-.8c.2,0,.4,0,.5-.1.1,0,.2-.2.2-.4,0-.2,0-.3,0-.6v-5.1c0-.1,0-.3,0-.5,0-.2,0-.4,0-.5-.1,0-.3,0-.5,0-.2,0-.3,0-.4,0v-.9c.4,0,.7,0,.9,0s.5,0,.6-.1c.1,0,.2-.1.3-.2h.6c0,0,0,.2,0,.3,0,.1,0,.2,0,.3.3-.2.6-.4.8-.5.3,0,.5-.1.8-.1.5,0,.9.1,1.3.4s.6.6.9,1.1.3,1,.3,1.6-.1,1.2-.4,1.7c-.2.5-.6.9-1,1.2s-1,.4-1.6.4-.4,0-.6,0c-.2,0-.3,0-.5-.2v1.2c0,.1,0,.3,0,.5,0,.2,0,.4,0,.6.1,0,.3,0,.4,0,.2,0,.3,0,.3,0v.9h-3.1ZM335.4,336.3c.4,0,.7-.1.9-.3s.3-.5.4-.8.1-.7.1-1.1,0-.7-.1-1c0-.3-.2-.6-.4-.8-.2-.2-.4-.3-.8-.3-.2,0-.4,0-.6.2s-.3.2-.4.4v3.7c0,0,.2.1.4.2.2,0,.3,0,.5,0Z"/>
      <path d="M342.8,337c0-.1,0-.2,0-.3s0-.2,0-.3c-.3.3-.6.5-.9.6-.3.1-.6.2-.9.2-.5,0-.9-.2-1.2-.5-.3-.3-.4-.7-.4-1.1s0-.7.3-1c.2-.3.5-.5.8-.7.3-.2.7-.3,1.1-.4s.8-.1,1.2-.2v-.6c0-.2,0-.4,0-.6s-.1-.3-.3-.4c-.1,0-.3-.1-.5-.1-.2,0-.3,0-.4,0-.1,0-.3.1-.4.2,0,0,.1.2.1.2s0,.2,0,.2c0,.2,0,.3-.2.5s-.3.3-.6.2c-.2,0-.4,0-.6-.3s-.2-.3-.2-.6c0-.3.1-.6.3-.8.2-.2.5-.4.9-.6.4-.1.8-.2,1.3-.2.7,0,1.2.2,1.6.5.4.4.6.9.6,1.7v.7c0,.2,0,.4,0,.6,0,.2,0,.4,0,.7s0,.3,0,.5c0,.2,0,.4,0,.6.1,0,.3,0,.4,0,.2,0,.3,0,.3,0v.9h-2.3ZM342.7,334.3c-.2,0-.4,0-.6.1-.2,0-.4.1-.5.2-.1,0-.3.2-.3.3,0,.1-.1.3-.1.5,0,.2,0,.4.2.5.1,0,.3.1.5.1s.4,0,.5-.1c.2,0,.3-.2.4-.3v-1.3Z"/>
      <path d="M345.7,336.3c.2,0,.4,0,.5-.1,0,0,.2-.2.2-.4,0-.2,0-.3,0-.6v-2c0-.1,0-.3,0-.5,0-.2,0-.4,0-.5-.1,0-.3,0-.5,0s-.3,0-.4,0v-.9h.5c.3,0,.6,0,.9-.1.3,0,.4-.2.5-.2h.6c0,0,0,.2,0,.5s0,.4,0,.6c.2-.3.4-.5.6-.6s.4-.3.6-.4c.2,0,.4-.1.6-.1.3,0,.5,0,.7.2s.3.4.3.8,0,.2,0,.4c0,.1-.1.2-.3.3-.1,0-.3.1-.5.1s-.3,0-.5-.1-.3-.3-.3-.6c-.2,0-.3,0-.5.2-.2.1-.3.3-.4.5-.1.2-.2.3-.3.5v2c0,.1,0,.3,0,.5,0,.2,0,.4,0,.6.1,0,.3,0,.4,0,.2,0,.3,0,.4,0v.9h-3.1v-.8Z"/>
      <path d="M353.9,337.2c-.2,0-.5,0-.7,0-.2,0-.4-.2-.6-.3-.2-.2-.3-.4-.4-.7-.1-.3-.2-.7-.2-1.2v-2.9s-.8,0-.8,0v-1c.2,0,.5,0,.7-.3s.4-.4.6-.6c.2-.3.3-.5.3-.8h.9v1.7s1.5,0,1.5,0v.9h-1.5s0,3,0,3c0,.2,0,.4,0,.5,0,.2.1.3.2.4.1.1.3.2.5.2s.3,0,.5-.1c.2,0,.4-.3.6-.6l.6.5c-.2.3-.4.6-.7.7-.2.2-.5.3-.7.4-.2,0-.4.1-.6.1-.2,0-.3,0-.3,0Z"/>
      <path d="M359.2,337.2c-.3,0-.7,0-1-.1-.3,0-.6-.2-.8-.3v.4s-.9,0-.9,0v-2.1s.7,0,.7,0c0,.2.1.5.3.7.2.2.4.4.7.5s.6.2.9.2.3,0,.4,0c.1,0,.2-.1.3-.2s.1-.2.1-.3,0-.3-.2-.4c-.1,0-.3-.2-.5-.3s-.5-.2-.8-.3c-.2,0-.5-.2-.8-.3-.3-.1-.5-.2-.7-.4-.2-.1-.4-.3-.5-.6-.1-.2-.2-.5-.2-.8s0-.5.1-.7c0-.2.2-.4.4-.6.2-.2.4-.3.7-.5.3-.1.6-.2,1-.2s.5,0,.7.1.5.2.7.3v-.3h.9v2.1h-.8c0-.3-.1-.5-.3-.7-.1-.2-.3-.4-.6-.5-.2-.1-.5-.2-.8-.2s-.4,0-.5.1-.2.3-.2.5,0,.3.2.4c.1.1.3.2.5.3.2,0,.5.2.7.3.4.1.8.3,1.1.5.3.2.6.4.8.7.2.3.3.6.3,1s-.1.8-.3,1c-.2.3-.5.5-.8.6s-.7.2-1.1.2Z"/>
    </g>
    <g>
      <path d="M385.4,395.1l-2.8-6.4c0-.2-.2-.4-.2-.6,0-.2-.1-.4-.1-.5-.1,0-.2,0-.4,0s-.2,0-.3,0v-.9h3.5v.8c-.3,0-.5,0-.7.2-.2.1-.2.4,0,.7.2.4.4.9.6,1.4.2.5.4.9.6,1.4.1.3.3.6.3.9,0,.3.2.5.3.8h0c0-.2.2-.5.3-.8s.2-.6.3-.9c.1-.3.2-.6.3-.8s.2-.6.3-.8c.1-.3.2-.6.3-.8,0-.1.1-.3.2-.6,0-.2.2-.4.3-.5-.1,0-.3,0-.5,0-.2,0-.3,0-.4,0v-.9h2.7v.8c-.3,0-.5.1-.7.3-.2.2-.4.5-.6,1-.1.4-.3.7-.4,1.1-.1.4-.3.7-.4,1.1-.1.4-.3.7-.4,1.1-.1.4-.3.7-.4,1.1-.1.4-.3.7-.4,1.1-.1.4-.3.7-.4,1.1h-1Z"/>
      <path d="M390.6,394.2c.2,0,.4,0,.5-.1,0,0,.2-.2.2-.4,0-.2,0-.3,0-.6v-2c0-.1,0-.3,0-.5s0-.4,0-.5c-.1,0-.3,0-.5,0s-.3,0-.4,0v-.9c.4,0,.7,0,.9,0,.3,0,.5,0,.6-.1.1,0,.2-.1.3-.2h.6v4.2c0,.1,0,.3,0,.5,0,.2,0,.4,0,.6.1,0,.3,0,.4,0,.2,0,.3,0,.4,0v.9h-3.1v-.8ZM392.1,388c-.3,0-.5,0-.7-.3-.2-.2-.3-.4-.3-.7s0-.5.3-.7.4-.3.6-.3.5,0,.6.3c.2.2.3.4.3.7s0,.5-.2.7c-.2.2-.4.3-.6.3Z"/>
      <path d="M396.8,395.2c-.5,0-.9-.1-1.3-.4-.4-.2-.6-.6-.9-1.1s-.3-1-.3-1.6.1-1.2.4-1.7.6-.9,1-1.2c.4-.3,1-.4,1.6-.4s.4,0,.6,0,.3,0,.5.2v-.8c0-.1,0-.3,0-.5s0-.4,0-.6c-.1,0-.3,0-.5,0-.2,0-.3,0-.4,0v-.9c.4,0,.7,0,.9,0s.5,0,.6-.1c.1,0,.2-.1.3-.2h.6v7.1c0,.1,0,.3,0,.5s0,.4,0,.6c.1,0,.3,0,.4,0s.3,0,.3,0v.9h-2.3c0,0,0-.2,0-.3,0,0,0-.2,0-.3-.3.3-.5.5-.8.6-.3.1-.6.2-.9.2ZM397.5,394.1c.2,0,.4,0,.6-.2.2-.1.3-.2.4-.4v-3.6c0,0-.2-.1-.4-.2s-.3,0-.5,0c-.4,0-.7.1-.9.3s-.4.5-.4.9c0,.3-.1.7-.1,1.1s0,.7.1,1c0,.3.2.6.4.8s.4.3.8.3Z"/>
      <path d="M404.5,395.2c-.6,0-1.1-.1-1.5-.4-.4-.3-.8-.6-1-1.1-.2-.5-.4-1-.4-1.7s.1-1.1.4-1.6c.2-.5.6-.9,1-1.2s1-.5,1.6-.5.7,0,1,.1.6.2.9.5c.3.2.5.5.6.9.2.4.2.9.2,1.4h-3.9c0,.5,0,.9.2,1.2.1.3.3.6.5.8s.6.3,1,.3.3,0,.5,0,.4-.2.6-.3.4-.3.6-.5l.5.5c-.3.4-.6.7-.9.9s-.7.4-1,.4-.6.1-.9.1ZM403.4,391h2.2c0-.3,0-.6-.1-.8s-.2-.3-.3-.4-.3-.1-.5-.1c-.4,0-.6.1-.8.4-.2.3-.3.6-.4,1Z"/>
      <path d="M411.1,395.2c-.6,0-1.1-.1-1.6-.4-.5-.2-.8-.6-1.1-1.1s-.4-1-.4-1.6.1-1.2.4-1.7c.3-.5.6-.9,1.1-1.2.5-.3,1-.4,1.5-.4s1.1.1,1.5.4.8.6,1.1,1.1.4,1,.4,1.6-.1,1.3-.4,1.8c-.3.5-.6.9-1.1,1.1-.4.3-1,.4-1.5.4ZM411.1,394.4c.3,0,.6-.1.7-.3s.3-.5.3-.8,0-.7,0-1,0-.6,0-.9-.1-.6-.2-.8c0-.2-.2-.4-.4-.6-.2-.2-.4-.2-.6-.2-.3,0-.6.1-.7.3-.2.2-.3.5-.4.8s-.1.7-.1,1,0,.8.1,1.2c0,.4.2.7.4,1,.2.3.5.4.8.4Z"/>
      <path d="M420.7,398.3c-.7,0-1.2,0-1.6-.2-.4-.1-.7-.3-.9-.6s-.3-.5-.3-.8,0-.3.1-.5c0-.2.2-.3.4-.5.2-.2.4-.3.7-.4-.3,0-.6-.2-.7-.4-.1-.2-.2-.4-.2-.6s0-.4.3-.7.5-.5.9-.6c-.3-.1-.6-.3-.8-.6-.2-.3-.3-.6-.3-1,0-.5.1-.9.4-1.3.3-.4.6-.7,1-.9s.9-.3,1.3-.3.4,0,.7,0c.3,0,.5.2.7.3,0-.2.2-.5.3-.7.1-.2.3-.4.5-.5.2-.1.4-.2.7-.2s.5,0,.6.2c.1.1.2.3.2.6s0,.2,0,.3c0,.1-.1.2-.2.3-.1,0-.3.1-.4.1s-.2,0-.4-.1-.2-.2-.2-.3c-.1,0-.2.1-.3.3-.1.2-.2.3-.2.5.2.2.4.4.5.7.1.3.2.5.2.9,0,.5-.1.9-.4,1.2-.3.4-.6.6-1,.8s-.9.3-1.3.3-.2,0-.3,0c-.1,0-.3,0-.4,0-.2,0-.3,0-.4,0-.1,0-.2.2-.2.3s.1.3.3.3c.2,0,.6.1,1.2.1.6,0,1.2.1,1.6.2s.8.3,1.1.6c.3.3.4.6.4,1.1s-.1.6-.3.9c-.2.3-.5.5-.8.7-.3.2-.7.3-1.1.4-.4,0-.8.1-1.2.1ZM421,397.5c.6,0,1-.1,1.3-.3s.4-.4.4-.6,0-.3-.2-.4c-.1-.1-.3-.2-.6-.3-.3,0-.6-.1-1-.1-.2,0-.4,0-.6,0-.2,0-.4,0-.6,0-.1,0-.2.2-.3.4,0,.1-.1.3-.1.4,0,.3.1.6.4.8s.7.3,1.2.3ZM420.8,392.7c.2,0,.4,0,.5-.2s.3-.3.3-.5c0-.2.1-.4.1-.6s0-.5-.1-.8c0-.3-.2-.5-.3-.6s-.3-.2-.6-.2-.6.1-.7.4c-.2.3-.3.6-.3,1s0,.5.1.8c0,.3.2.5.3.6.2.2.3.2.6.2Z"/>
      <path d="M428.1,395c0-.1,0-.2,0-.3s0-.2,0-.3c-.3.3-.6.5-.9.6-.3.1-.6.2-.9.2-.5,0-.9-.2-1.2-.5-.3-.3-.4-.7-.4-1.1s0-.7.3-1c.2-.3.5-.5.8-.7.3-.2.7-.3,1.1-.4.4,0,.8-.1,1.2-.2v-.6c0-.2,0-.4,0-.6,0-.2-.1-.3-.3-.4-.1,0-.3-.1-.5-.1-.2,0-.3,0-.4,0-.1,0-.3.1-.4.2,0,0,.1.2.1.2,0,0,0,.2,0,.2,0,.2,0,.3-.2.5s-.3.3-.6.2c-.2,0-.4,0-.6-.3s-.2-.3-.2-.6c0-.3.1-.6.3-.8.2-.2.5-.4.9-.6.4-.1.8-.2,1.3-.2.7,0,1.2.2,1.6.5.4.4.6.9.6,1.7v.7c0,.2,0,.4,0,.6s0,.4,0,.7,0,.3,0,.5c0,.2,0,.4,0,.6.1,0,.3,0,.4,0s.3,0,.3,0v.9h-2.3ZM428,392.3c-.2,0-.4,0-.6.1-.2,0-.4.1-.5.2s-.3.2-.3.3c0,.1-.1.3-.1.5,0,.2,0,.4.2.5s.3.1.5.1.4,0,.5-.1c.2,0,.3-.2.4-.3v-1.3Z"/>
      <path d="M431,395v-.8c.2,0,.4,0,.5-.1,0,0,.2-.2.2-.4s0-.3,0-.6v-2c0-.1,0-.3,0-.5,0-.2,0-.4,0-.5-.1,0-.3,0-.5,0s-.3,0-.4,0v-.9c.4,0,.7,0,.9,0,.3,0,.5,0,.6-.1s.2-.1.3-.2h.6c0,0,0,.2,0,.3s0,.2,0,.3c.3-.2.6-.4.9-.5.3-.1.6-.2.9-.2s.7,0,.9.2.4.3.6.6c.3-.2.6-.4,1-.6.3-.1.7-.2,1-.2.6,0,1.1.2,1.5.6s.5,1,.5,1.9v1.8c0,.1,0,.3,0,.5s0,.4,0,.6c.1,0,.3,0,.4,0s.3,0,.4,0v.9h-3v-.8c.2,0,.3,0,.4-.1s.1-.2.2-.4c0-.2,0-.3,0-.6v-1.8c0-.5,0-.9-.3-1.1s-.4-.3-.7-.3c-.2,0-.4,0-.6.1-.2,0-.3.2-.5.3,0,.2,0,.3,0,.5,0,.2,0,.4,0,.6v1.6c0,.1,0,.3,0,.5s0,.4,0,.6c.1,0,.3,0,.4,0,.2,0,.3,0,.4,0v.9h-3.1v-.8c.2,0,.4,0,.4-.1s.2-.2.2-.4c0-.2,0-.3,0-.6v-1.9c0-.5,0-.9-.2-1.1-.2-.2-.4-.3-.6-.3-.2,0-.4,0-.6.1s-.3.2-.5.3v2.7c0,.1,0,.3,0,.5,0,.2,0,.4,0,.6.1,0,.3,0,.4,0s.2,0,.3,0v.9h-3.1Z"/>
      <path d="M444.9,395.2c-.6,0-1.1-.1-1.5-.4s-.8-.6-1-1.1c-.2-.5-.4-1-.4-1.7s.1-1.1.4-1.6c.2-.5.6-.9,1-1.2s1-.5,1.6-.5.7,0,1,.1c.3,0,.6.2.9.5.3.2.5.5.6.9.2.4.2.9.2,1.4h-3.9c0,.5,0,.9.2,1.2.1.3.3.6.5.8s.6.3,1,.3.3,0,.5,0,.4-.2.6-.3.4-.3.6-.5l.5.5c-.3.4-.6.7-.9.9s-.7.4-1,.4-.6.1-.9.1ZM443.8,391h2.2c0-.3,0-.6-.1-.8s-.2-.3-.3-.4c-.1,0-.3-.1-.5-.1-.4,0-.6.1-.8.4-.2.3-.3.6-.4,1Z"/>
      <path d="M451.3,395.2c-.3,0-.7,0-1-.1s-.6-.2-.8-.3v.4s-.9,0-.9,0v-2.1s.7,0,.7,0c0,.2.1.5.3.7.2.2.4.4.7.5.3.1.6.2.9.2s.3,0,.4,0c.1,0,.2-.1.3-.2s.1-.2.1-.3,0-.3-.2-.4c-.1,0-.3-.2-.5-.3s-.5-.2-.8-.3c-.2,0-.5-.2-.8-.3-.3-.1-.5-.2-.7-.4-.2-.1-.4-.3-.5-.6-.1-.2-.2-.5-.2-.8s0-.5.1-.7c0-.2.2-.4.4-.6.2-.2.4-.3.7-.5.3-.1.6-.2,1-.2s.5,0,.7.1c.3,0,.5.2.7.3v-.3h.9v2.1h-.8c0-.3-.1-.5-.3-.7-.1-.2-.3-.4-.6-.5-.2-.1-.5-.2-.8-.2s-.4,0-.5.1-.2.3-.2.5,0,.3.2.4c.1.1.3.2.5.3s.5.2.7.3c.4.1.8.3,1.1.5.3.2.6.4.8.7.2.3.3.6.3,1s-.1.8-.3,1c-.2.3-.5.5-.8.6s-.7.2-1.1.2Z"/>
    </g>
    <g>
      <path d="M469.8,450.3c-.1-.7-.3-1.2-.7-1.5-.3-.3-.8-.5-1.4-.5-.4,0-.8,0-1.1.3-.3.2-.6.4-.8.8-.2.3-.4.7-.5,1.1-.1.4-.1.8-.1,1.3,0,.7,0,1.3.3,1.8.2.5.5,1,.9,1.3.4.3.8.5,1.4.5s1-.1,1.5-.4.9-.6,1.2-1.1l.6.5c-.4.5-.8.9-1.2,1.2-.4.3-.9.5-1.3.6s-.8.1-1.1.1c-.6,0-1.2-.1-1.7-.3-.5-.2-.9-.5-1.3-.9-.4-.4-.6-.8-.8-1.4-.2-.5-.3-1.1-.3-1.7s0-1.1.3-1.6.4-1,.8-1.5c.3-.4.8-.8,1.3-1s1.1-.4,1.8-.4.7,0,1,.1c.4.1.7.2,1,.4v-.5s.9,0,.9,0v2.8h-.8Z"/>
      <path d="M474.7,456.2c-.6,0-1.1-.1-1.6-.4s-.8-.6-1.1-1.1c-.3-.5-.4-1-.4-1.6s.1-1.2.4-1.7.6-.9,1.1-1.2c.5-.3,1-.4,1.5-.4s1.1.1,1.5.4c.5.2.8.6,1.1,1.1.3.5.4,1,.4,1.6s-.1,1.3-.4,1.8c-.3.5-.6.9-1.1,1.1-.4.3-1,.4-1.5.4ZM474.7,455.4c.3,0,.6-.1.7-.3s.3-.5.3-.8,0-.7,0-1,0-.6,0-.9-.1-.6-.2-.8c0-.2-.2-.4-.4-.6-.2-.2-.4-.2-.6-.2-.3,0-.6.1-.7.3-.2.2-.3.5-.4.8s-.1.7-.1,1,0,.8.1,1.2c0,.4.2.7.4,1,.2.3.5.4.8.4Z"/>
      <path d="M478.5,456v-.8c.2,0,.4,0,.5-.1s.2-.2.2-.4,0-.3,0-.6v-2c0-.1,0-.3,0-.5,0-.2,0-.4,0-.5-.1,0-.3,0-.5,0s-.3,0-.4,0v-.9c.4,0,.7,0,.9,0,.3,0,.5,0,.6-.1s.2-.1.3-.2h.6c0,0,0,.2,0,.3s0,.2,0,.3c.3-.2.6-.4.9-.5.3-.1.6-.2.9-.2s.7,0,.9.2c.2.1.4.3.6.6.3-.2.6-.4,1-.6.3-.1.7-.2,1-.2.6,0,1.1.2,1.5.6s.5,1,.5,1.9v1.8c0,.1,0,.3,0,.5s0,.4,0,.6c.1,0,.3,0,.4,0s.3,0,.4,0v.9h-3v-.8c.2,0,.3,0,.4-.1s.1-.2.2-.4,0-.3,0-.6v-1.8c0-.5,0-.9-.3-1.1s-.4-.3-.7-.3c-.2,0-.4,0-.6.1s-.3.2-.5.3c0,.2,0,.3,0,.5,0,.2,0,.4,0,.6v1.6c0,.1,0,.3,0,.5,0,.2,0,.4,0,.6.1,0,.3,0,.4,0s.3,0,.4,0v.9h-3.1v-.8c.2,0,.4,0,.5-.1s.2-.2.2-.4c0-.2,0-.3,0-.6v-1.9c0-.5,0-.9-.2-1.1s-.4-.3-.6-.3c-.2,0-.4,0-.6.1s-.3.2-.5.3v2.7c0,.1,0,.3,0,.5s0,.4,0,.6c.1,0,.3,0,.4,0s.2,0,.3,0v.9h-3.1Z"/>
      <path d="M489.5,459.1v-.8c.2,0,.4,0,.5-.1.1,0,.2-.2.2-.4s0-.3,0-.6v-5.1c0-.1,0-.3,0-.5,0-.2,0-.4,0-.5-.1,0-.3,0-.5,0s-.3,0-.4,0v-.9c.4,0,.7,0,.9,0s.5,0,.6-.1.2-.1.3-.2h.6c0,0,0,.2,0,.3,0,.1,0,.2,0,.3.3-.2.6-.4.8-.5s.5-.1.8-.1c.5,0,.9.1,1.3.4s.6.6.9,1.1c.2.5.3,1,.3,1.6s-.1,1.2-.4,1.7c-.2.5-.6.9-1,1.2s-1,.4-1.6.4-.4,0-.6,0-.3,0-.5-.2v1.2c0,.1,0,.3,0,.5,0,.2,0,.4,0,.6.1,0,.3,0,.4,0,.2,0,.3,0,.3,0v.9h-3.1ZM492.7,455.3c.4,0,.7-.1.9-.3.2-.2.3-.5.4-.8s.1-.7.1-1.1,0-.7-.1-1-.2-.6-.4-.8c-.2-.2-.4-.3-.8-.3-.2,0-.4,0-.6.2s-.3.2-.4.4v3.7c0,0,.2.1.4.2.2,0,.3,0,.5,0Z"/>
      <path d="M499.3,456.2c-.5,0-.9,0-1.2-.3-.3-.2-.5-.5-.6-.9-.1-.4-.2-.9-.2-1.5v-1.4c0-.1,0-.3,0-.5,0-.2,0-.4,0-.5-.1,0-.3,0-.5,0s-.3,0-.4,0v-.9h.1c.5,0,.9,0,1.2-.1.3,0,.5-.2.6-.2h.7v3.7c0,.5,0,.9.2,1.2.1.3.4.4.6.4s.4,0,.6-.2.4-.2.5-.4v-2.4c0-.1,0-.3,0-.5s0-.4,0-.5c-.1,0-.3,0-.5,0s-.3,0-.4,0v-.9h.3c.4,0,.7,0,1-.1.3,0,.5-.2.6-.2h.7v4.2c0,.1,0,.3,0,.5s0,.4,0,.6c.1,0,.3,0,.4,0s.3,0,.4,0v.9h-2.3c0-.1,0-.2,0-.3,0-.1,0-.2,0-.3-.2.2-.5.4-.8.6-.3.2-.6.3-1,.3Z"/>
      <path d="M506.6,456.2c-.2,0-.5,0-.7,0-.2,0-.4-.2-.6-.3-.2-.2-.3-.4-.4-.7-.1-.3-.2-.7-.2-1.2v-2.9s-.8,0-.8,0v-1c.2,0,.5,0,.7-.3s.4-.4.6-.6c.2-.3.3-.5.3-.8h.9v1.7s1.5,0,1.5,0v.9h-1.5s0,3,0,3c0,.2,0,.4,0,.5,0,.2.1.3.2.4.1.1.3.2.5.2s.3,0,.5-.1c.2,0,.4-.3.6-.6l.6.5c-.2.3-.4.6-.7.7-.2.2-.5.3-.7.4-.2,0-.4.1-.6.1s-.3,0-.3,0Z"/>
      <path d="M512,456.2c-.6,0-1.1-.1-1.5-.4s-.8-.6-1-1.1c-.2-.5-.4-1-.4-1.7s.1-1.1.4-1.6c.2-.5.6-.9,1-1.2s1-.5,1.6-.5.7,0,1,.1c.3,0,.6.2.9.5.3.2.5.5.6.9s.2.9.2,1.4h-3.9c0,.5,0,.9.2,1.2.1.3.3.6.5.8s.6.3,1,.3.3,0,.5,0,.4-.2.6-.3.4-.3.6-.5l.5.5c-.3.4-.6.7-.9.9s-.7.4-1,.4-.6.1-.9.1ZM510.9,452h2.2c0-.3,0-.6-.1-.8s-.2-.3-.3-.4c-.1,0-.3-.1-.5-.1-.4,0-.6.1-.8.4-.2.3-.3.6-.4,1Z"/>
      <path d="M515.6,455.3c.2,0,.4,0,.5-.1s.2-.2.2-.4,0-.3,0-.6v-2c0-.1,0-.3,0-.5,0-.2,0-.4,0-.5-.1,0-.3,0-.5,0s-.3,0-.4,0v-.9h.5c.3,0,.6,0,.9-.1.3,0,.4-.2.5-.2h.6c0,0,0,.2,0,.5s0,.4,0,.6c.2-.3.4-.5.6-.6s.4-.3.6-.4c.2,0,.4-.1.6-.1.3,0,.5,0,.7.2s.3.4.3.8,0,.2,0,.4c0,.1-.1.2-.3.3-.1,0-.3.1-.5.1s-.3,0-.5-.1-.3-.3-.3-.6c-.2,0-.3,0-.5.2-.2.1-.3.3-.4.5-.1.2-.2.3-.3.5v2c0,.1,0,.3,0,.5s0,.4,0,.6c.1,0,.3,0,.4,0s.3,0,.4,0v.9h-3.1v-.8Z"/>
      <path d="M524.4,459.1v-.8c.2,0,.4,0,.5-.1.1,0,.2-.2.2-.4,0-.2,0-.3,0-.6v-5.1c0-.1,0-.3,0-.5,0-.2,0-.4,0-.5-.1,0-.3,0-.5,0-.2,0-.3,0-.4,0v-.9c.4,0,.7,0,.9,0s.5,0,.6-.1.2-.1.3-.2h.6c0,0,0,.2,0,.3,0,.1,0,.2,0,.3.3-.2.6-.4.8-.5.3,0,.5-.1.8-.1.5,0,.9.1,1.3.4.4.2.6.6.9,1.1s.3,1,.3,1.6-.1,1.2-.4,1.7c-.2.5-.6.9-1,1.2-.4.3-1,.4-1.6.4s-.4,0-.6,0c-.2,0-.3,0-.5-.2v1.2c0,.1,0,.3,0,.5,0,.2,0,.4,0,.6.1,0,.3,0,.4,0,.2,0,.3,0,.3,0v.9h-3.1ZM527.7,455.3c.4,0,.7-.1.9-.3s.3-.5.4-.8.1-.7.1-1.1,0-.7-.1-1c0-.3-.2-.6-.4-.8s-.4-.3-.8-.3c-.2,0-.4,0-.6.2s-.3.2-.4.4v3.7c0,0,.2.1.4.2.2,0,.3,0,.5,0Z"/>
      <path d="M535.1,456c0-.1,0-.2,0-.3s0-.2,0-.3c-.3.3-.6.5-.9.6-.3.1-.6.2-.9.2-.5,0-.9-.2-1.2-.5-.3-.3-.4-.7-.4-1.1s0-.7.3-1c.2-.3.5-.5.8-.7s.7-.3,1.1-.4.8-.1,1.2-.2v-.6c0-.2,0-.4,0-.6,0-.2-.1-.3-.3-.4-.1,0-.3-.1-.5-.1-.2,0-.3,0-.4,0-.1,0-.3.1-.4.2,0,0,.1.2.1.2s0,.2,0,.2c0,.2,0,.3-.2.5s-.3.3-.6.2c-.2,0-.4,0-.6-.3s-.2-.3-.2-.6c0-.3.1-.6.3-.8.2-.2.5-.4.9-.6.4-.1.8-.2,1.3-.2.7,0,1.2.2,1.6.5.4.4.6.9.6,1.7v.7c0,.2,0,.4,0,.6s0,.4,0,.7,0,.3,0,.5,0,.4,0,.6c.1,0,.3,0,.4,0,.2,0,.3,0,.3,0v.9h-2.3ZM535,453.3c-.2,0-.4,0-.6.1-.2,0-.4.1-.5.2s-.3.2-.3.3c0,.1-.1.3-.1.5,0,.2,0,.4.2.5.1,0,.3.1.5.1s.4,0,.5-.1c.2,0,.3-.2.4-.3v-1.3Z"/>
      <path d="M538,455.3c.2,0,.4,0,.5-.1,0,0,.2-.2.2-.4,0-.2,0-.3,0-.6v-2c0-.1,0-.3,0-.5,0-.2,0-.4,0-.5-.1,0-.3,0-.5,0s-.3,0-.4,0v-.9h.5c.3,0,.6,0,.9-.1s.4-.2.5-.2h.6c0,0,0,.2,0,.5s0,.4,0,.6c.2-.3.4-.5.6-.6s.4-.3.6-.4c.2,0,.4-.1.6-.1.3,0,.5,0,.7.2s.3.4.3.8,0,.2,0,.4c0,.1-.1.2-.3.3-.1,0-.3.1-.5.1s-.3,0-.5-.1-.3-.3-.3-.6c-.2,0-.3,0-.5.2-.2.1-.3.3-.4.5-.1.2-.2.3-.3.5v2c0,.1,0,.3,0,.5,0,.2,0,.4,0,.6.1,0,.3,0,.4,0,.2,0,.3,0,.4,0v.9h-3.1v-.8Z"/>
      <path d="M546.2,456.2c-.2,0-.5,0-.7,0-.2,0-.4-.2-.6-.3s-.3-.4-.4-.7c-.1-.3-.2-.7-.2-1.2v-2.9s-.8,0-.8,0v-1c.2,0,.5,0,.7-.3s.4-.4.6-.6.3-.5.3-.8h.9v1.7s1.5,0,1.5,0v.9h-1.5s0,3,0,3c0,.2,0,.4,0,.5,0,.2.1.3.2.4.1.1.3.2.5.2s.3,0,.5-.1c.2,0,.4-.3.6-.6l.6.5c-.2.3-.4.6-.7.7-.2.2-.5.3-.7.4-.2,0-.4.1-.6.1-.2,0-.3,0-.3,0Z"/>
      <path d="M551.5,456.2c-.3,0-.7,0-1-.1-.3,0-.6-.2-.8-.3v.4s-.9,0-.9,0v-2.1s.7,0,.7,0c0,.2.1.5.3.7.2.2.4.4.7.5.3.1.6.2.9.2s.3,0,.4,0c.1,0,.2-.1.3-.2s.1-.2.1-.3,0-.3-.2-.4c-.1,0-.3-.2-.5-.3s-.5-.2-.8-.3c-.2,0-.5-.2-.8-.3-.3-.1-.5-.2-.7-.4-.2-.1-.4-.3-.5-.6-.1-.2-.2-.5-.2-.8s0-.5.1-.7c0-.2.2-.4.4-.6.2-.2.4-.3.7-.5.3-.1.6-.2,1-.2s.5,0,.7.1.5.2.7.3v-.3h.9v2.1h-.8c0-.3-.1-.5-.3-.7-.1-.2-.3-.4-.6-.5-.2-.1-.5-.2-.8-.2s-.4,0-.5.1-.2.3-.2.5,0,.3.2.4c.1.1.3.2.5.3s.5.2.7.3c.4.1.8.3,1.1.5.3.2.6.4.8.7.2.3.3.6.3,1s-.1.8-.3,1c-.2.3-.5.5-.8.6s-.7.2-1.1.2Z"/>
    </g>
    <g>
      <path d="M345.6,258.8c-.1-.7-.3-1.2-.7-1.5-.3-.3-.8-.5-1.4-.5-.4,0-.8,0-1.1.3-.3.2-.6.4-.8.8-.2.3-.4.7-.5,1.1-.1.4-.1.8-.1,1.3,0,.7,0,1.3.3,1.8.2.5.5,1,.9,1.3.4.3.8.5,1.4.5s1-.1,1.5-.4c.5-.3.9-.6,1.2-1.1l.6.5c-.4.5-.8.9-1.2,1.2-.4.3-.9.5-1.3.6s-.8.1-1.1.1c-.6,0-1.2-.1-1.7-.3-.5-.2-.9-.5-1.3-.9-.4-.4-.6-.8-.8-1.4-.2-.5-.3-1.1-.3-1.7s0-1.1.3-1.6c.2-.5.4-1,.8-1.5.3-.4.8-.8,1.3-1,.5-.3,1.1-.4,1.8-.4s.7,0,1,.1c.4.1.7.2,1,.4v-.5s.9,0,.9,0v2.8h-.8Z"/>
      <path d="M350.5,264.7c-.6,0-1.1-.1-1.6-.4-.5-.2-.8-.6-1.1-1.1s-.4-1-.4-1.6.1-1.2.4-1.7c.3-.5.6-.9,1.1-1.2.5-.3,1-.4,1.5-.4s1.1.1,1.5.4.8.6,1.1,1.1.4,1,.4,1.6-.1,1.3-.4,1.8c-.3.5-.6.9-1.1,1.1-.4.3-1,.4-1.5.4ZM350.6,263.8c.3,0,.6-.1.7-.3s.3-.5.3-.8,0-.7,0-1,0-.6,0-.9-.1-.6-.2-.8c0-.2-.2-.4-.4-.6-.2-.2-.4-.2-.6-.2-.3,0-.6.1-.7.3-.2.2-.3.5-.4.8s-.1.7-.1,1,0,.8.1,1.2c0,.4.2.7.4,1,.2.3.5.4.8.4Z"/>
      <path d="M354.4,264.5v-.8c.2,0,.4,0,.5-.1,0,0,.2-.2.2-.4,0-.2,0-.3,0-.6v-2c0-.1,0-.3,0-.5,0-.2,0-.4,0-.5-.1,0-.3,0-.5,0s-.3,0-.4,0v-.9c.4,0,.7,0,.9,0,.3,0,.5,0,.6-.1.1,0,.2-.1.3-.2h.6c0,.1,0,.2,0,.2s0,0,0,.1,0,.1,0,.2c.2-.1.3-.2.6-.3.2,0,.4-.2.6-.2.2,0,.4,0,.6,0,.7,0,1.3.2,1.6.6.3.4.5,1.1.5,2v1.6c0,.1,0,.3,0,.5,0,.2,0,.4,0,.6.1,0,.3,0,.4,0,.2,0,.3,0,.3,0v.9h-3.1v-.8c.2,0,.4,0,.5-.1,0,0,.2-.2.2-.4,0-.2,0-.3,0-.6v-1.7c0-.5,0-.9-.2-1.2-.1-.3-.4-.4-.8-.4s-.4,0-.6.1c-.2,0-.4.2-.5.3v2.7c0,.1,0,.3,0,.5,0,.2,0,.4,0,.6.1,0,.3,0,.4,0,.2,0,.3,0,.4,0v.9h-3.1Z"/>
      <path d="M364.8,264.7c-.3,0-.7,0-1-.1-.3,0-.6-.2-.8-.3v.4s-.9,0-.9,0v-2.1s.7,0,.7,0c0,.2.1.5.3.7.2.2.4.4.7.5s.6.2.9.2.3,0,.4,0c.1,0,.2-.1.3-.2s.1-.2.1-.3,0-.3-.2-.4c-.1,0-.3-.2-.5-.3s-.5-.2-.8-.3c-.2,0-.5-.2-.8-.3-.3-.1-.5-.2-.7-.4-.2-.1-.4-.3-.5-.6-.1-.2-.2-.5-.2-.8s0-.5.1-.7c0-.2.2-.4.4-.6.2-.2.4-.3.7-.5.3-.1.6-.2,1-.2s.5,0,.7.1.5.2.7.3v-.3h.9v2.1h-.8c0-.3-.1-.5-.3-.7-.1-.2-.3-.4-.6-.5-.2-.1-.5-.2-.8-.2s-.4,0-.5.1-.2.3-.2.5,0,.3.2.4c.1.1.3.2.5.3.2,0,.5.2.7.3.4.1.8.3,1.1.5.3.2.6.4.8.7.2.3.3.6.3,1s-.1.8-.3,1c-.2.3-.5.5-.8.6s-.7.2-1.1.2Z"/>
      <path d="M370.2,264.7c-.2,0-.5,0-.7,0-.2,0-.4-.2-.6-.3-.2-.2-.3-.4-.4-.7-.1-.3-.2-.7-.2-1.2v-2.9s-.8,0-.8,0v-1c.2,0,.5,0,.7-.3s.4-.4.6-.6c.2-.3.3-.5.3-.8h.9v1.7s1.5,0,1.5,0v.9h-1.5s0,3,0,3c0,.2,0,.4,0,.5,0,.2.1.3.2.4.1.1.3.2.5.2s.3,0,.5-.1c.2,0,.4-.3.6-.6l.6.5c-.2.3-.4.6-.7.7-.2.2-.5.3-.7.4-.2,0-.4.1-.6.1-.2,0-.3,0-.3,0Z"/>
      <path d="M372.8,263.7c.2,0,.4,0,.5-.1,0,0,.2-.2.2-.4,0-.2,0-.3,0-.6v-2c0-.1,0-.3,0-.5,0-.2,0-.4,0-.5-.1,0-.3,0-.5,0s-.3,0-.4,0v-.9h.5c.3,0,.6,0,.9-.1.3,0,.4-.2.5-.2h.6c0,0,0,.2,0,.5s0,.4,0,.6c.2-.3.4-.5.6-.6s.4-.3.6-.4c.2,0,.4-.1.6-.1.3,0,.5,0,.7.2s.3.4.3.8,0,.2,0,.4c0,.1-.1.2-.3.3-.1,0-.3.1-.5.1s-.3,0-.5-.1-.3-.3-.3-.6c-.2,0-.3,0-.5.2-.2.1-.3.3-.4.5-.1.2-.2.3-.3.5v2c0,.1,0,.3,0,.5,0,.2,0,.4,0,.6.1,0,.3,0,.4,0,.2,0,.3,0,.4,0v.9h-3.1v-.8Z"/>
      <path d="M381.1,264.7c-.5,0-.9,0-1.2-.3s-.5-.5-.6-.9c-.1-.4-.2-.9-.2-1.5v-1.4c0-.1,0-.3,0-.5,0-.2,0-.4,0-.5-.1,0-.3,0-.5,0s-.3,0-.4,0v-.9h.1c.5,0,.9,0,1.2-.1s.5-.2.6-.2h.7v3.7c0,.5,0,.9.2,1.2.1.3.4.4.6.4s.4,0,.6-.2.4-.2.5-.4v-2.4c0-.1,0-.3,0-.5,0-.2,0-.4,0-.5-.1,0-.3,0-.5,0-.2,0-.3,0-.4,0v-.9h.3c.4,0,.7,0,1-.1s.5-.2.6-.2h.7v4.2c0,.1,0,.3,0,.5,0,.2,0,.4,0,.6.1,0,.3,0,.4,0,.2,0,.3,0,.4,0v.9h-2.3c0-.1,0-.2,0-.3,0-.1,0-.2,0-.3-.2.2-.5.4-.8.6-.3.2-.6.3-1,.3Z"/>
      <path d="M388.8,264.7c-.5,0-1-.1-1.5-.4-.4-.2-.8-.6-1.1-1s-.4-1-.4-1.7,0-.9.2-1.3c.2-.4.4-.8.6-1.1.3-.3.6-.5,1-.7.4-.2.8-.3,1.3-.3s.9,0,1.3.2c.3.2.6.4.8.6.2.3.3.5.3.8s0,.4-.2.6c-.1.2-.3.3-.6.3-.3,0-.5,0-.6-.3-.1-.2-.2-.4-.2-.5s0-.2,0-.3c0-.1,0-.2.1-.3,0-.1-.1-.2-.3-.3-.1,0-.2,0-.3-.1-.1,0-.2,0-.3,0-.4,0-.7.2-.9.6-.2.4-.4.9-.4,1.6s0,.8.1,1.1c.1.3.3.6.5.9.2.2.5.3.9.4.3,0,.7,0,1-.2s.6-.4.8-.7l.6.5c-.3.4-.6.7-.9.9s-.6.3-.9.4-.6.1-.9.1Z"/>
      <path d="M394.6,264.7c-.2,0-.5,0-.7,0-.2,0-.4-.2-.6-.3-.2-.2-.3-.4-.4-.7-.1-.3-.2-.7-.2-1.2v-2.9s-.8,0-.8,0v-1c.2,0,.5,0,.7-.3s.4-.4.6-.6c.2-.3.3-.5.3-.8h.9v1.7s1.5,0,1.5,0v.9h-1.5s0,3,0,3c0,.2,0,.4,0,.5,0,.2.1.3.2.4.1.1.3.2.5.2s.3,0,.5-.1c.2,0,.4-.3.6-.6l.6.5c-.2.3-.4.6-.7.7-.2.2-.5.3-.7.4-.2,0-.4.1-.6.1-.2,0-.3,0-.3,0Z"/>
      <path d="M397.2,263.7c.2,0,.4,0,.5-.1,0,0,.2-.2.2-.4,0-.2,0-.3,0-.6v-2c0-.1,0-.3,0-.5s0-.4,0-.5c-.1,0-.3,0-.5,0s-.3,0-.4,0v-.9c.4,0,.7,0,.9,0,.3,0,.5,0,.6-.1.1,0,.2-.1.3-.2h.6v4.2c0,.1,0,.3,0,.5,0,.2,0,.4,0,.6.1,0,.3,0,.4,0,.2,0,.3,0,.4,0v.9h-3.1v-.8ZM398.7,257.4c-.3,0-.5,0-.7-.3-.2-.2-.3-.4-.3-.7s0-.5.3-.7.4-.3.6-.3.5,0,.6.3c.2.2.3.4.3.7s0,.5-.2.7c-.2.2-.4.3-.6.3Z"/>
      <path d="M404,264.7c-.6,0-1.1-.1-1.6-.4-.5-.2-.8-.6-1.1-1.1s-.4-1-.4-1.6.1-1.2.4-1.7c.3-.5.6-.9,1.1-1.2.5-.3,1-.4,1.5-.4s1.1.1,1.5.4.8.6,1.1,1.1.4,1,.4,1.6-.1,1.3-.4,1.8c-.3.5-.6.9-1.1,1.1-.4.3-1,.4-1.5.4ZM404.1,263.8c.3,0,.6-.1.7-.3s.3-.5.3-.8,0-.7,0-1,0-.6,0-.9-.1-.6-.2-.8c0-.2-.2-.4-.4-.6-.2-.2-.4-.2-.6-.2-.3,0-.6.1-.7.3-.2.2-.3.5-.4.8s-.1.7-.1,1,0,.8.1,1.2c0,.4.2.7.4,1,.2.3.5.4.8.4Z"/>
      <path d="M407.9,264.5v-.8c.2,0,.4,0,.5-.1,0,0,.2-.2.2-.4,0-.2,0-.3,0-.6v-2c0-.1,0-.3,0-.5,0-.2,0-.4,0-.5-.1,0-.3,0-.5,0s-.3,0-.4,0v-.9c.4,0,.7,0,.9,0,.3,0,.5,0,.6-.1.1,0,.2-.1.3-.2h.6c0,.1,0,.2,0,.2s0,0,0,.1,0,.1,0,.2c.2-.1.3-.2.6-.3.2,0,.4-.2.6-.2.2,0,.4,0,.6,0,.7,0,1.3.2,1.6.6.3.4.5,1.1.5,2v1.6c0,.1,0,.3,0,.5,0,.2,0,.4,0,.6.1,0,.3,0,.4,0,.2,0,.3,0,.3,0v.9h-3.1v-.8c.2,0,.4,0,.5-.1,0,0,.2-.2.2-.4,0-.2,0-.3,0-.6v-1.7c0-.5,0-.9-.2-1.2-.1-.3-.4-.4-.8-.4s-.4,0-.6.1c-.2,0-.4.2-.5.3v2.7c0,.1,0,.3,0,.5,0,.2,0,.4,0,.6.1,0,.3,0,.4,0,.2,0,.3,0,.4,0v.9h-3.1Z"/>
    </g>
  </g>
</svg>